<?xml version="1.0" encoding="UTF-8"?>
<!--Generator: Apple Native CoreSVG 175-->
<!DOCTYPE svg
PUBLIC "-//W3C//DTD SVG 1.1//EN"
       "http://www.w3.org/Graphics/SVG/1.1/DTD/svg11.dtd">
<svg version="1.1" xmlns="http://www.w3.org/2000/svg" xmlns:xlink="http://www.w3.org/1999/xlink" width="3300" height="2200">
 <!--glyph: "uni100269.medium", point size: 100.0, font version: "17.1d1e1", template writer version: "65.1"-->
 <g id="Notes">
  <rect height="2200" id="artboard" style="fill:white;opacity:1" width="3300" x="0" y="0"/>
  <line style="fill:none;stroke:black;opacity:1;stroke-width:0.5;" x1="263" x2="3036" y1="292" y2="292"/>
  <text style="stroke:none;fill:black;font-family:sans-serif;font-size:13;font-weight:bold;" transform="matrix(1 0 0 1 263 322)">Weight/Scale Variations</text>
  <text style="stroke:none;fill:black;font-family:sans-serif;font-size:13;text-anchor:middle;" transform="matrix(1 0 0 1 559.711 322)">Ultralight</text>
  <text style="stroke:none;fill:black;font-family:sans-serif;font-size:13;text-anchor:middle;" transform="matrix(1 0 0 1 856.422 322)">Thin</text>
  <text style="stroke:none;fill:black;font-family:sans-serif;font-size:13;text-anchor:middle;" transform="matrix(1 0 0 1 1153.13 322)">Light</text>
  <text style="stroke:none;fill:black;font-family:sans-serif;font-size:13;text-anchor:middle;" transform="matrix(1 0 0 1 1449.84 322)">Regular</text>
  <text style="stroke:none;fill:black;font-family:sans-serif;font-size:13;text-anchor:middle;" transform="matrix(1 0 0 1 1746.56 322)">Medium</text>
  <text style="stroke:none;fill:black;font-family:sans-serif;font-size:13;text-anchor:middle;" transform="matrix(1 0 0 1 2043.27 322)">Semibold</text>
  <text style="stroke:none;fill:black;font-family:sans-serif;font-size:13;text-anchor:middle;" transform="matrix(1 0 0 1 2339.98 322)">Bold</text>
  <text style="stroke:none;fill:black;font-family:sans-serif;font-size:13;text-anchor:middle;" transform="matrix(1 0 0 1 2636.69 322)">Heavy</text>
  <text style="stroke:none;fill:black;font-family:sans-serif;font-size:13;text-anchor:middle;" transform="matrix(1 0 0 1 2933.4 322)">Black</text>
  <line style="fill:none;stroke:black;opacity:1;stroke-width:0.5;" x1="263" x2="3036" y1="1903" y2="1903"/>
  <g transform="matrix(1 0 0 1 263 1933)">
   <path d="M9.24805 0.830078Q10.8691 0.830078 12.2949 0.214844Q13.7207-0.400391 14.8096-1.49414Q15.8984-2.58789 16.5186-4.01367Q17.1387-5.43945 17.1387-7.05078Q17.1387-8.66211 16.5186-10.0879Q15.8984-11.5137 14.8047-12.6074Q13.7109-13.7012 12.2852-14.3164Q10.8594-14.9316 9.23828-14.9316Q7.62695-14.9316 6.20117-14.3164Q4.77539-13.7012 3.69141-12.6074Q2.60742-11.5137 1.9873-10.0879Q1.36719-8.66211 1.36719-7.05078Q1.36719-5.43945 1.9873-4.01367Q2.60742-2.58789 3.69629-1.49414Q4.78516-0.400391 6.21094 0.214844Q7.63672 0.830078 9.24805 0.830078ZM9.24805-0.654297Q7.91992-0.654297 6.7627-1.14746Q5.60547-1.64062 4.73145-2.51953Q3.85742-3.39844 3.36426-4.56055Q2.87109-5.72266 2.87109-7.05078Q2.87109-8.37891 3.35938-9.54102Q3.84766-10.7031 4.72168-11.582Q5.5957-12.4609 6.75293-12.9541Q7.91016-13.4473 9.23828-13.4473Q10.5762-13.4473 11.7334-12.9541Q12.8906-12.4609 13.7695-11.582Q14.6484-10.7031 15.1465-9.54102Q15.6445-8.37891 15.6445-7.05078Q15.6445-5.72266 15.1514-4.56055Q14.6582-3.39844 13.7842-2.51953Q12.9102-1.64062 11.748-1.14746Q10.5859-0.654297 9.24805-0.654297ZM5.6543-7.05078Q5.6543-6.72852 5.85938-6.52832Q6.06445-6.32812 6.40625-6.32812L8.51562-6.32812L8.51562-4.20898Q8.51562-3.88672 8.71094-3.67676Q8.90625-3.4668 9.23828-3.4668Q9.56055-3.4668 9.77051-3.67676Q9.98047-3.88672 9.98047-4.20898L9.98047-6.32812L12.0898-6.32812Q12.4219-6.32812 12.627-6.52832Q12.832-6.72852 12.832-7.05078Q12.832-7.38281 12.627-7.58789Q12.4219-7.79297 12.0898-7.79297L9.98047-7.79297L9.98047-9.90234Q9.98047-10.2344 9.77051-10.4443Q9.56055-10.6543 9.23828-10.6543Q8.90625-10.6543 8.71094-10.4443Q8.51562-10.2344 8.51562-9.90234L8.51562-7.79297L6.40625-7.79297Q6.06445-7.79297 5.85938-7.58789Q5.6543-7.38281 5.6543-7.05078Z"/>
  </g>
  <g transform="matrix(1 0 0 1 281.867 1933)">
   <path d="M11.709 2.91016Q13.75 2.91016 15.5518 2.12891Q17.3535 1.34766 18.7305-0.0292969Q20.1074-1.40625 20.8887-3.20801Q21.6699-5.00977 21.6699-7.05078Q21.6699-9.0918 20.8887-10.8936Q20.1074-12.6953 18.7305-14.0723Q17.3535-15.4492 15.5469-16.2305Q13.7402-17.0117 11.6992-17.0117Q9.6582-17.0117 7.85645-16.2305Q6.05469-15.4492 4.68262-14.0723Q3.31055-12.6953 2.5293-10.8936Q1.74805-9.0918 1.74805-7.05078Q1.74805-5.00977 2.5293-3.20801Q3.31055-1.40625 4.6875-0.0292969Q6.06445 1.34766 7.86621 2.12891Q9.66797 2.91016 11.709 2.91016ZM11.709 1.25Q9.98047 1.25 8.47656 0.605469Q6.97266-0.0390625 5.83496-1.17676Q4.69727-2.31445 4.05762-3.81836Q3.41797-5.32227 3.41797-7.05078Q3.41797-8.7793 4.05762-10.2832Q4.69727-11.7871 5.83008-12.9297Q6.96289-14.0723 8.4668-14.7119Q9.9707-15.3516 11.6992-15.3516Q13.4277-15.3516 14.9316-14.7119Q16.4355-14.0723 17.5781-12.9297Q18.7207-11.7871 19.3652-10.2832Q20.0098-8.7793 20.0098-7.05078Q20.0098-5.32227 19.3701-3.81836Q18.7305-2.31445 17.5928-1.17676Q16.4551-0.0390625 14.9463 0.605469Q13.4375 1.25 11.709 1.25ZM7.17773-7.05078Q7.17773-6.69922 7.41211-6.47461Q7.64648-6.25 8.01758-6.25L10.8887-6.25L10.8887-3.36914Q10.8887-2.99805 11.1133-2.76855Q11.3379-2.53906 11.6895-2.53906Q12.0605-2.53906 12.29-2.76855Q12.5195-2.99805 12.5195-3.36914L12.5195-6.25L15.4004-6.25Q15.7715-6.25 16.001-6.47461Q16.2305-6.69922 16.2305-7.05078Q16.2305-7.42188 16.001-7.65137Q15.7715-7.88086 15.4004-7.88086L12.5195-7.88086L12.5195-10.752Q12.5195-11.1328 12.29-11.3623Q12.0605-11.5918 11.6895-11.5918Q11.3379-11.5918 11.1133-11.3574Q10.8887-11.123 10.8887-10.752L10.8887-7.88086L8.01758-7.88086Q7.63672-7.88086 7.40723-7.65137Q7.17773-7.42188 7.17773-7.05078Z"/>
  </g>
  <g transform="matrix(1 0 0 1 305.646 1933)">
   <path d="M14.9707 5.66406Q17.0605 5.66406 18.96 5.01465Q20.8594 4.36523 22.4512 3.19336Q24.043 2.02148 25.2197 0.429688Q26.3965-1.16211 27.0459-3.06641Q27.6953-4.9707 27.6953-7.05078Q27.6953-9.14062 27.0459-11.04Q26.3965-12.9395 25.2197-14.5312Q24.043-16.123 22.4512-17.2998Q20.8594-18.4766 18.9551-19.126Q17.0508-19.7754 14.9609-19.7754Q12.8711-19.7754 10.9717-19.126Q9.07227-18.4766 7.48535-17.2998Q5.89844-16.123 4.72168-14.5312Q3.54492-12.9395 2.90039-11.04Q2.25586-9.14062 2.25586-7.05078Q2.25586-4.9707 2.90527-3.06641Q3.55469-1.16211 4.72656 0.429688Q5.89844 2.02148 7.49023 3.19336Q9.08203 4.36523 10.9814 5.01465Q12.8809 5.66406 14.9707 5.66406ZM14.9707 3.84766Q13.1641 3.84766 11.5283 3.2959Q9.89258 2.74414 8.53516 1.74805Q7.17773 0.751953 6.17676-0.610352Q5.17578-1.97266 4.62891-3.6084Q4.08203-5.24414 4.08203-7.05078Q4.08203-8.86719 4.62891-10.5029Q5.17578-12.1387 6.17188-13.501Q7.16797-14.8633 8.52539-15.8594Q9.88281-16.8555 11.5186-17.4023Q13.1543-17.9492 14.9609-17.9492Q16.7773-17.9492 18.4131-17.4023Q20.0488-16.8555 21.4111-15.8594Q22.7734-14.8633 23.7695-13.501Q24.7656-12.1387 25.3174-10.5029Q25.8691-8.86719 25.8691-7.05078Q25.8789-5.24414 25.332-3.6084Q24.7852-1.97266 23.7842-0.610352Q22.7832 0.751953 21.4209 1.74805Q20.0586 2.74414 18.4229 3.2959Q16.7871 3.84766 14.9707 3.84766ZM9.19922-7.05078Q9.19922-6.66992 9.45801-6.4209Q9.7168-6.17188 10.1172-6.17188L14.0625-6.17188L14.0625-2.2168Q14.0625-1.81641 14.3115-1.55762Q14.5605-1.29883 14.9512-1.29883Q15.3516-1.29883 15.6104-1.55273Q15.8691-1.80664 15.8691-2.2168L15.8691-6.17188L19.8242-6.17188Q20.2246-6.17188 20.4785-6.4209Q20.7324-6.66992 20.7324-7.05078Q20.7324-7.46094 20.4785-7.71484Q20.2246-7.96875 19.8242-7.96875L15.8691-7.96875L15.8691-11.9141Q15.8691-12.3242 15.6104-12.583Q15.3516-12.8418 14.9512-12.8418Q14.5605-12.8418 14.3115-12.583Q14.0625-12.3242 14.0625-11.9141L14.0625-7.96875L10.1172-7.96875Q9.70703-7.96875 9.45312-7.71484Q9.19922-7.46094 9.19922-7.05078Z"/>
  </g>
  <text style="stroke:none;fill:black;font-family:sans-serif;font-size:13;font-weight:bold;" transform="matrix(1 0 0 1 263 1953)">Design Variations</text>
  <text style="stroke:none;fill:black;font-family:sans-serif;font-size:13;" transform="matrix(1 0 0 1 263 1971)">Symbols are supported in up to nine weights and three scales.</text>
  <text style="stroke:none;fill:black;font-family:sans-serif;font-size:13;" transform="matrix(1 0 0 1 263 1989)">For optimal layout with text and other symbols, vertically align</text>
  <text style="stroke:none;fill:black;font-family:sans-serif;font-size:13;" transform="matrix(1 0 0 1 263 2007)">symbols with the adjacent text.</text>
  <line style="fill:none;stroke:#00AEEF;stroke-width:0.5;opacity:1.0;" x1="776" x2="776" y1="1919" y2="1933"/>
  <g transform="matrix(1 0 0 1 776 1933)">
   <path d="M3.31055 0.15625Q3.70117 0.15625 3.91602-0.00976562Q4.13086-0.175781 4.26758-0.585938L5.52734-4.0332L11.2891-4.0332L12.5488-0.585938Q12.6855-0.175781 12.9004-0.00976562Q13.1152 0.15625 13.4961 0.15625Q13.8867 0.15625 14.1162-0.0585938Q14.3457-0.273438 14.3457-0.644531Q14.3457-0.869141 14.2383-1.17188L9.6582-13.3691Q9.48242-13.8184 9.17969-14.043Q8.87695-14.2676 8.4082-14.2676Q7.5-14.2676 7.17773-13.3789L2.59766-1.16211Q2.49023-0.859375 2.49023-0.634766Q2.49023-0.263672 2.70996-0.0537109Q2.92969 0.15625 3.31055 0.15625ZM6.00586-5.51758L8.37891-12.0898L8.42773-12.0898L10.8008-5.51758Z"/>
  </g>
  <line style="fill:none;stroke:#00AEEF;stroke-width:0.5;opacity:1.0;" x1="793.197" x2="793.197" y1="1919" y2="1933"/>
  <text style="stroke:none;fill:black;font-family:sans-serif;font-size:13;font-weight:bold;" transform="matrix(1 0 0 1 776 1953)">Margins</text>
  <text style="stroke:none;fill:black;font-family:sans-serif;font-size:13;" transform="matrix(1 0 0 1 776 1971)">Leading and trailing margins on the left and right side of each symbol</text>
  <text style="stroke:none;fill:black;font-family:sans-serif;font-size:13;" transform="matrix(1 0 0 1 776 1989)">can be adjusted by modifying the x-location of the margin guidelines.</text>
  <text style="stroke:none;fill:black;font-family:sans-serif;font-size:13;" transform="matrix(1 0 0 1 776 2007)">Modifications are automatically applied proportionally to all</text>
  <text style="stroke:none;fill:black;font-family:sans-serif;font-size:13;" transform="matrix(1 0 0 1 776 2025)">scales and weights.</text>
  <g transform="matrix(1 0 0 1 1289 1933)">
   <path d="M2.8418 1.86523L4.54102 3.57422Q5.18555 4.22852 5.90332 4.17969Q6.62109 4.13086 7.31445 3.35938L18.0078-8.42773L17.041-9.4043L6.42578 2.27539Q6.16211 2.57812 5.89355 2.61719Q5.625 2.65625 5.27344 2.30469L4.10156 1.14258Q3.75 0.791016 3.79395 0.522461Q3.83789 0.253906 4.14062-0.0195312L15.6152-10.8203L14.6387-11.7871L3.04688-0.898438Q2.30469-0.214844 2.25098 0.498047Q2.19727 1.21094 2.8418 1.86523ZM9.25781-16.3281Q8.94531-16.0254 8.90625-15.6348Q8.86719-15.2441 9.04297-14.9512Q9.21875-14.6777 9.55566-14.541Q9.89258-14.4043 10.3809-14.5215Q11.4746-14.7754 12.5977-14.7314Q13.7207-14.6875 14.7949-13.9844L14.209-12.5293Q13.9551-11.9043 14.0674-11.4404Q14.1797-10.9766 14.5801-10.5664L16.875-8.25195Q17.2363-7.88086 17.5781-7.82227Q17.9199-7.76367 18.3398-7.8418L19.4043-8.03711L20.0684-7.36328L20.0293-6.80664Q20-6.43555 20.1221-6.12305Q20.2441-5.81055 20.6055-5.44922L21.3672-4.70703Q21.7285-4.3457 22.1533-4.33105Q22.5781-4.31641 22.9297-4.66797L25.8398-7.58789Q26.1914-7.93945 26.1816-8.35449Q26.1719-8.76953 25.8105-9.13086L25.0391-9.89258Q24.6875-10.2539 24.3799-10.3857Q24.0723-10.5176 23.7109-10.4883L23.1348-10.4395L22.4902-11.0742L22.7344-12.1973Q22.832-12.6172 22.6953-12.9834Q22.5586-13.3496 22.1191-13.7891L19.9219-15.9766Q18.6719-17.2168 17.2607-17.8369Q15.8496-18.457 14.4189-18.4814Q12.9883-18.5059 11.665-17.959Q10.3418-17.4121 9.25781-16.3281ZM10.752-15.957Q11.6602-16.6211 12.7002-16.9043Q13.7402-17.1875 14.8047-17.085Q15.8691-16.9824 16.8701-16.5137Q17.8711-16.0449 18.7012-15.2051L21.1328-12.793Q21.3086-12.6172 21.3525-12.4512Q21.3965-12.2852 21.3379-12.0312L21.0156-10.5469L22.5195-9.0625L23.5059-9.12109Q23.6914-9.13086 23.7891-9.09668Q23.8867-9.0625 24.0332-8.91602L24.6094-8.33984L22.168-5.89844L21.5918-6.47461Q21.4453-6.62109 21.4062-6.71875Q21.3672-6.81641 21.377-7.01172L21.4453-7.98828L19.9512-9.47266L18.4277-9.21875Q18.1836-9.16992 18.042-9.2041Q17.9004-9.23828 17.7148-9.41406L15.7129-11.416Q15.5176-11.5918 15.4932-11.7529Q15.4688-11.9141 15.5859-12.1875L16.4648-14.2773Q15.293-15.3711 13.8281-15.791Q12.3633-16.2109 10.8398-15.7617Q10.7227-15.7324 10.6885-15.8057Q10.6543-15.8789 10.752-15.957Z"/>
  </g>
  <text style="stroke:none;fill:black;font-family:sans-serif;font-size:13;font-weight:bold;" transform="matrix(1 0 0 1 1289 1953)">Exporting</text>
  <text style="stroke:none;fill:black;font-family:sans-serif;font-size:13;" transform="matrix(1 0 0 1 1289 1971)">Symbols should be outlined when exporting to ensure the</text>
  <text style="stroke:none;fill:black;font-family:sans-serif;font-size:13;" transform="matrix(1 0 0 1 1289 1989)">design is preserved when submitting to Xcode.</text>
  <text id="template-version" style="stroke:none;fill:black;font-family:sans-serif;font-size:13;text-anchor:end;" transform="matrix(1 0 0 1 3036 1933)">Template v.3.0</text>
  <text style="stroke:none;fill:black;font-family:sans-serif;font-size:13;text-anchor:end;" transform="matrix(1 0 0 1 3036 1951)">Requires Xcode 13 or greater</text>
  <text id="descriptive-name" style="stroke:none;fill:black;font-family:sans-serif;font-size:13;text-anchor:end;" transform="matrix(1 0 0 1 3036 1969)">Generated from person</text>
  <text style="stroke:none;fill:black;font-family:sans-serif;font-size:13;text-anchor:end;" transform="matrix(1 0 0 1 3036 1987)">Typeset at 100 points</text>
  <text style="stroke:none;fill:black;font-family:sans-serif;font-size:13;" transform="matrix(1 0 0 1 263 726)">Small</text>
  <text style="stroke:none;fill:black;font-family:sans-serif;font-size:13;" transform="matrix(1 0 0 1 263 1156)">Medium</text>
  <text style="stroke:none;fill:black;font-family:sans-serif;font-size:13;" transform="matrix(1 0 0 1 263 1586)">Large</text>
 </g>
 <g id="Guides">
  <g id="H-reference" style="fill:#27AAE1;stroke:none;" transform="matrix(1 0 0 1 339 696)">
   <path d="M0.993347 0L3.6377 0L29.3282-67.1326L30.0301-67.1326L30.0301-70.459L28.1227-70.459ZM11.6882-24.4797L46.9818-24.4797L46.2311-26.7288L12.4382-26.7288ZM55.1193 0L57.7637 0L30.6381-70.459L29.4327-70.459L29.4327-67.1326Z"/>
  </g>
  <line id="Baseline-S" style="fill:none;stroke:#27AAE1;opacity:1;stroke-width:0.5;" x1="263" x2="3036" y1="696" y2="696"/>
  <line id="Capline-S" style="fill:none;stroke:#27AAE1;opacity:1;stroke-width:0.5;" x1="263" x2="3036" y1="625.541" y2="625.541"/>
  <g id="H-reference" style="fill:#27AAE1;stroke:none;" transform="matrix(1 0 0 1 339 1126)">
   <path d="M0.993347 0L3.6377 0L29.3282-67.1326L30.0301-67.1326L30.0301-70.459L28.1227-70.459ZM11.6882-24.4797L46.9818-24.4797L46.2311-26.7288L12.4382-26.7288ZM55.1193 0L57.7637 0L30.6381-70.459L29.4327-70.459L29.4327-67.1326Z"/>
  </g>
  <line id="Baseline-M" style="fill:none;stroke:#27AAE1;opacity:1;stroke-width:0.5;" x1="263" x2="3036" y1="1126" y2="1126"/>
  <line id="Capline-M" style="fill:none;stroke:#27AAE1;opacity:1;stroke-width:0.5;" x1="263" x2="3036" y1="1055.54" y2="1055.54"/>
  <g id="H-reference" style="fill:#27AAE1;stroke:none;" transform="matrix(1 0 0 1 339 1556)">
   <path d="M0.993347 0L3.6377 0L29.3282-67.1326L30.0301-67.1326L30.0301-70.459L28.1227-70.459ZM11.6882-24.4797L46.9818-24.4797L46.2311-26.7288L12.4382-26.7288ZM55.1193 0L57.7637 0L30.6381-70.459L29.4327-70.459L29.4327-67.1326Z"/>
  </g>
  <line id="Baseline-L" style="fill:none;stroke:#27AAE1;opacity:1;stroke-width:0.5;" x1="263" x2="3036" y1="1556" y2="1556"/>
  <line id="Capline-L" style="fill:none;stroke:#27AAE1;opacity:1;stroke-width:0.5;" x1="263" x2="3036" y1="1485.54" y2="1485.54"/>
  <line id="left-margin-Regular-M" style="fill:none;stroke:#00AEEF;stroke-width:0.5;opacity:1.0;" x1="1394.75" x2="1394.75" y1="1030.79" y2="1150.12"/>
  <line id="right-margin-Regular-M" style="fill:none;stroke:#00AEEF;stroke-width:0.5;opacity:1.0;" x1="1504.94" x2="1504.94" y1="1030.79" y2="1150.12"/>
 </g>
 <g id="Symbols">
  <g id="Black-L" transform="matrix(1 0 0 1 2860.7 1556)">
   <path d="M34.4786 26.4107L110.924 26.4107Q129.32 26.4107 129.32 13.0556Q129.32 5.63794 125.103-1.55044Q120.886-8.73882 113.256-14.5577Q105.625-20.3766 95.2809-23.8854Q84.9372-27.3941 72.7012-27.3941Q60.4664-27.3941 50.133-23.8854Q39.7997-20.3766 32.1578-14.5577Q24.516-8.73882 20.3-1.55044Q16.084 5.63794 16.084 13.0556Q16.084 26.4107 34.4786 26.4107ZM35.4705 10.7055Q34.8364 10.7055 34.5746 10.3646Q34.3128 10.0238 34.3128 9.58536Q34.3128 6.89187 36.9127 3.27228Q39.5125-0.347313 44.4426-3.77568Q49.3727-7.20405 56.4995-9.4471Q63.6264-11.6901 72.7012-11.6901Q81.776-11.6901 88.9029-9.4471Q96.0297-7.20405 100.96-3.77568Q105.891-0.347313 108.491 3.27228Q111.091 6.89187 111.091 9.58536Q111.091 10.0238 110.869 10.3646Q110.646 10.7055 109.932 10.7055ZM72.7036-33.1397Q80.7231-33.1397 87.2601-37.3117Q93.7972-41.4837 97.6469-48.5349Q101.497-55.586 101.497-64.1929Q101.497-72.6174 97.5977-79.5271Q93.6988-86.4368 87.1722-90.5866Q80.6455-94.7364 72.7036-94.7364Q64.8032-94.7364 58.237-90.5658Q51.6708-86.3951 47.7906-79.475Q43.9105-72.555 43.9117-64.1513Q43.9713-55.5652 47.8022-48.5141Q51.6332-41.4629 58.1586-37.3013Q64.684-33.1397 72.7036-33.1397ZM72.7036-48.8241Q69.2303-48.8241 66.3113-50.7256Q63.3924-52.6271 61.6275-56.1018Q59.8626-59.5765 59.8042-64.2097Q59.803-68.602 61.5873-71.9165Q63.3716-75.231 66.3209-77.1311Q69.2703-79.0312 72.7036-79.0312Q76.2161-79.0312 79.1357-77.1421Q82.0552-75.253 83.8297-71.9087Q85.6041-68.5644 85.6041-64.1929Q85.6041-59.5598 83.8497-56.1038Q82.0952-52.6479 79.1756-50.736Q76.2561-48.8241 72.7036-48.8241Z"/>
  </g>
  <g id="Heavy-L" transform="matrix(1 0 0 1 2564.41 1556)">
   <path d="M33.6572 25.8243L110.894 25.8243Q128.472 25.8243 128.472 13.2993Q128.472 6.17551 124.364-0.965411Q120.255-8.10634 112.745-14.0041Q105.235-19.9018 94.936-23.5032Q84.637-27.1045 72.2753-27.1045Q59.9194-27.1045 49.6354-23.5032Q39.3513-19.9018 31.8236-14.0041Q24.2959-8.10634 20.19-0.965411Q16.084 6.17551 16.084 13.2993Q16.084 25.8243 33.6572 25.8243ZM33.777 11.7192Q32.9481 11.7192 32.5969 11.3549Q32.2457 10.9905 32.2457 10.391Q32.2457 7.37589 34.9363 3.38955Q37.6269-0.596788 42.7619-4.34721Q47.8968-8.09763 55.3292-10.5513Q62.7616-13.005 72.2753-13.005Q81.7892-13.005 89.2215-10.5513Q96.6539-8.09763 101.792-4.34721Q106.929-0.596788 109.62 3.38955Q112.311 7.37589 112.311 10.391Q112.311 10.9905 111.997 11.3549Q111.683 11.7192 110.774 11.7192ZM72.2865-33.4Q80.1693-33.4 86.6159-37.5223Q93.0625-41.6447 96.8603-48.6073Q100.658-55.5699 100.658-64.0627Q100.658-72.3879 96.8252-79.1997Q92.9921-86.0115 86.5607-90.0835Q80.1292-94.1556 72.2865-94.1556Q64.5043-94.1556 58.0354-90.0533Q51.5666-85.9511 47.7407-79.1242Q43.9149-72.2974 43.9205-64.0023Q43.9708-55.5398 47.7614-48.5772Q51.5521-41.6145 57.9779-37.5073Q64.4037-33.4 72.2865-33.4ZM72.2865-47.4749Q68.5143-47.4749 65.3455-49.5678Q62.1767-51.6607 60.2593-55.406Q58.3419-59.1512 58.2973-64.0469Q58.2917-68.7305 60.2191-72.3177Q62.1465-75.905 65.3432-77.9777Q68.5399-80.0504 72.2865-80.0504Q76.108-80.0504 79.2796-77.9956Q82.4512-75.9408 84.3663-72.3284Q86.2814-68.7161 86.2814-64.0627Q86.2814-59.167 84.3791-55.429Q82.4768-51.6909 79.3052-49.5829Q76.1336-47.4749 72.2865-47.4749Z"/>
  </g>
  <g id="Bold-L" transform="matrix(1 0 0 1 2268.26 1556)">
   <path d="M32.5161 25.0721L110.9 25.0721Q127.345 25.0721 127.345 13.5691Q127.345 6.77687 123.36-0.29892Q119.374-7.37471 112.01-13.3499Q104.647-19.3251 94.4164-23.0194Q84.1861-26.7137 71.7079-26.7137Q59.2432-26.7137 49.0318-23.0194Q38.8203-19.3251 31.431-13.3499Q24.0417-7.37471 20.0629-0.29892Q16.084 6.77687 16.084 13.5691Q16.084 25.0721 32.5161 25.0721ZM31.7837 13.0166Q30.6269 13.0166 30.1383 12.5991Q29.6497 12.1817 29.6497 11.3377Q29.6497 7.89323 32.4592 3.44979Q35.2687-0.993641 40.661-5.13244Q46.0532-9.27123 53.8621-11.9712Q61.671-14.6713 71.7079-14.6713Q81.745-14.6713 89.5539-11.9712Q97.3628-9.27123 102.762-5.13244Q108.161-0.993641 110.97 3.44979Q113.779 7.89323 113.779 11.3377Q113.779 12.1817 113.324 12.5991Q112.869 13.0166 111.632 13.0166ZM71.7343-33.7153Q79.4481-33.7153 85.7721-37.7687Q92.096-41.822 95.8212-48.6696Q99.5463-55.5171 99.5463-63.8715Q99.5463-72.0589 95.7977-78.7478Q92.0491-85.4367 85.7441-89.4164Q79.4392-93.3962 71.7343-93.3962Q64.1057-93.3962 57.7671-89.3784Q51.4285-85.3607 47.6756-78.6529Q43.9226-71.945 43.9357-63.7955Q43.9783-55.4792 47.7077-48.6317Q51.4372-41.7842 57.7289-37.7497Q64.0206-33.7153 71.7343-33.7153ZM71.7343-45.7329Q67.5635-45.7329 64.0723-48.0639Q60.5811-50.395 58.4718-54.4857Q56.3625-58.5765 56.3333-63.8247Q56.3199-68.877 58.4316-72.8135Q60.5433-76.7499 64.0622-79.0452Q67.5811-81.3404 71.7343-81.3404Q75.9549-81.3404 79.4527-79.0708Q82.9504-76.8011 85.0496-72.8434Q87.1488-68.8857 87.1488-63.8715Q87.1488-58.6232 85.0584-54.5282Q82.968-50.4331 79.4702-48.083Q75.9725-45.7329 71.7343-45.7329Z"/>
  </g>
  <g id="Semibold-L" transform="matrix(1 0 0 1 1971.94 1556)">
   <path d="M31.7295 24.5535L110.904 24.5535Q126.568 24.5535 126.568 13.7552Q126.568 7.19144 122.668 0.160554Q118.767-6.87033 111.504-12.899Q104.241-18.9276 94.0582-22.6859Q83.8753-26.4442 71.3167-26.4442Q58.7771-26.4442 48.6157-22.6859Q38.4543-18.9276 31.1604-12.899Q23.8665-6.87033 19.9752 0.160554Q16.084 7.19144 16.084 13.7552Q16.084 24.5535 31.7295 24.5535ZM30.4095 13.911Q29.0267 13.911 28.4433 13.4569Q27.8599 13.0029 27.8599 11.9904Q27.8599 8.24988 30.7514 3.49132Q33.6429-1.26723 39.2126-5.67377Q44.7823-10.0803 52.8507-12.9501Q60.9192-15.82 71.3167-15.82Q81.7145-15.82 89.783-12.9501Q97.8515-10.0803 103.43-5.67377Q109.009-1.26723 111.901 3.49132Q114.792 8.24988 114.792 11.9904Q114.792 13.0029 114.24 13.4569Q113.687 13.911 112.224 13.911ZM71.3537-33.9327Q78.9509-33.9327 85.1903-37.9385Q91.4298-41.9443 95.1048-48.7125Q98.7798-55.4807 98.7798-63.7397Q98.7798-71.832 95.0893-78.4363Q91.3989-85.0405 85.1812-88.9565Q78.9635-92.8726 71.3537-92.8726Q63.8309-92.8726 57.5821-88.9132Q51.3334-84.9537 47.6307-78.3279Q43.9279-71.7021 43.9462-63.6529Q43.9834-55.4375 47.6707-48.6693Q51.358-41.9011 57.5573-37.9169Q63.7565-33.9327 71.3537-33.9327ZM71.3537-44.532Q66.908-44.532 63.1946-47.0272Q59.4812-49.5224 57.2395-53.8513Q54.9978-58.1802 54.9793-63.6715Q54.9606-68.978 57.1993-73.1552Q59.438-77.3324 63.179-79.7811Q66.92-82.2298 71.3537-82.2298Q75.8494-82.2298 79.572-79.812Q83.2946-77.3943 85.5206-73.1984Q87.7467-69.0026 87.7467-63.7397Q87.7467-58.2484 85.5266-53.9071Q83.3066-49.5659 79.584-47.0489Q75.8614-44.532 71.3537-44.532Z"/>
  </g>
  <g id="Medium-L" transform="matrix(1 0 0 1 1675.52 1556)">
   <path d="M31.133 24.1603L110.908 24.1603Q125.979 24.1603 125.979 13.8962Q125.979 7.50578 122.143 0.508947Q118.307-6.48789 111.12-12.557Q103.933-18.6261 93.7865-22.433Q83.6397-26.2399 71.0201-26.2399Q58.4236-26.2399 48.3002-22.433Q38.1767-18.6261 30.9552-12.557Q23.7336-6.48789 19.9088 0.508947Q16.084 7.50578 16.084 13.8962Q16.084 24.1603 31.133 24.1603ZM29.3675 14.5891Q27.8134 14.5891 27.1582 14.1073Q26.5029 13.6256 26.5029 12.4853Q26.5029 8.5203 29.4566 3.52281Q32.4102-1.47467 38.1144-6.08423Q43.8186-10.6938 52.0839-13.6924Q60.3492-16.691 71.0201-16.691Q81.6914-16.691 89.9568-13.6924Q98.2221-10.6938 103.938-6.08423Q109.653-1.47467 112.607 3.52281Q115.56 8.5203 115.56 12.4853Q115.56 13.6256 114.934 14.1073Q114.307 14.5891 112.673 14.5891ZM71.065-34.0975Q78.5739-34.0975 84.7492-38.0672Q90.9246-42.037 94.5616-48.7451Q98.1985-55.4531 98.1985-63.6397Q98.1985-71.6601 94.5522-78.2Q90.9059-84.74 84.7544-88.6078Q78.6028-92.4756 71.065-92.4756Q63.6225-92.4756 57.4419-88.5604Q51.2612-84.6451 47.5966-78.0815Q43.9319-71.5179 43.9542-63.5448Q43.9873-55.4059 47.6427-48.6978Q51.298-41.9898 57.4271-38.0436Q63.5562-34.0975 71.065-34.0975ZM71.065-43.6214Q66.411-43.6214 62.5291-46.2411Q58.6472-48.8607 56.3052-53.3703Q53.9631-57.8798 53.9526-63.5553Q53.93-69.0545 56.2649-73.4143Q58.5999-77.7741 62.5094-80.3391Q66.4188-82.9041 71.065-82.9041Q75.7694-82.9041 79.6625-80.3741Q83.5555-77.844 85.8778-73.4676Q88.2001-69.0913 88.2001-63.6397Q88.2001-57.9641 85.8817-53.4363Q83.5633-48.9084 79.6702-46.2649Q75.7772-43.6214 71.065-43.6214Z"/>
  </g>
  <g id="Regular-L" transform="matrix(1 0 0 1 1379.2 1556)">
   <path d="M30.355 23.6474L110.912 23.6474Q125.21 23.6474 125.21 14.0802Q125.21 7.9158 121.458 0.963373Q117.706-5.98905 110.619-12.111Q103.532-18.233 93.4322-22.1032Q83.3323-25.9733 70.6332-25.9733Q57.9626-25.9733 47.8886-22.1032Q37.8147-18.233 30.6875-12.111Q23.5603-5.98905 19.8221 0.963373Q16.084 7.9158 16.084 14.0802Q16.084 23.6474 30.355 23.6474ZM28.0084 15.4737Q26.2308 15.4737 25.4818 14.9557Q24.7329 14.4377 24.7329 13.1308Q24.7329 8.87303 27.7676 3.56389Q30.8023-1.74525 36.6819-6.61961Q42.5615-11.494 51.0836-14.6605Q59.6056-17.8271 70.6332-17.8271Q81.6613-17.8271 90.1834-14.6605Q98.7054-11.494 104.599-6.61961Q110.492-1.74525 113.527 3.56389Q116.561 8.87303 116.561 13.1308Q116.561 14.4377 115.839 14.9557Q115.116 15.4737 113.259 15.4737ZM70.6885-34.3125Q78.0821-34.3125 84.1739-38.2352Q90.2657-42.1579 93.853-48.7875Q97.4404-55.4171 97.4404-63.5094Q97.4404-71.4357 93.8517-77.8919Q90.2629-84.3481 84.1977-88.153Q78.1324-91.9578 70.6885-91.9578Q63.3507-91.9578 57.2589-88.1002Q51.1671-84.2426 47.5522-77.7601Q43.9372-71.2776 43.9646-63.4038Q43.9925-55.3646 47.6061-48.735Q51.2197-42.1054 57.2573-38.2089Q63.295-34.3125 70.6885-34.3125ZM70.6885-42.4336Q65.7627-42.4336 61.661-45.2157Q57.5593-47.9977 55.0864-52.7428Q52.6135-57.4879 52.6135-63.4038Q52.5856-69.1544 55.0462-73.7523Q57.5068-78.3502 61.6359-81.0669Q65.765-83.7837 70.6885-83.7837Q75.6651-83.7837 79.7805-81.1072Q83.8959-78.4306 86.3437-73.8188Q88.7915-69.2069 88.7915-63.5094Q88.7915-57.5934 86.3448-52.8221Q83.8982-48.0508 79.7828-45.2422Q75.6673-42.4336 70.6885-42.4336Z"/>
  </g>
  <g id="Light-L" transform="matrix(1 0 0 1 1083.13 1556)">
   <path d="M28.771 22.9602L111.198 22.9602Q123.932 22.9602 123.932 14.061Q123.932 7.9158 120.199 1.04931Q116.466-5.81718 109.455-11.8628Q102.444-17.9085 92.478-21.7023Q82.5117-25.4962 69.9842-25.4962Q57.5047-25.4962 47.5547-21.7023Q37.6047-17.9085 30.5538-11.8628Q23.5029-5.81718 19.7934 1.04931Q16.084 7.9158 16.084 14.061Q16.084 22.9602 28.771 22.9602ZM27.3023 16.638Q24.742 16.638 23.7259 15.929Q22.7099 15.2201 22.7099 13.4553Q22.7099 8.70116 25.8687 3.05806Q29.0275-2.58505 35.1075-7.65981Q41.1875-12.7346 49.9576-15.9774Q58.7277-19.2203 69.9842-19.2203Q81.2416-19.2203 90.0117-15.9774Q98.7817-12.7346 104.885-7.65981Q110.989-2.58505 114.147 3.05806Q117.306 8.70116 117.306 13.4553Q117.306 15.2201 116.306 15.929Q115.307 16.638 112.667 16.638ZM70.0777-34.4843Q77.3568-34.4843 83.296-38.3115Q89.2351-42.1387 92.7174-48.6538Q96.1998-55.1689 96.1998-63.1849Q96.1998-70.9204 92.6874-77.2812Q89.175-83.642 83.2528-87.4087Q77.3307-91.1754 70.0777-91.1754Q62.8928-91.1754 56.9537-87.375Q51.0145-83.5746 47.4855-77.1972Q43.9564-70.8197 44.0027-63.1175Q44.0498-55.1356 47.5488-48.6205Q51.0478-42.1054 56.9232-38.2949Q62.7986-34.4843 70.0777-34.4843ZM70.0777-40.7733Q64.694-40.7733 60.2869-43.727Q55.8797-46.6808 53.2542-51.7313Q50.6286-56.7818 50.6286-63.1175Q50.5815-69.1736 53.214-74.0864Q55.8464-78.9992 60.2999-81.9258Q64.7534-84.8524 70.0777-84.8524Q75.4361-84.8524 79.8664-81.966Q84.2967-79.0797 86.9353-74.1433Q89.5739-69.2069 89.5739-63.1849Q89.5739-56.8492 86.965-51.782Q84.3561-46.7149 79.9258-43.7441Q75.4955-40.7733 70.0777-40.7733Z"/>
  </g>
  <g id="Thin-L" transform="matrix(1 0 0 1 787.26 1556)">
   <path d="M26.676 22.0514L111.577 22.0514Q122.24 22.0514 122.24 14.0356Q122.24 7.9158 118.533 1.16297Q114.825-5.58986 107.915-11.5346Q101.005-17.4793 91.2159-21.1722Q81.4264-24.8652 69.1259-24.8652Q56.8991-24.8652 47.113-21.1722Q37.3269-17.4793 30.3769-11.5346Q23.427-5.58986 19.7555 1.16297Q16.084 7.9158 16.084 14.0356Q16.084 22.0514 26.676 22.0514ZM26.3685 18.1778Q22.7729 18.1778 21.4036 17.2164Q20.0343 16.2549 20.0343 13.8845Q20.0343 8.47385 23.3572 2.38905Q26.6802-3.69575 33.0252-9.03557Q39.3703-14.3754 48.4684-17.7192Q57.5665-21.063 69.1259-21.063Q80.6865-21.063 89.7846-17.7192Q98.8827-14.3754 105.264-9.03557Q111.645-3.69575 114.968 2.38905Q118.29 8.47385 118.29 13.8845Q118.29 16.2549 116.925 17.2164Q115.559 18.1778 111.884 18.1778ZM69.2698-34.7116Q76.3975-34.7116 82.1348-38.4124Q87.8721-42.1133 91.2155-48.477Q94.559-54.8407 94.559-62.7557Q94.559-70.2389 91.1475-76.4736Q87.736-82.7082 82.0033-86.4244Q76.2705-90.1407 69.2698-90.1407Q62.2872-90.1407 56.5499-86.416Q50.8126-82.6913 47.3972-76.4527Q43.9818-70.2141 44.0532-62.7388Q44.1258-54.8328 47.4731-48.4691Q50.8205-42.1054 56.4813-38.4085Q62.1421-34.7116 69.2698-34.7116ZM69.2698-38.5773Q63.2805-38.5773 58.4694-41.7582Q53.6584-44.9391 50.8309-50.3935Q48.0035-55.8479 48.0035-62.7388Q47.9309-69.1991 50.7907-74.5283Q53.6505-79.8576 58.5329-83.0618Q63.4154-86.2659 69.2698-86.2659Q75.1333-86.2659 79.9801-83.102Q84.8268-79.938 87.7177-74.5725Q90.6087-69.2069 90.6087-62.7557Q90.6087-55.8648 87.7852-50.4065Q84.9617-44.9481 80.1149-41.7627Q75.2682-38.5773 69.2698-38.5773Z"/>
  </g>
  <g id="Ultralight-L" transform="matrix(1 0 0 1 490.982 1556)">
   <path d="M25.6029 21.5859L111.771 21.5859Q121.374 21.5859 121.374 14.0225Q121.374 7.9158 117.679 1.22118Q113.984-5.47344 107.126-11.3664Q100.268-17.2594 90.5694-20.9007Q80.8706-24.5419 68.6862-24.5419Q56.5889-24.5419 46.8867-20.9007Q37.1846-17.2594 30.2863-11.3664Q23.3881-5.47344 19.736 1.22118Q16.084 7.9158 16.084 14.0225Q16.084 21.5859 25.6029 21.5859ZM25.8901 18.9666Q21.7644 18.9666 20.2141 17.8757Q18.6638 16.7849 18.6638 14.1043Q18.6638 8.35742 22.0708 2.04639Q25.4779-4.26465 31.9587-9.74023Q38.4395-15.2158 47.7056-18.6113Q56.9718-22.0068 68.6862-22.0068Q80.4021-22.0068 89.6682-18.6113Q98.9344-15.2158 105.458-9.74023Q111.982-4.26465 115.388 2.04639Q118.794 8.35742 118.794 14.1043Q118.794 16.7849 117.241 17.8757Q115.688 18.9666 111.484 18.9666ZM68.856-34.8281Q75.9062-34.8281 81.54-38.4641Q87.1739-42.1002 90.4462-48.3864Q93.7185-54.6726 93.7185-62.5359Q93.7185-69.8898 90.3588-76.0599Q86.999-82.2299 81.3632-85.9203Q75.7275-89.6106 68.856-89.6106Q61.977-89.6106 56.3431-85.9247Q50.7093-82.2388 47.3521-76.0714Q43.9949-69.904 44.079-62.5448Q44.1646-54.6777 47.4344-48.3916Q50.7041-42.1054 56.255-38.4667Q61.8058-34.8281 68.856-34.8281ZM68.856-37.4526Q62.5565-37.4526 57.5385-40.7498Q52.5206-44.0469 49.5897-49.7083Q46.6589-55.3696 46.6589-62.5448Q46.5733-69.2121 49.5495-74.7547Q52.5257-80.2972 57.6279-83.6436Q62.73-86.9899 68.856-86.9899Q74.9782-86.9899 80.0383-83.6838Q85.0983-80.3777 88.1185-74.7923Q91.1387-69.2069 91.1387-62.5359Q91.1387-55.3607 88.2053-49.7019Q85.2719-44.0432 80.2118-40.7479Q75.1517-37.4526 68.856-37.4526Z"/>
  </g>
  <g id="Black-M" transform="matrix(1 0 0 1 2876.8 1126)">
   <path d="M27.2034 12.9365L86.0021 12.9365Q100.744 12.9365 100.744 1.96698Q100.744-4.02979 97.3874-9.62806Q94.0306-15.2263 88.025-19.6564Q82.0193-24.0865 73.9852-26.7149Q65.9512-29.3434 56.6027-29.3434Q47.254-29.3434 39.2227-26.7149Q31.1913-24.0865 25.1831-19.6564Q19.1749-15.2263 15.8179-9.62806Q12.4609-4.02979 12.4609 1.96698Q12.4609 12.9365 27.2034 12.9365ZM28.8402-0.355256Q28.4104-0.355256 28.2482-0.624983Q28.086-0.894709 28.086-1.15797Q28.086-3.03557 30.039-5.56987Q31.9921-8.10418 35.6627-10.5106Q39.3333-12.9171 44.6258-14.4842Q49.9183-16.0513 56.6027-16.0513Q63.2871-16.0513 68.5797-14.4842Q73.8722-12.9171 77.5426-10.5106Q81.2131-8.10418 83.1661-5.56987Q85.1192-3.03557 85.1192-1.15797Q85.1192-0.894709 84.9882-0.624983Q84.8573-0.355256 84.3653-0.355256ZM56.6022-33.41Q62.9173-33.41 68.0388-36.672Q73.1604-39.934 76.1733-45.4574Q79.1862-50.9807 79.1862-57.7366Q79.1862-64.3229 76.1193-69.7473Q73.0523-75.1718 67.9334-78.4484Q62.8146-81.7251 56.6022-81.7251Q50.4007-81.7251 45.2506-78.4429Q40.1004-75.1608 37.0593-69.7336Q34.0181-64.3064 34.0178-57.7256Q34.0746-50.9752 37.0617-45.4519Q40.0488-39.9285 45.1679-36.6692Q50.287-33.41 56.6022-33.41ZM56.6022-46.6963Q54.1062-46.6963 52.0181-48.0283Q49.93-49.3603 48.673-51.8611Q47.4161-54.362 47.359-57.7827Q47.3593-60.9768 48.6419-63.3529Q49.9245-65.729 52.0408-67.0812Q54.1572-68.4333 56.6022-68.4333Q59.1097-68.4333 61.1977-67.0838Q63.2856-65.7342 64.5653-63.3297Q65.845-60.9252 65.845-57.7366Q65.845-54.3159 64.5908-51.8408Q63.3366-49.3657 61.2487-48.031Q59.1608-46.6963 56.6022-46.6963Z"/>
  </g>
  <g id="Heavy-M" transform="matrix(1 0 0 1 2580.44 1126)">
   <path d="M26.5465 12.4268L85.9461 12.4268Q100.034 12.4268 100.034 2.20695Q100.034-3.50427 96.7807-9.06409Q93.5275-14.6239 87.6332-19.1381Q81.7388-23.6522 73.7361-26.3783Q65.7334-29.1043 56.2463-29.1043Q46.7615-29.1043 38.7669-26.3783Q30.7724-23.6522 24.8687-19.1381Q18.9651-14.6239 15.713-9.06409Q12.4609-3.50427 12.4609 2.20695Q12.4609 12.4268 26.5465 12.4268ZM27.2499 0.52836Q26.7018 0.52836 26.4769 0.253264Q26.2519-0.0218315 26.2519-0.400336Q26.2519-2.54655 28.2822-5.40857Q30.3125-8.27059 34.1649-10.9734Q38.0173-13.6762 43.5856-15.4422Q49.1539-17.2081 56.2463-17.2081Q63.3387-17.2081 68.907-15.4422Q74.4753-13.6762 78.3288-10.9734Q82.1824-8.27059 84.2127-5.40857Q86.243-2.54655 86.243-0.400336Q86.243-0.0218315 86.048 0.253264Q85.8531 0.52836 85.2427 0.52836ZM56.2508-33.6486Q62.4428-33.6486 67.49-36.8709Q72.5372-40.0931 75.5091-45.5405Q78.481-50.9879 78.481-57.6392Q78.481-64.1461 75.4714-69.4836Q72.4618-74.8212 67.4228-78.0253Q62.3838-81.2295 56.2508-81.2295Q50.1507-81.2295 45.0816-78.0089Q40.0126-74.7883 37.0166-69.4426Q34.0207-64.0969 34.0229-57.6064Q34.0688-50.9715 37.0271-45.5241Q39.9854-40.0767 45.0221-36.8627Q50.0589-33.6486 56.2508-33.6486ZM56.2508-45.5306Q53.5048-45.5306 51.2007-47.0338Q48.8965-48.537 47.5046-51.2742Q46.1126-54.0114 46.069-57.65Q46.0667-61.1006 47.4734-63.7143Q48.8801-66.328 51.2083-67.8296Q53.5366-69.3311 56.2508-69.3311Q59.0251-69.3311 61.3304-67.8389Q63.6357-66.3467 65.0353-63.71Q66.4349-61.0734 66.4349-57.6392Q66.4349-54.0006 65.0512-51.277Q63.6675-48.5535 61.3622-47.042Q59.0569-45.5306 56.2508-45.5306Z"/>
  </g>
  <g id="Bold-M" transform="matrix(1 0 0 1 2284.13 1126)">
   <path d="M25.8117 11.8565L85.8835 11.8565Q99.2393 11.8565 99.2393 2.47539Q99.2393-2.91641 96.102-8.4332Q92.9647-13.95 87.1949-18.5582Q81.425-23.1665 73.4575-26.0017Q65.4899-28.8368 55.8476-28.8368Q46.2105-28.8368 38.2572-26.0017Q30.3038-23.1665 24.5171-18.5582Q18.7304-13.95 15.5956-8.4332Q12.4609-2.91641 12.4609 2.47539Q12.4609 11.8565 25.8117 11.8565ZM25.4709 1.51681Q24.7905 1.51681 24.4953 1.23571Q24.2002 0.954608 24.2002 0.447188Q24.2002-1.99952 26.3169-5.22813Q28.4337-8.45673 32.4894-11.491Q36.5452-14.5254 42.422-16.5138Q48.2988-18.5022 55.8476-18.5022Q63.3964-18.5022 69.2732-16.5138Q75.15-14.5254 79.2083-11.491Q83.2667-8.45673 85.3834-5.22813Q87.5001-1.99952 87.5001 0.447188Q87.5001 0.954608 87.2335 1.23571Q86.9669 1.51681 86.2243 1.51681ZM55.8578-33.9155Q61.912-33.9155 66.8761-37.0933Q71.8402-40.2711 74.7662-45.6335Q77.6922-50.9959 77.6922-57.5303Q77.6922-63.9483 74.7468-69.1886Q71.8014-74.4289 66.8517-77.552Q61.9019-80.6751 55.8578-80.6751Q49.871-80.6751 44.8927-77.5234Q39.9144-74.3717 36.969-69.1171Q34.0235-63.8624 34.0286-57.4731Q34.0623-50.9674 36.9884-45.6049Q39.9144-40.2425 44.859-37.079Q49.8036-33.9155 55.8578-33.9155ZM55.8578-44.2266Q52.8322-44.2266 50.2863-45.9214Q47.7404-47.6162 46.1974-50.6177Q44.6545-53.6192 44.626-57.5016Q44.6208-61.2392 46.1663-64.1186Q47.7118-66.9981 50.2771-68.6667Q52.8423-70.3354 55.8578-70.3354Q58.9305-70.3354 61.479-68.6836Q64.0274-67.0318 65.5611-64.1355Q67.0948-61.2392 67.0948-57.5303Q67.0948-53.6479 65.5662-50.6463Q64.0376-47.6448 61.4891-45.9357Q58.9407-44.2266 55.8578-44.2266Z"/>
  </g>
  <g id="Semibold-M" transform="matrix(1 0 0 1 1987.69 1126)">
   <path d="M25.3051 11.4634L85.8403 11.4634Q98.6916 11.4634 98.6916 2.66045Q98.6916-2.51114 95.6342-7.99827Q92.5768-13.4854 86.8927-18.1585Q81.2087-22.8316 73.2653-25.742Q65.322-28.6524 55.5727-28.6524Q45.8306-28.6524 37.9057-25.742Q29.9808-22.8316 24.2747-18.1585Q18.5686-13.4854 15.5147-7.99827Q12.4609-2.51114 12.4609 2.66045Q12.4609 11.4634 25.3051 11.4634ZM24.2445 2.19825Q23.4728 2.19825 23.1293 1.913Q22.7858 1.62776 22.7858 1.03147Q22.7858-1.6224 24.9621-5.10373Q27.1384-8.58506 31.3344-11.8479Q35.5304-15.1108 41.6198-17.2526Q47.7093-19.3944 55.5727-19.3944Q63.4362-19.3944 69.5256-17.2526Q75.6151-15.1108 79.8146-11.8479Q84.0142-8.58506 86.1905-5.10373Q88.3667-1.6224 88.3667 1.03147Q88.3667 1.62776 88.0508 1.913Q87.7349 2.19825 86.901 2.19825ZM55.5869-34.0996Q61.5461-34.0996 66.4529-37.2467Q71.3596-40.3938 74.254-45.6976Q77.1483-51.0015 77.1483-57.4552Q77.1483-63.8119 74.2472-68.9852Q71.346-74.1586 66.4579-77.2258Q61.5697-80.293 55.5869-80.293Q49.6782-80.293 44.7624-77.1887Q39.8467-74.0845 36.9361-68.8926Q34.0255-63.7008 34.0326-57.3811Q34.0579-50.9645 36.9617-45.6607Q39.8655-40.3568 44.7465-37.2282Q49.6276-34.0996 55.5869-34.0996ZM55.5869-43.3277Q52.3684-43.3277 49.6559-45.1545Q46.9434-46.9813 45.2963-50.165Q43.6493-53.3488 43.6311-57.3993Q43.624-61.3347 45.2652-64.3973Q46.9064-67.46 49.635-69.2439Q52.3637-71.0277 55.5869-71.0277Q58.8653-71.0277 61.5814-69.2659Q64.2974-67.5041 65.9236-64.4288Q67.5498-61.3535 67.5498-57.4552Q67.5498-53.4047 65.9212-50.2116Q64.2927-47.0184 61.5766-45.173Q58.8606-43.3277 55.5869-43.3277Z"/>
  </g>
  <g id="Medium-M" transform="matrix(1 0 0 1 1691.19 1126)">
   <path d="M24.921 11.1653L85.8076 11.1653Q98.2762 11.1653 98.2762 2.80077Q98.2762-2.20384 95.2794-7.66848Q92.2826-13.1331 86.6637-17.8554Q81.0447-22.5777 73.1197-25.5452Q65.1947-28.5126 55.3642-28.5126Q45.5426-28.5126 37.6392-25.5452Q29.7358-22.5777 24.0908-17.8554Q18.4459-13.1331 15.4534-7.66848Q12.4609-2.20384 12.4609 2.80077Q12.4609 11.1653 24.921 11.1653ZM23.3146 2.71494Q22.4737 2.71494 22.0935 2.42655Q21.7133 2.13817 21.7133 1.47449Q21.7133-1.33645 23.9348-5.00941Q26.1563-8.68237 30.4586-12.1185Q34.7609-15.5546 41.0116-17.8127Q47.2623-20.0708 55.3642-20.0708Q63.4663-20.0708 69.717-17.8127Q75.9677-15.5546 80.2744-12.1185Q84.581-8.68237 86.8024-5.00941Q89.0239-1.33645 89.0239 1.47449Q89.0239 2.13817 88.6705 2.42655Q88.3171 2.71494 87.414 2.71494ZM55.3814-34.2391Q61.2687-34.2391 66.1319-37.363Q70.9952-40.4868 73.8656-45.7463Q76.736-51.0057 76.736-57.3983Q76.736-63.7085 73.8684-68.831Q71.0008-73.9535 66.1593-76.9783Q61.3178-80.0032 55.3814-80.0032Q49.5321-80.0032 44.6637-76.9349Q39.7953-73.8667 36.9112-68.7225Q34.027-63.5783 34.0356-57.3114Q34.0545-50.9623 36.9414-45.7029Q39.8284-40.4435 44.6613-37.3413Q49.4942-34.2391 55.3814-34.2391ZM55.3814-42.6461Q52.0168-42.6461 49.1779-44.573Q46.339-46.4999 44.6131-49.8218Q42.8871-53.1438 42.8768-57.3217Q42.8682-61.4071 44.5819-64.6087Q46.2957-67.8102 49.1482-69.6815Q52.0008-71.5527 55.3814-71.5527Q58.8159-71.5527 61.659-69.7075Q64.5022-67.8623 66.1985-64.6512Q67.8947-61.4402 67.8947-57.3983Q67.8947-53.2203 66.1904-49.8819Q64.4862-46.5434 61.643-44.5947Q58.7998-42.6461 55.3814-42.6461Z"/>
  </g>
  <g id="Regular-M" transform="matrix(1 0 0 1 1394.75 1126)">
   <path d="M24.42 10.7765L85.7649 10.7765Q97.7345 10.7765 97.7345 2.9838Q97.7345-1.80303 94.8167-7.23833Q91.8989-12.6736 86.3648-17.4601Q80.8307-22.2465 72.9297-25.2884Q65.0286-28.3303 55.0924-28.3303Q45.167-28.3303 37.2916-25.2884Q29.4163-22.2465 23.8511-17.4601Q18.2858-12.6736 15.3734-7.23833Q12.4609-1.80303 12.4609 2.9838Q12.4609 10.7765 24.42 10.7765ZM22.1016 3.38888Q21.1705 3.38888 20.7425 3.0964Q20.3144 2.80393 20.3144 2.05235Q20.3144-0.963474 22.5948-4.88638Q24.8753-8.80929 29.3162-12.4715Q33.7572-16.1336 40.2182-18.5434Q46.6793-20.9531 55.0924-20.9531Q63.5056-20.9531 69.9667-18.5434Q76.4277-16.1336 80.874-12.4715Q85.3203-8.80929 87.6006-4.88638Q89.881-0.963474 89.881 2.05235Q89.881 2.80393 89.4788 3.0964Q89.0766 3.38888 88.0833 3.38888ZM55.1135-34.4211Q60.9068-34.4211 65.7134-37.5147Q70.5199-40.6082 73.359-45.8097Q76.1981-51.0111 76.1981-57.324Q76.1981-63.5736 73.3743-68.6299Q70.5505-73.6861 65.7699-76.6556Q60.9892-79.6252 55.1135-79.6252Q49.3414-79.6252 44.5349-76.6039Q39.7283-73.5826 36.8787-68.5005Q34.029-63.4184 34.0395-57.2205Q34.0501-50.9595 36.915-45.758Q39.78-40.5565 44.5501-37.4888Q49.3201-34.4211 55.1135-34.4211ZM55.1135-41.757Q51.5582-41.757 48.5545-43.8145Q45.5508-45.872 43.7218-49.3742Q41.8929-52.8764 41.8929-57.2205Q41.8823-61.5016 43.6907-64.8843Q45.4991-68.2671 48.5133-70.2523Q51.5274-72.2374 55.1135-72.2374Q58.7514-72.2374 61.7603-70.2834Q64.7692-68.3294 66.5569-64.9413Q68.3446-61.5532 68.3446-57.324Q68.3446-52.9799 66.5416-49.4519Q64.7385-45.9239 61.7296-43.8404Q58.7206-41.757 55.1135-41.757Z"/>
  </g>
  <g id="Light-M" transform="matrix(1 0 0 1 1098.61 1126)">
   <path d="M22.9998 10.1604L86.0217 10.1604Q96.588 10.1604 96.588 2.96655Q96.588-1.80303 93.6873-7.16129Q90.7866-12.5195 85.321-17.2375Q79.8553-21.9555 72.0741-24.929Q64.2929-27.9025 54.5105-27.9025Q44.7564-27.9025 36.9922-24.929Q29.228-21.9555 23.7312-17.2375Q18.2344-12.5195 15.3477-7.16129Q12.4609-1.80303 12.4609 2.96655Q12.4609 10.1604 22.9998 10.1604ZM21.4686 4.43274Q19.8357 4.43274 19.1682 3.96906Q18.5007 3.50539 18.5007 2.34328Q18.5007-1.11757 20.8924-5.33989Q23.284-9.56221 27.9047-13.4041Q32.5253-17.2459 39.2087-19.7241Q45.8922-22.2023 54.5105-22.2023Q63.1293-22.2023 69.8127-19.7241Q76.4962-17.2459 81.1307-13.4041Q85.7653-9.56221 88.1568-5.33989Q90.5482-1.11757 90.5482 2.34328Q90.5482 3.50539 89.8979 3.96906Q89.2476 4.43274 87.5529 4.43274ZM54.5658-34.5752Q60.2565-34.5752 64.9262-37.5831Q69.5959-40.591 72.3409-45.6898Q75.0858-50.7886 75.0858-57.0331Q75.0858-63.1116 72.3304-68.0824Q69.575-73.0531 64.9228-75.9884Q60.2705-78.9237 54.5658-78.9237Q48.9309-78.9237 44.2612-75.9537Q39.5915-72.9838 36.8189-67.9958Q34.0462-63.0079 34.0737-56.9638Q34.1016-50.7542 36.8637-45.6554Q39.6259-40.5565 44.2505-37.5659Q48.8751-34.5752 54.5658-34.5752ZM54.5658-40.2684Q50.6-40.2684 47.3225-42.4799Q44.0449-44.6914 42.0792-48.4673Q40.1134-52.2433 40.1134-56.9638Q40.0855-61.5188 42.048-65.1839Q44.0105-68.849 47.3155-71.0223Q50.6204-73.1956 54.5658-73.1956Q58.5461-73.1956 61.8373-71.0534Q65.1286-68.9113 67.0874-65.2322Q69.0461-61.5532 69.0461-57.0331Q69.0461-52.3126 67.0976-48.5194Q65.149-44.7262 61.8578-42.4973Q58.5665-40.2684 54.5658-40.2684Z"/>
  </g>
  <g id="Thin-M" transform="matrix(1 0 0 1 802.656 1126)">
   <path d="M21.1215 9.34556L86.3612 9.34556Q95.0716 9.34556 95.0716 2.94374Q95.0716-1.80303 92.1936-7.05939Q89.3156-12.3157 83.9404-16.9433Q78.5652-21.5708 70.9426-24.4537Q63.3199-27.3367 53.7409-27.3367Q44.2135-27.3367 36.5962-24.4537Q28.979-21.5708 23.5726-16.9433Q18.1663-12.3157 15.3136-7.05939Q12.4609-1.80303 12.4609 2.94374Q12.4609 9.34556 21.1215 9.34556ZM20.6314 5.81332Q18.0703 5.81332 17.0861 5.12323Q16.1019 4.43313 16.1019 2.72806Q16.1019-1.32136 18.6407-5.93969Q21.1795-10.558 26.0378-14.6375Q30.8961-18.717 37.8736-21.2856Q44.8511-23.8543 53.7409-23.8543Q62.6316-23.8543 69.6091-21.2856Q76.5867-18.717 81.4703-14.6375Q86.3539-10.558 88.8923-5.93969Q91.4307-1.32136 91.4307 2.72806Q91.4307 4.43313 90.4523 5.12323Q89.4739 5.81332 86.8514 5.81332ZM53.8415-34.779Q59.3965-34.779 63.8852-37.6736Q68.3739-40.5681 70.9943-45.5312Q73.6148-50.4943 73.6148-56.6483Q73.6148-62.5006 70.9499-67.3582Q68.2849-72.2158 63.8025-75.1059Q59.32-77.996 53.8415-77.996Q48.3879-77.996 43.8992-75.0939Q39.4105-72.1918 36.7398-67.3284Q34.0691-62.465 34.1189-56.6242Q34.1696-50.4827 36.7959-45.5196Q39.4221-40.5565 43.8543-37.6678Q48.2865-34.779 53.8415-34.779ZM53.8415-38.2996Q49.3327-38.2996 45.693-40.7147Q42.0533-43.1298 39.9066-47.2679Q37.7598-51.4061 37.7598-56.6242Q37.7091-61.5416 39.8754-65.5801Q42.0417-69.6185 45.7313-72.0407Q49.4208-74.4629 53.8415-74.4629Q58.2746-74.4629 61.9392-72.0719Q65.6039-69.6808 67.7889-65.617Q69.9739-61.5532 69.9739-56.6483Q69.9739-51.4301 67.8329-47.2862Q65.692-43.1422 62.0273-40.7209Q58.3627-38.2996 53.8415-38.2996Z"/>
  </g>
  <g id="Ultralight-M" transform="matrix(1 0 0 1 506.333 1126)">
   <path d="M20.1595 8.92822L86.5351 8.92822Q94.295 8.92822 94.295 2.93205Q94.295-1.80303 91.4285-7.00719Q88.5621-12.2114 83.2333-16.7925Q77.9044-21.3737 70.363-24.2103Q62.8216-27.0469 53.3468-27.0469Q43.9354-27.0469 36.3934-24.2103Q28.8514-21.3737 23.4914-16.7925Q18.1315-12.2114 15.2962-7.00719Q12.4609-1.80303 12.4609 2.93205Q12.4609 8.92822 20.1595 8.92822ZM20.2025 6.52045Q17.1661 6.52045 16.0197 5.71438Q14.8732 4.90831 14.8732 2.92515Q14.8732-1.42575 17.4874-6.2469Q20.1016-11.0681 25.0816-15.2692Q30.0616-19.4704 37.1897-22.0855Q44.3179-24.7005 53.3468-24.7005Q62.3767-24.7005 69.5048-22.0855Q76.633-19.4704 81.6442-15.2692Q86.6554-11.0681 89.2691-6.2469Q91.8827-1.42575 91.8827 2.92515Q91.8827 4.90831 90.7362 5.71438Q89.5897 6.52045 86.4921 6.52045ZM53.4705-34.8834Q58.956-34.8834 63.352-37.7199Q67.748-40.5565 70.3046-45.45Q72.8613-50.3436 72.8613-56.4512Q72.8613-62.1877 70.2427-66.9873Q67.6242-71.787 63.2286-74.6539Q58.8331-77.5208 53.4705-77.5208Q48.1098-77.5208 43.7138-74.6535Q39.3178-71.7861 36.6993-66.9865Q34.0807-62.1869 34.1421-56.4503Q34.2045-50.3437 36.7611-45.4501Q39.3177-40.5565 43.6514-37.72Q47.985-34.8834 53.4705-34.8834ZM53.4705-37.2912Q48.6836-37.2912 44.8584-39.8106Q41.0332-42.33 38.7938-46.6536Q36.5543-50.9772 36.5543-56.4503Q36.492-61.5533 38.7626-65.783Q41.0333-70.0127 44.9198-72.5623Q48.8064-75.112 53.4705-75.112Q58.1356-75.112 61.9914-72.5935Q65.8473-70.075 68.1482-65.8141Q70.449-61.5532 70.449-56.4512Q70.449-50.9781 68.2096-46.6545Q65.9701-42.3309 62.1142-39.8111Q58.2583-37.2912 53.4705-37.2912Z"/>
  </g>
  <g id="Black-S" transform="matrix(1 0 0 1 2888.97 696)">
   <path d="M21.4355 2.63672L67.4316 2.63672Q79.1016 2.63672 79.1016-6.15234Q79.1016-10.9375 76.4404-15.332Q73.7793-19.7266 69.043-23.1689Q64.3066-26.6113 58.0078-28.6377Q51.709-30.6641 44.4336-30.6641Q37.1582-30.6641 30.8594-28.6377Q24.5605-26.6113 19.8242-23.1689Q15.0879-19.7266 12.4268-15.332Q9.76562-10.9375 9.76562-6.15234Q9.76562 2.63672 21.4355 2.63672ZM23.0469-8.10547Q22.7051-8.10547 22.583-8.3252Q22.4609-8.54492 22.4609-8.74023Q22.4609-10.1562 23.9746-12.0605Q25.4883-13.9648 28.3203-15.7715Q31.1523-17.5781 35.2295-18.75Q39.3066-19.9219 44.4336-19.9219Q49.5605-19.9219 53.6377-18.75Q57.7148-17.5781 60.5469-15.7715Q63.3789-13.9648 64.8926-12.0605Q66.4062-10.1562 66.4062-8.74023Q66.4062-8.54492 66.3086-8.3252Q66.2109-8.10547 65.8203-8.10547ZM44.4336-33.7402Q49.4141-33.7402 53.4424-36.3037Q57.4707-38.8672 59.8389-43.2129Q62.207-47.5586 62.207-52.8809Q62.207-58.0566 59.79-62.3291Q57.373-66.6016 53.3447-69.1895Q49.3164-71.7773 44.4336-71.7773Q39.5508-71.7773 35.498-69.1895Q31.4453-66.6016 29.0527-62.3291Q26.6602-58.0566 26.6602-52.8809Q26.709-47.5586 29.0527-43.2129Q31.3965-38.8672 35.4248-36.3037Q39.4531-33.7402 44.4336-33.7402ZM44.4336-44.4824Q42.5293-44.4824 40.9424-45.4834Q39.3555-46.4844 38.4033-48.3887Q37.4512-50.293 37.4023-52.9297Q37.4023-55.3711 38.3789-57.1777Q39.3555-58.9844 40.9668-60.0098Q42.5781-61.0352 44.4336-61.0352Q46.3379-61.0352 47.9248-60.0098Q49.5117-58.9844 50.4883-57.1533Q51.4648-55.3223 51.4648-52.8809Q51.4648-50.2441 50.5127-48.3643Q49.5605-46.4844 47.9736-45.4834Q46.3867-44.4824 44.4336-44.4824Z"/>
  </g>
  <g id="Heavy-S" transform="matrix(1 0 0 1 2592.49 696)">
   <path d="M21.0552 2.27946L67.351 2.27946Q78.6406 2.27946 78.6406-5.9449Q78.6406-10.488 76.0659-14.8595Q73.4912-19.231 68.8413-22.7541Q64.1914-26.2771 57.9041-28.3957Q51.6168-30.5142 44.2031-30.5142Q36.7894-30.5142 30.5079-28.3957Q24.2263-26.2771 19.5707-22.7541Q14.915-19.231 12.3403-14.8595Q9.76562-10.488 9.76562-5.9449Q9.76562 2.27946 21.0552 2.27946ZM21.7677-7.48315Q21.4143-7.48315 21.2692-7.68559Q21.1241-7.88803 21.1241-8.12944Q21.1241-9.71832 22.6896-11.8646Q24.2552-14.0109 27.2197-16.0481Q30.1843-18.0852 34.4689-19.4184Q38.7535-20.7516 44.2031-20.7516Q49.6527-20.7516 53.9373-19.4184Q58.2219-18.0852 61.1865-16.0481Q64.151-14.0109 65.7166-11.8646Q67.2821-9.71832 67.2821-8.12944Q67.2821-7.88803 67.1614-7.68559Q67.0407-7.48315 66.6385-7.48315ZM44.2031-33.9246Q49.0914-33.9246 53.0736-36.4651Q57.0558-39.0055 59.4009-43.2993Q61.7461-47.5932 61.7461-52.8348Q61.7461-57.9644 59.3694-62.1735Q56.9927-66.3826 53.0163-68.9129Q49.0398-71.4431 44.2031-71.4431Q39.3894-71.4431 35.3886-68.9013Q31.3877-66.3595 29.0239-62.1447Q26.6602-57.9299 26.6602-52.8117Q26.6975-47.5816 29.0297-43.2878Q31.3619-38.994 35.3384-36.4593Q39.3148-33.9246 44.2031-33.9246ZM44.2031-43.6757Q42.1375-43.6757 40.4007-44.8035Q38.664-45.9312 37.6139-48.0026Q36.5638-50.074 36.5265-52.849Q36.5265-55.4748 37.5895-57.4486Q38.6525-59.4223 40.4079-60.5514Q42.1632-61.6805 44.2031-61.6805Q46.2918-61.6805 48.0285-60.5572Q49.7653-59.4338 50.8225-57.4414Q51.8797-55.449 51.8797-52.8348Q51.8797-50.0597 50.8354-48.0012Q49.791-45.9427 48.0543-44.8092Q46.3176-43.6757 44.2031-43.6757Z"/>
  </g>
  <g id="Bold-S" transform="matrix(1 0 0 1 2296.03 696)">
   <path d="M20.6299 1.87988L67.2607 1.87988Q78.125 1.87988 78.125-5.71289Q78.125-9.98535 75.647-14.3311Q73.1689-18.6768 68.6157-22.29Q64.0625-25.9033 57.7881-28.125Q51.5137-30.3467 43.9453-30.3467Q36.377-30.3467 30.1147-28.125Q23.8525-25.9033 19.2871-22.29Q14.7217-18.6768 12.2437-14.3311Q9.76562-9.98535 9.76562-5.71289Q9.76562 1.87988 20.6299 1.87988ZM20.3369-6.78711Q19.9707-6.78711 19.7998-6.97021Q19.6289-7.15332 19.6289-7.44629Q19.6289-9.22852 21.2524-11.6455Q22.876-14.0625 25.9888-16.3574Q29.1016-18.6523 33.6182-20.166Q38.1348-21.6797 43.9453-21.6797Q49.7559-21.6797 54.2725-20.166Q58.7891-18.6523 61.9019-16.3574Q65.0146-14.0625 66.6382-11.6455Q68.2617-9.22852 68.2617-7.44629Q68.2617-7.15332 68.1152-6.97021Q67.9688-6.78711 67.5537-6.78711ZM43.9453-34.1309Q48.7305-34.1309 52.6611-36.6455Q56.5918-39.1602 58.9111-43.396Q61.2305-47.6318 61.2305-52.7832Q61.2305-57.8613 58.8989-61.9995Q56.5674-66.1377 52.6489-68.6035Q48.7305-71.0693 43.9453-71.0693Q39.209-71.0693 35.2661-68.5791Q31.3232-66.0889 28.9917-61.9385Q26.6602-57.7881 26.6602-52.7344Q26.6846-47.6074 29.0039-43.3716Q31.3232-39.1357 35.2417-36.6333Q39.1602-34.1309 43.9453-34.1309ZM43.9453-42.7734Q41.6992-42.7734 39.7949-44.043Q37.8906-45.3125 36.731-47.5708Q35.5713-49.8291 35.5469-52.7588Q35.5469-55.5908 36.7065-57.7515Q37.8662-59.9121 39.7827-61.1572Q41.6992-62.4023 43.9453-62.4023Q46.2402-62.4023 48.1445-61.1694Q50.0488-59.9365 51.1963-57.7637Q52.3438-55.5908 52.3438-52.7832Q52.3438-49.8535 51.1963-47.5952Q50.0488-45.3369 48.1445-44.0552Q46.2402-42.7734 43.9453-42.7734Z"/>
  </g>
  <g id="Semibold-S" transform="matrix(1 0 0 1 1999.5 696)">
   <path d="M20.3366 1.60439L67.1985 1.60439Q77.7695 1.60439 77.7695-5.55293Q77.7695-9.63877 75.3582-13.9667Q72.9468-18.2946 68.4602-21.9701Q63.9736-25.6456 57.7081-27.9384Q51.4426-30.2312 43.7676-30.2312Q36.0926-30.2312 29.8437-27.9384Q23.5948-25.6456 19.0916-21.9701Q14.5884-18.2946 12.177-13.9667Q9.76562-9.63877 9.76562-5.55293Q9.76562 1.60439 20.3366 1.60439ZM19.3505-6.30723Q18.9754-6.30723 18.7867-6.477Q18.598-6.64678 18.598-6.97529Q18.598-8.89082 20.2616-11.4944Q21.9251-14.098 25.1401-16.5707Q28.3551-19.0434 33.0316-20.6814Q37.7082-22.3195 43.7676-22.3195Q49.827-22.3195 54.5035-20.6814Q59.1801-19.0434 62.3951-16.5707Q65.6101-14.098 67.2736-11.4944Q68.9371-8.89082 68.9371-6.97529Q68.9371-6.64678 68.7729-6.477Q68.6086-6.30723 68.1847-6.30723ZM43.7676-34.273Q48.4816-34.273 52.3768-36.7699Q56.2719-39.2668 58.5734-43.4626Q60.875-47.6585 60.875-52.7477Q60.875-57.7902 58.5746-61.8795Q56.2741-65.9688 52.3957-68.3902Q48.5172-70.8116 43.7676-70.8116Q39.0846-70.8116 35.1817-68.3569Q31.2788-65.9022 28.9695-61.7963Q26.6602-57.6903 26.6602-52.6811Q26.6757-47.6252 28.9861-43.4293Q31.2966-39.2335 35.175-36.7533Q39.0535-34.273 43.7676-34.273ZM43.7676-42.1514Q41.3971-42.1514 39.3772-43.5187Q37.3574-44.8859 36.1222-47.2731Q34.887-49.6603 34.8715-52.6966Q34.8715-55.6708 36.0978-57.9603Q37.3241-60.2498 39.3517-61.5749Q41.3793-62.9 43.7676-62.9Q46.2047-62.9 48.2245-61.5916Q50.2443-60.2831 51.454-57.9858Q52.6637-55.6886 52.6637-52.7477Q52.6637-49.7113 51.4451-47.3153Q50.2266-44.9192 48.2067-43.5353Q46.1869-42.1514 43.7676-42.1514Z"/>
  </g>
  <g id="Medium-S" transform="matrix(1 0 0 1 1702.92 696)">
   <path d="M20.1143 1.39551L67.1514 1.39551Q77.5 1.39551 77.5-5.43164Q77.5-9.37598 75.1392-13.6904Q72.7783-18.0049 68.3423-21.7275Q63.9062-25.4502 57.6475-27.7969Q51.3887-30.1436 43.6328-30.1436Q35.877-30.1436 29.6382-27.7969Q23.3994-25.4502 18.9434-21.7275Q14.4873-18.0049 12.1265-13.6904Q9.76562-9.37598 9.76562-5.43164Q9.76562 1.39551 20.1143 1.39551ZM18.6025-5.94336Q18.2207-5.94336 18.0186-6.10303Q17.8164-6.2627 17.8164-6.61816Q17.8164-8.63477 19.5103-11.3799Q21.2041-14.125 24.4966-16.7324Q27.7891-19.3398 32.5869-21.0723Q37.3848-22.8047 43.6328-22.8047Q49.8809-22.8047 54.6787-21.0723Q59.4766-19.3398 62.769-16.7324Q66.0615-14.125 67.7554-11.3799Q69.4492-8.63477 69.4492-6.61816Q69.4492-6.2627 69.2715-6.10303Q69.0938-5.94336 68.6631-5.94336ZM43.6328-34.3809Q48.293-34.3809 52.1611-36.8643Q56.0293-39.3477 58.3174-43.5132Q60.6055-47.6787 60.6055-52.7207Q60.6055-57.7363 58.3286-61.7886Q56.0518-65.8408 52.2036-68.2285Q48.3555-70.6162 43.6328-70.6162Q38.9902-70.6162 35.1177-68.1885Q31.2451-65.7607 28.9526-61.6885Q26.6602-57.6162 26.6602-52.6406Q26.6689-47.6387 28.9727-43.4731Q31.2764-39.3076 35.1245-36.8442Q38.9727-34.3809 43.6328-34.3809ZM43.6328-41.6797Q41.168-41.6797 39.0605-43.1211Q36.9531-44.5625 35.6606-47.0474Q34.3682-49.5322 34.3594-52.6494Q34.3594-55.7314 35.6362-58.1187Q36.9131-60.5059 39.0249-61.8916Q41.1367-63.2773 43.6328-63.2773Q46.1777-63.2773 48.2852-61.9116Q50.3926-60.5459 51.6494-58.1543Q52.9062-55.7627 52.9062-52.7207Q52.9062-49.6035 51.6338-47.103Q50.3613-44.6025 48.2539-43.1411Q46.1465-41.6797 43.6328-41.6797Z"/>
  </g>
  <g id="Regular-S" transform="matrix(1 0 0 1 1406.39 696)">
   <path d="M19.8242 1.12305L67.0898 1.12305Q77.1484 1.12305 77.1484-5.27344Q77.1484-9.0332 74.8535-13.3301Q72.5586-17.627 68.1885-21.4111Q63.8184-25.1953 57.5684-27.6123Q51.3184-30.0293 43.457-30.0293Q35.5957-30.0293 29.3701-27.6123Q23.1445-25.1953 18.75-21.4111Q14.3555-17.627 12.0605-13.3301Q9.76562-9.0332 9.76562-5.27344Q9.76562 1.12305 19.8242 1.12305ZM17.627-5.46875Q17.2363-5.46875 17.0166-5.61523Q16.7969-5.76172 16.7969-6.15234Q16.7969-8.30078 18.5303-11.2305Q20.2637-14.1602 23.6572-16.9434Q27.0508-19.7266 32.0068-21.582Q36.9629-23.4375 43.457-23.4375Q49.9512-23.4375 54.9072-21.582Q59.8633-19.7266 63.2568-16.9434Q66.6504-14.1602 68.3838-11.2305Q70.1172-8.30078 70.1172-6.15234Q70.1172-5.76172 69.9219-5.61523Q69.7266-5.46875 69.2871-5.46875ZM43.457-34.5215Q48.0469-34.5215 51.8799-36.9873Q55.7129-39.4531 57.9834-43.5791Q60.2539-47.7051 60.2539-52.6855Q60.2539-57.666 58.0078-61.6699Q55.7617-65.6738 51.9531-68.0176Q48.1445-70.3613 43.457-70.3613Q38.8672-70.3613 35.0342-67.9688Q31.2012-65.5762 28.9307-61.5479Q26.6602-57.5195 26.6602-52.5879Q26.6602-47.6562 28.9551-43.5303Q31.25-39.4043 35.0586-36.9629Q38.8672-34.5215 43.457-34.5215ZM43.457-41.0645Q40.8691-41.0645 38.6475-42.6025Q36.4258-44.1406 35.0586-46.7529Q33.6914-49.3652 33.6914-52.5879Q33.6914-55.8105 35.0342-58.3252Q36.377-60.8398 38.5986-62.3047Q40.8203-63.7695 43.457-63.7695Q46.1426-63.7695 48.3643-62.3291Q50.5859-60.8887 51.9043-58.374Q53.2227-55.8594 53.2227-52.6855Q53.2227-49.4629 51.8799-46.8262Q50.5371-44.1895 48.3154-42.627Q46.0938-41.0645 43.457-41.0645Z"/>
  </g>
  <g id="Light-S" transform="matrix(1 0 0 1 1110.18 696)">
   <path d="M18.5679 0.578054L67.3169 0.578054Q76.1342 0.578054 76.1342-5.2887Q76.1342-9.0332 73.8544-13.2619Q71.5747-17.4906 67.2651-21.2143Q62.9555-24.9379 56.8115-27.2944Q50.6676-29.6509 42.9423-29.6509Q35.2325-29.6509 29.1053-27.2944Q22.978-24.9379 18.644-21.2143Q14.3099-17.4906 12.0378-13.2619Q9.76562-9.0332 9.76562-5.2887Q9.76562 0.578054 18.5679 0.578054ZM17.067-4.54534Q16.0556-4.54534 15.624-4.84327Q15.1924-5.14119 15.1924-5.89498Q15.1924-8.43709 17.0242-11.6316Q18.856-14.8262 22.4085-17.7684Q25.961-20.7105 31.1138-22.6265Q36.2666-24.5425 42.9423-24.5425Q49.6183-24.5425 54.771-22.6265Q59.9238-20.7105 63.4839-17.7684Q67.0441-14.8262 68.8758-11.6316Q70.7074-8.43709 70.7074-5.89498Q70.7074-5.14119 70.2927-4.84327Q69.8779-4.54534 68.8179-4.54534ZM42.9726-34.6578Q47.4716-34.6578 51.1836-37.0478Q54.8955-39.4379 57.0827-43.4731Q59.27-47.5082 59.27-52.4282Q59.27-57.2573 57.0844-61.1856Q54.8988-65.1138 51.2038-67.4273Q47.5087-69.7408 42.9726-69.7408Q38.504-69.7408 34.7921-67.3936Q31.0801-65.0464 28.8778-61.1014Q26.6754-57.1564 26.6904-52.3608Q26.7057-47.4747 28.9097-43.4395Q31.1137-39.4043 34.7936-37.031Q38.4735-34.6578 42.9726-34.6578ZM42.9726-39.7476Q40.0215-39.7476 37.5576-41.4219Q35.0937-43.0962 33.6054-45.9507Q32.1172-48.8052 32.1172-52.3608Q32.1019-55.8258 33.581-58.5902Q35.0601-61.3546 37.539-62.9859Q40.018-64.6172 42.9726-64.6172Q45.961-64.6172 48.4324-63.0103Q50.9038-61.4034 52.3735-58.6314Q53.8432-55.8594 53.8432-52.4282Q53.8432-48.8726 52.3717-46.0013Q50.9003-43.13 48.4289-41.4388Q45.9574-39.7476 42.9726-39.7476Z"/>
  </g>
  <g id="Thin-S" transform="matrix(1 0 0 1 814.143 696)">
   <path d="M16.9063-0.142744L67.6173-0.142744Q74.7929-0.142744 74.7929-5.30888Q74.7929-9.0332 72.5331-13.1718Q70.2733-17.3104 66.0438-20.954Q61.8142-24.5976 55.8105-26.874Q49.8069-29.1504 42.2615-29.1504Q34.7522-29.1504 28.7549-26.874Q22.7576-24.5976 18.5037-20.954Q14.2497-17.3104 12.0077-13.1718Q9.76562-9.0332 9.76562-5.30888Q9.76562-0.142744 16.9063-0.142744ZM16.3263-3.32405Q14.4939-3.32405 13.7821-3.82228Q13.0704-4.3205 13.0704-5.55459Q13.0704-8.61738 15.0324-12.1622Q16.9944-15.7071 20.7571-18.8595Q24.5198-22.0118 29.9327-24.0079Q35.3457-26.0039 42.2615-26.0039Q49.178-26.0039 54.5909-24.0079Q60.0039-22.0118 63.7843-18.8595Q67.5647-15.7071 69.5264-12.1622Q71.4881-8.61738 71.4881-5.55459Q71.4881-4.3205 70.7831-3.82228Q70.078-3.32405 68.1973-3.32405ZM42.3318-34.8381Q46.7108-34.8381 50.2626-37.1279Q53.8145-39.4177 55.8916-43.3328Q57.9686-47.2479 57.9686-52.0878Q57.9686-56.7168 55.8631-60.545Q53.7576-64.3732 50.2127-66.6466Q46.6679-68.9201 42.3318-68.9201Q38.0237-68.9201 34.4719-66.633Q30.92-64.3458 28.8078-60.5109Q26.6956-56.6761 26.7304-52.0604Q26.7659-47.2345 28.8496-43.3194Q30.9334-39.4043 34.4431-37.1212Q37.9528-34.8381 42.3318-34.8381ZM42.3318-38.006Q38.9005-38.006 36.1162-39.8604Q33.3319-41.7148 31.6835-44.8897Q30.0352-48.0646 30.0352-52.0604Q29.9998-55.846 31.6591-58.9407Q33.3185-62.0353 36.1376-63.8868Q38.9568-65.7382 42.3318-65.7382Q45.7208-65.7382 48.5226-63.9112Q51.3243-62.0842 52.9941-58.9718Q54.6639-55.8594 54.6639-52.0878Q54.6639-48.092 53.0222-44.9104Q51.3806-41.7288 48.5789-39.8674Q45.7772-38.006 42.3318-38.006Z"/>
  </g>
  <g id="Ultralight-S" transform="matrix(1 0 0 1 517.775 696)">
   <path d="M16.0553-0.511932L67.7711-0.511932Q74.1058-0.511932 74.1058-5.31921Q74.1058-9.0332 71.8563-13.1256Q69.6068-17.218 65.4182-20.8206Q61.2297-24.4232 55.2979-26.6586Q49.366-28.894 41.9128-28.894Q34.5062-28.894 28.5755-26.6586Q22.6448-24.4232 18.4319-20.8206Q14.2189-17.218 11.9923-13.1256Q9.76562-9.0332 9.76562-5.31921Q9.76562-0.511932 16.0553-0.511932ZM15.947-2.69852Q13.694-2.69852 12.8387-3.29933Q11.9835-3.90015 11.9835-5.38025Q11.9835-8.70972 14.0121-12.434Q16.0408-16.1583 19.9112-19.4183Q23.7816-22.6784 29.3278-24.7154Q34.874-26.7525 41.9128-26.7525Q48.9525-26.7525 54.4987-24.7154Q60.0449-22.6784 63.9381-19.4183Q67.8314-16.1583 69.8597-12.434Q71.888-8.70972 71.888-5.38025Q71.888-3.90015 71.0342-3.29933Q70.1805-2.69852 67.8795-2.69852ZM42.0036-34.9304Q46.3211-34.9304 49.791-37.1689Q53.2608-39.4073 55.2814-43.261Q57.3021-47.1146 57.3021-51.9135Q57.3021-56.44 55.2376-60.2169Q53.1731-63.9938 49.7051-66.2468Q46.2372-68.4998 42.0036-68.4998Q37.7777-68.4998 34.3079-66.2434Q30.838-63.987 28.772-60.2085Q26.7059-56.4301 26.7509-51.9066Q26.7967-47.1115 28.8189-43.2579Q30.8411-39.4043 34.2636-37.1674Q37.6862-34.9304 42.0036-34.9304ZM42.0036-37.114Q38.3263-37.114 35.3779-39.0606Q32.4295-41.0072 30.6992-44.3462Q28.9688-47.6852 28.9688-51.9066Q28.923-55.8563 30.6747-59.1202Q32.4265-62.384 35.4198-64.3482Q38.4132-66.3124 42.0036-66.3124Q45.5978-66.3124 48.5687-64.3726Q51.5396-62.4329 53.3119-59.1461Q55.0842-55.8594 55.0842-51.9135Q55.0842-47.6921 53.3554-44.3516Q51.6266-41.011 48.6557-39.0625Q45.6848-37.114 42.0036-37.114Z"/>
  </g>
 </g>
</svg>
