<?xml version="1.0" encoding="UTF-8"?>
<!--Generator: Apple Native CoreSVG 175-->
<!DOCTYPE svg
PUBLIC "-//W3C//DTD SVG 1.1//EN"
       "http://www.w3.org/Graphics/SVG/1.1/DTD/svg11.dtd">
<svg version="1.1" xmlns="http://www.w3.org/2000/svg" xmlns:xlink="http://www.w3.org/1999/xlink" width="3300" height="2200">
 <!--glyph: "uni100D68.medium", point size: 100.0, font version: "17.1d1e1", template writer version: "65.1"-->
 <g id="Notes">
  <rect height="2200" id="artboard" style="fill:white;opacity:1" width="3300" x="0" y="0"/>
  <line style="fill:none;stroke:black;opacity:1;stroke-width:0.5;" x1="263" x2="3036" y1="292" y2="292"/>
  <text style="stroke:none;fill:black;font-family:sans-serif;font-size:13;font-weight:bold;" transform="matrix(1 0 0 1 263 322)">Weight/Scale Variations</text>
  <text style="stroke:none;fill:black;font-family:sans-serif;font-size:13;text-anchor:middle;" transform="matrix(1 0 0 1 559.711 322)">Ultralight</text>
  <text style="stroke:none;fill:black;font-family:sans-serif;font-size:13;text-anchor:middle;" transform="matrix(1 0 0 1 856.422 322)">Thin</text>
  <text style="stroke:none;fill:black;font-family:sans-serif;font-size:13;text-anchor:middle;" transform="matrix(1 0 0 1 1153.13 322)">Light</text>
  <text style="stroke:none;fill:black;font-family:sans-serif;font-size:13;text-anchor:middle;" transform="matrix(1 0 0 1 1449.84 322)">Regular</text>
  <text style="stroke:none;fill:black;font-family:sans-serif;font-size:13;text-anchor:middle;" transform="matrix(1 0 0 1 1746.56 322)">Medium</text>
  <text style="stroke:none;fill:black;font-family:sans-serif;font-size:13;text-anchor:middle;" transform="matrix(1 0 0 1 2043.27 322)">Semibold</text>
  <text style="stroke:none;fill:black;font-family:sans-serif;font-size:13;text-anchor:middle;" transform="matrix(1 0 0 1 2339.98 322)">Bold</text>
  <text style="stroke:none;fill:black;font-family:sans-serif;font-size:13;text-anchor:middle;" transform="matrix(1 0 0 1 2636.69 322)">Heavy</text>
  <text style="stroke:none;fill:black;font-family:sans-serif;font-size:13;text-anchor:middle;" transform="matrix(1 0 0 1 2933.4 322)">Black</text>
  <line style="fill:none;stroke:black;opacity:1;stroke-width:0.5;" x1="263" x2="3036" y1="1903" y2="1903"/>
  <g transform="matrix(1 0 0 1 263 1933)">
   <path d="M9.24805 0.830078Q10.8691 0.830078 12.2949 0.214844Q13.7207-0.400391 14.8096-1.49414Q15.8984-2.58789 16.5186-4.01367Q17.1387-5.43945 17.1387-7.05078Q17.1387-8.66211 16.5186-10.0879Q15.8984-11.5137 14.8047-12.6074Q13.7109-13.7012 12.2852-14.3164Q10.8594-14.9316 9.23828-14.9316Q7.62695-14.9316 6.20117-14.3164Q4.77539-13.7012 3.69141-12.6074Q2.60742-11.5137 1.9873-10.0879Q1.36719-8.66211 1.36719-7.05078Q1.36719-5.43945 1.9873-4.01367Q2.60742-2.58789 3.69629-1.49414Q4.78516-0.400391 6.21094 0.214844Q7.63672 0.830078 9.24805 0.830078ZM9.24805-0.654297Q7.91992-0.654297 6.7627-1.14746Q5.60547-1.64062 4.73145-2.51953Q3.85742-3.39844 3.36426-4.56055Q2.87109-5.72266 2.87109-7.05078Q2.87109-8.37891 3.35938-9.54102Q3.84766-10.7031 4.72168-11.582Q5.5957-12.4609 6.75293-12.9541Q7.91016-13.4473 9.23828-13.4473Q10.5762-13.4473 11.7334-12.9541Q12.8906-12.4609 13.7695-11.582Q14.6484-10.7031 15.1465-9.54102Q15.6445-8.37891 15.6445-7.05078Q15.6445-5.72266 15.1514-4.56055Q14.6582-3.39844 13.7842-2.51953Q12.9102-1.64062 11.748-1.14746Q10.5859-0.654297 9.24805-0.654297ZM5.6543-7.05078Q5.6543-6.72852 5.85938-6.52832Q6.06445-6.32812 6.40625-6.32812L8.51562-6.32812L8.51562-4.20898Q8.51562-3.88672 8.71094-3.67676Q8.90625-3.4668 9.23828-3.4668Q9.56055-3.4668 9.77051-3.67676Q9.98047-3.88672 9.98047-4.20898L9.98047-6.32812L12.0898-6.32812Q12.4219-6.32812 12.627-6.52832Q12.832-6.72852 12.832-7.05078Q12.832-7.38281 12.627-7.58789Q12.4219-7.79297 12.0898-7.79297L9.98047-7.79297L9.98047-9.90234Q9.98047-10.2344 9.77051-10.4443Q9.56055-10.6543 9.23828-10.6543Q8.90625-10.6543 8.71094-10.4443Q8.51562-10.2344 8.51562-9.90234L8.51562-7.79297L6.40625-7.79297Q6.06445-7.79297 5.85938-7.58789Q5.6543-7.38281 5.6543-7.05078Z"/>
  </g>
  <g transform="matrix(1 0 0 1 281.867 1933)">
   <path d="M11.709 2.91016Q13.75 2.91016 15.5518 2.12891Q17.3535 1.34766 18.7305-0.0292969Q20.1074-1.40625 20.8887-3.20801Q21.6699-5.00977 21.6699-7.05078Q21.6699-9.0918 20.8887-10.8936Q20.1074-12.6953 18.7305-14.0723Q17.3535-15.4492 15.5469-16.2305Q13.7402-17.0117 11.6992-17.0117Q9.6582-17.0117 7.85645-16.2305Q6.05469-15.4492 4.68262-14.0723Q3.31055-12.6953 2.5293-10.8936Q1.74805-9.0918 1.74805-7.05078Q1.74805-5.00977 2.5293-3.20801Q3.31055-1.40625 4.6875-0.0292969Q6.06445 1.34766 7.86621 2.12891Q9.66797 2.91016 11.709 2.91016ZM11.709 1.25Q9.98047 1.25 8.47656 0.605469Q6.97266-0.0390625 5.83496-1.17676Q4.69727-2.31445 4.05762-3.81836Q3.41797-5.32227 3.41797-7.05078Q3.41797-8.7793 4.05762-10.2832Q4.69727-11.7871 5.83008-12.9297Q6.96289-14.0723 8.4668-14.7119Q9.9707-15.3516 11.6992-15.3516Q13.4277-15.3516 14.9316-14.7119Q16.4355-14.0723 17.5781-12.9297Q18.7207-11.7871 19.3652-10.2832Q20.0098-8.7793 20.0098-7.05078Q20.0098-5.32227 19.3701-3.81836Q18.7305-2.31445 17.5928-1.17676Q16.4551-0.0390625 14.9463 0.605469Q13.4375 1.25 11.709 1.25ZM7.17773-7.05078Q7.17773-6.69922 7.41211-6.47461Q7.64648-6.25 8.01758-6.25L10.8887-6.25L10.8887-3.36914Q10.8887-2.99805 11.1133-2.76855Q11.3379-2.53906 11.6895-2.53906Q12.0605-2.53906 12.29-2.76855Q12.5195-2.99805 12.5195-3.36914L12.5195-6.25L15.4004-6.25Q15.7715-6.25 16.001-6.47461Q16.2305-6.69922 16.2305-7.05078Q16.2305-7.42188 16.001-7.65137Q15.7715-7.88086 15.4004-7.88086L12.5195-7.88086L12.5195-10.752Q12.5195-11.1328 12.29-11.3623Q12.0605-11.5918 11.6895-11.5918Q11.3379-11.5918 11.1133-11.3574Q10.8887-11.123 10.8887-10.752L10.8887-7.88086L8.01758-7.88086Q7.63672-7.88086 7.40723-7.65137Q7.17773-7.42188 7.17773-7.05078Z"/>
  </g>
  <g transform="matrix(1 0 0 1 305.646 1933)">
   <path d="M14.9707 5.66406Q17.0605 5.66406 18.96 5.01465Q20.8594 4.36523 22.4512 3.19336Q24.043 2.02148 25.2197 0.429688Q26.3965-1.16211 27.0459-3.06641Q27.6953-4.9707 27.6953-7.05078Q27.6953-9.14062 27.0459-11.04Q26.3965-12.9395 25.2197-14.5312Q24.043-16.123 22.4512-17.2998Q20.8594-18.4766 18.9551-19.126Q17.0508-19.7754 14.9609-19.7754Q12.8711-19.7754 10.9717-19.126Q9.07227-18.4766 7.48535-17.2998Q5.89844-16.123 4.72168-14.5312Q3.54492-12.9395 2.90039-11.04Q2.25586-9.14062 2.25586-7.05078Q2.25586-4.9707 2.90527-3.06641Q3.55469-1.16211 4.72656 0.429688Q5.89844 2.02148 7.49023 3.19336Q9.08203 4.36523 10.9814 5.01465Q12.8809 5.66406 14.9707 5.66406ZM14.9707 3.84766Q13.1641 3.84766 11.5283 3.2959Q9.89258 2.74414 8.53516 1.74805Q7.17773 0.751953 6.17676-0.610352Q5.17578-1.97266 4.62891-3.6084Q4.08203-5.24414 4.08203-7.05078Q4.08203-8.86719 4.62891-10.5029Q5.17578-12.1387 6.17188-13.501Q7.16797-14.8633 8.52539-15.8594Q9.88281-16.8555 11.5186-17.4023Q13.1543-17.9492 14.9609-17.9492Q16.7773-17.9492 18.4131-17.4023Q20.0488-16.8555 21.4111-15.8594Q22.7734-14.8633 23.7695-13.501Q24.7656-12.1387 25.3174-10.5029Q25.8691-8.86719 25.8691-7.05078Q25.8789-5.24414 25.332-3.6084Q24.7852-1.97266 23.7842-0.610352Q22.7832 0.751953 21.4209 1.74805Q20.0586 2.74414 18.4229 3.2959Q16.7871 3.84766 14.9707 3.84766ZM9.19922-7.05078Q9.19922-6.66992 9.45801-6.4209Q9.7168-6.17188 10.1172-6.17188L14.0625-6.17188L14.0625-2.2168Q14.0625-1.81641 14.3115-1.55762Q14.5605-1.29883 14.9512-1.29883Q15.3516-1.29883 15.6104-1.55273Q15.8691-1.80664 15.8691-2.2168L15.8691-6.17188L19.8242-6.17188Q20.2246-6.17188 20.4785-6.4209Q20.7324-6.66992 20.7324-7.05078Q20.7324-7.46094 20.4785-7.71484Q20.2246-7.96875 19.8242-7.96875L15.8691-7.96875L15.8691-11.9141Q15.8691-12.3242 15.6104-12.583Q15.3516-12.8418 14.9512-12.8418Q14.5605-12.8418 14.3115-12.583Q14.0625-12.3242 14.0625-11.9141L14.0625-7.96875L10.1172-7.96875Q9.70703-7.96875 9.45312-7.71484Q9.19922-7.46094 9.19922-7.05078Z"/>
  </g>
  <text style="stroke:none;fill:black;font-family:sans-serif;font-size:13;font-weight:bold;" transform="matrix(1 0 0 1 263 1953)">Design Variations</text>
  <text style="stroke:none;fill:black;font-family:sans-serif;font-size:13;" transform="matrix(1 0 0 1 263 1971)">Symbols are supported in up to nine weights and three scales.</text>
  <text style="stroke:none;fill:black;font-family:sans-serif;font-size:13;" transform="matrix(1 0 0 1 263 1989)">For optimal layout with text and other symbols, vertically align</text>
  <text style="stroke:none;fill:black;font-family:sans-serif;font-size:13;" transform="matrix(1 0 0 1 263 2007)">symbols with the adjacent text.</text>
  <line style="fill:none;stroke:#00AEEF;stroke-width:0.5;opacity:1.0;" x1="776" x2="776" y1="1919" y2="1933"/>
  <g transform="matrix(1 0 0 1 776 1933)">
   <path d="M3.31055 0.15625Q3.70117 0.15625 3.91602-0.00976562Q4.13086-0.175781 4.26758-0.585938L5.52734-4.0332L11.2891-4.0332L12.5488-0.585938Q12.6855-0.175781 12.9004-0.00976562Q13.1152 0.15625 13.4961 0.15625Q13.8867 0.15625 14.1162-0.0585938Q14.3457-0.273438 14.3457-0.644531Q14.3457-0.869141 14.2383-1.17188L9.6582-13.3691Q9.48242-13.8184 9.17969-14.043Q8.87695-14.2676 8.4082-14.2676Q7.5-14.2676 7.17773-13.3789L2.59766-1.16211Q2.49023-0.859375 2.49023-0.634766Q2.49023-0.263672 2.70996-0.0537109Q2.92969 0.15625 3.31055 0.15625ZM6.00586-5.51758L8.37891-12.0898L8.42773-12.0898L10.8008-5.51758Z"/>
  </g>
  <line style="fill:none;stroke:#00AEEF;stroke-width:0.5;opacity:1.0;" x1="793.197" x2="793.197" y1="1919" y2="1933"/>
  <text style="stroke:none;fill:black;font-family:sans-serif;font-size:13;font-weight:bold;" transform="matrix(1 0 0 1 776 1953)">Margins</text>
  <text style="stroke:none;fill:black;font-family:sans-serif;font-size:13;" transform="matrix(1 0 0 1 776 1971)">Leading and trailing margins on the left and right side of each symbol</text>
  <text style="stroke:none;fill:black;font-family:sans-serif;font-size:13;" transform="matrix(1 0 0 1 776 1989)">can be adjusted by modifying the x-location of the margin guidelines.</text>
  <text style="stroke:none;fill:black;font-family:sans-serif;font-size:13;" transform="matrix(1 0 0 1 776 2007)">Modifications are automatically applied proportionally to all</text>
  <text style="stroke:none;fill:black;font-family:sans-serif;font-size:13;" transform="matrix(1 0 0 1 776 2025)">scales and weights.</text>
  <g transform="matrix(1 0 0 1 1289 1933)">
   <path d="M2.8418 1.86523L4.54102 3.57422Q5.18555 4.22852 5.90332 4.17969Q6.62109 4.13086 7.31445 3.35938L18.0078-8.42773L17.041-9.4043L6.42578 2.27539Q6.16211 2.57812 5.89355 2.61719Q5.625 2.65625 5.27344 2.30469L4.10156 1.14258Q3.75 0.791016 3.79395 0.522461Q3.83789 0.253906 4.14062-0.0195312L15.6152-10.8203L14.6387-11.7871L3.04688-0.898438Q2.30469-0.214844 2.25098 0.498047Q2.19727 1.21094 2.8418 1.86523ZM9.25781-16.3281Q8.94531-16.0254 8.90625-15.6348Q8.86719-15.2441 9.04297-14.9512Q9.21875-14.6777 9.55566-14.541Q9.89258-14.4043 10.3809-14.5215Q11.4746-14.7754 12.5977-14.7314Q13.7207-14.6875 14.7949-13.9844L14.209-12.5293Q13.9551-11.9043 14.0674-11.4404Q14.1797-10.9766 14.5801-10.5664L16.875-8.25195Q17.2363-7.88086 17.5781-7.82227Q17.9199-7.76367 18.3398-7.8418L19.4043-8.03711L20.0684-7.36328L20.0293-6.80664Q20-6.43555 20.1221-6.12305Q20.2441-5.81055 20.6055-5.44922L21.3672-4.70703Q21.7285-4.3457 22.1533-4.33105Q22.5781-4.31641 22.9297-4.66797L25.8398-7.58789Q26.1914-7.93945 26.1816-8.35449Q26.1719-8.76953 25.8105-9.13086L25.0391-9.89258Q24.6875-10.2539 24.3799-10.3857Q24.0723-10.5176 23.7109-10.4883L23.1348-10.4395L22.4902-11.0742L22.7344-12.1973Q22.832-12.6172 22.6953-12.9834Q22.5586-13.3496 22.1191-13.7891L19.9219-15.9766Q18.6719-17.2168 17.2607-17.8369Q15.8496-18.457 14.4189-18.4814Q12.9883-18.5059 11.665-17.959Q10.3418-17.4121 9.25781-16.3281ZM10.752-15.957Q11.6602-16.6211 12.7002-16.9043Q13.7402-17.1875 14.8047-17.085Q15.8691-16.9824 16.8701-16.5137Q17.8711-16.0449 18.7012-15.2051L21.1328-12.793Q21.3086-12.6172 21.3525-12.4512Q21.3965-12.2852 21.3379-12.0312L21.0156-10.5469L22.5195-9.0625L23.5059-9.12109Q23.6914-9.13086 23.7891-9.09668Q23.8867-9.0625 24.0332-8.91602L24.6094-8.33984L22.168-5.89844L21.5918-6.47461Q21.4453-6.62109 21.4062-6.71875Q21.3672-6.81641 21.377-7.01172L21.4453-7.98828L19.9512-9.47266L18.4277-9.21875Q18.1836-9.16992 18.042-9.2041Q17.9004-9.23828 17.7148-9.41406L15.7129-11.416Q15.5176-11.5918 15.4932-11.7529Q15.4688-11.9141 15.5859-12.1875L16.4648-14.2773Q15.293-15.3711 13.8281-15.791Q12.3633-16.2109 10.8398-15.7617Q10.7227-15.7324 10.6885-15.8057Q10.6543-15.8789 10.752-15.957Z"/>
  </g>
  <text style="stroke:none;fill:black;font-family:sans-serif;font-size:13;font-weight:bold;" transform="matrix(1 0 0 1 1289 1953)">Exporting</text>
  <text style="stroke:none;fill:black;font-family:sans-serif;font-size:13;" transform="matrix(1 0 0 1 1289 1971)">Symbols should be outlined when exporting to ensure the</text>
  <text style="stroke:none;fill:black;font-family:sans-serif;font-size:13;" transform="matrix(1 0 0 1 1289 1989)">design is preserved when submitting to Xcode.</text>
  <text id="template-version" style="stroke:none;fill:black;font-family:sans-serif;font-size:13;text-anchor:end;" transform="matrix(1 0 0 1 3036 1933)">Template v.3.0</text>
  <text style="stroke:none;fill:black;font-family:sans-serif;font-size:13;text-anchor:end;" transform="matrix(1 0 0 1 3036 1951)">Requires Xcode 13 or greater</text>
  <text id="descriptive-name" style="stroke:none;fill:black;font-family:sans-serif;font-size:13;text-anchor:end;" transform="matrix(1 0 0 1 3036 1969)">Generated from play.tv</text>
  <text style="stroke:none;fill:black;font-family:sans-serif;font-size:13;text-anchor:end;" transform="matrix(1 0 0 1 3036 1987)">Typeset at 100 points</text>
  <text style="stroke:none;fill:black;font-family:sans-serif;font-size:13;" transform="matrix(1 0 0 1 263 726)">Small</text>
  <text style="stroke:none;fill:black;font-family:sans-serif;font-size:13;" transform="matrix(1 0 0 1 263 1156)">Medium</text>
  <text style="stroke:none;fill:black;font-family:sans-serif;font-size:13;" transform="matrix(1 0 0 1 263 1586)">Large</text>
 </g>
 <g id="Guides">
  <g id="H-reference" style="fill:#27AAE1;stroke:none;" transform="matrix(1 0 0 1 339 696)">
   <path d="M0.993347 0L3.6377 0L29.3282-67.1326L30.0301-67.1326L30.0301-70.459L28.1227-70.459ZM11.6882-24.4797L46.9818-24.4797L46.2311-26.7288L12.4382-26.7288ZM55.1193 0L57.7637 0L30.6381-70.459L29.4327-70.459L29.4327-67.1326Z"/>
  </g>
  <line id="Baseline-S" style="fill:none;stroke:#27AAE1;opacity:1;stroke-width:0.5;" x1="263" x2="3036" y1="696" y2="696"/>
  <line id="Capline-S" style="fill:none;stroke:#27AAE1;opacity:1;stroke-width:0.5;" x1="263" x2="3036" y1="625.541" y2="625.541"/>
  <g id="H-reference" style="fill:#27AAE1;stroke:none;" transform="matrix(1 0 0 1 339 1126)">
   <path d="M0.993347 0L3.6377 0L29.3282-67.1326L30.0301-67.1326L30.0301-70.459L28.1227-70.459ZM11.6882-24.4797L46.9818-24.4797L46.2311-26.7288L12.4382-26.7288ZM55.1193 0L57.7637 0L30.6381-70.459L29.4327-70.459L29.4327-67.1326Z"/>
  </g>
  <line id="Baseline-M" style="fill:none;stroke:#27AAE1;opacity:1;stroke-width:0.5;" x1="263" x2="3036" y1="1126" y2="1126"/>
  <line id="Capline-M" style="fill:none;stroke:#27AAE1;opacity:1;stroke-width:0.5;" x1="263" x2="3036" y1="1055.54" y2="1055.54"/>
  <g id="H-reference" style="fill:#27AAE1;stroke:none;" transform="matrix(1 0 0 1 339 1556)">
   <path d="M0.993347 0L3.6377 0L29.3282-67.1326L30.0301-67.1326L30.0301-70.459L28.1227-70.459ZM11.6882-24.4797L46.9818-24.4797L46.2311-26.7288L12.4382-26.7288ZM55.1193 0L57.7637 0L30.6381-70.459L29.4327-70.459L29.4327-67.1326Z"/>
  </g>
  <line id="Baseline-L" style="fill:none;stroke:#27AAE1;opacity:1;stroke-width:0.5;" x1="263" x2="3036" y1="1556" y2="1556"/>
  <line id="Capline-L" style="fill:none;stroke:#27AAE1;opacity:1;stroke-width:0.5;" x1="263" x2="3036" y1="1485.54" y2="1485.54"/>
  <line id="left-margin-Regular-M" style="fill:none;stroke:#00AEEF;stroke-width:0.5;opacity:1.0;" x1="1376.36" x2="1376.36" y1="1030.79" y2="1150.12"/>
  <line id="right-margin-Regular-M" style="fill:none;stroke:#00AEEF;stroke-width:0.5;opacity:1.0;" x1="1523.33" x2="1523.33" y1="1030.79" y2="1150.12"/>
 </g>
 <g id="Symbols">
  <g id="Black-L" transform="matrix(1 0 0 1 2832.44 1556)">
   <path d="M37.5531 13.159L164.36 13.159Q174.615 13.159 180.222 7.5228Q185.829 1.88656 185.829-8.30882L185.829-82.2911Q185.829-92.5656 180.222-98.1732Q174.615-103.781 164.36-103.781L37.5531-103.781Q27.3565-103.781 21.7202-98.1732Q16.084-92.5656 16.084-82.2911L16.084-8.30882Q16.084 1.88656 21.7202 7.5228Q27.3565 13.159 37.5531 13.159ZM40.0502-5.53649Q34.7795-5.53649 34.7795-10.8059L34.7795-79.794Q34.7795-85.0841 40.0502-85.0841L161.861-85.0841Q167.132-85.0841 167.132-79.794L167.132-10.8059Q167.132-5.53649 161.861-5.53649ZM66.8613 37.6478L135.051 37.6478Q138.373 37.6478 140.656 35.267Q142.94 32.8863 142.94 29.8193Q142.94 26.7108 140.656 24.3404Q138.373 21.97 135.051 21.97L66.8613 21.97Q63.5399 21.97 61.2565 24.3404Q58.973 26.7108 58.973 29.8193Q58.973 32.8863 61.2565 35.267Q63.5399 37.6478 66.8613 37.6478ZM79.0209-19.9564Q79.0209-17.2363 81.5343-16.0739Q84.0477-14.9115 86.502-16.3462L129.485-41.1928Q131.896-42.5704 131.857-45.2629Q131.817-47.9554 129.464-49.311L86.502-74.3328Q84.0477-75.7676 81.5343-74.5656Q79.0209-73.3636 79.0209-70.5473Z"/>
  </g>
  <g id="Heavy-L" transform="matrix(1 0 0 1 2537.31 1556)">
   <path d="M36.2068 12.0445L162.551 12.0445Q172.218 12.0445 177.446 6.79439Q182.673 1.54427 182.673-8.07229L182.673-81.6619Q182.673-91.3528 177.446-96.5836Q172.218-101.814 162.551-101.814L36.2068-101.814Q26.5842-101.814 21.3341-96.5836Q16.084-91.3528 16.084-81.6619L16.084-8.07229Q16.084 1.54427 21.3341 6.79439Q26.5842 12.0445 36.2068 12.0445ZM38.1526-4.47165Q32.6001-4.47165 32.6001-10.018L32.6001-79.7161Q32.6001-85.2923 38.1526-85.2923L160.599-85.2923Q166.151-85.2923 166.151-79.7161L166.151-10.018Q166.151-4.47165 160.599-4.47165ZM65.9014 35.6462L132.856 35.6462Q135.862 35.6462 137.932 33.4976Q140.002 31.349 140.002 28.5514Q140.002 25.6942 137.932 23.5605Q135.862 21.4267 132.856 21.4267L65.9014 21.4267Q62.8955 21.4267 60.8257 23.5605Q58.7558 25.6942 58.7558 28.5514Q58.7558 31.349 60.8257 33.4976Q62.8955 35.6462 65.9014 35.6462ZM77.7703-19.3473Q77.7703-16.6794 80.1834-15.6047Q82.5966-14.5299 84.9488-15.8906L128.127-40.9681Q130.414-42.2901 130.377-44.8552Q130.339-47.4203 128.097-48.7066L84.9488-73.918Q82.5966-75.2786 80.1834-74.1667Q77.7703-73.0548 77.7703-70.3274Z"/>
  </g>
  <g id="Bold-L" transform="matrix(1 0 0 1 2242.61 1556)">
   <path d="M34.5281 10.7488L160.207 10.7488Q169.136 10.7488 173.894 5.97669Q178.652 1.20455 178.652-7.68107L178.652-80.8774Q178.652-89.8292 173.894-94.5939Q169.136-99.3585 160.207-99.3585L34.5281-99.3585Q25.6282-99.3585 20.8561-94.5939Q16.084-89.8292 16.084-80.8774L16.084-7.68107Q16.084 1.20455 20.8561 5.97669Q25.6282 10.7488 34.5281 10.7488ZM35.8571-3.04448Q29.8773-3.04448 29.8773-9.01004L29.8773-79.5485Q29.8773-85.551 35.8571-85.551L158.864-85.551Q164.844-85.551 164.844-79.5485L164.844-9.01004Q164.844-3.04448 158.864-3.04448ZM64.6635 33.0964L130.072 33.0964Q132.667 33.0964 134.456 31.252Q136.246 29.4076 136.246 26.9661Q136.246 24.4506 134.456 22.6248Q132.667 20.7989 130.072 20.7989L64.6635 20.7989Q62.0682 20.7989 60.279 22.6248Q58.4899 24.4506 58.4899 26.9661Q58.4899 29.4076 60.279 31.252Q62.0682 33.0964 64.6635 33.0964ZM76.0979-18.5306Q76.0979-15.9528 78.3715-14.9833Q80.6451-14.0139 82.8629-15.2801L126.312-40.639Q128.442-41.8902 128.409-44.2941Q128.375-46.6981 126.275-47.8981L82.8629-73.3446Q80.6451-74.6108 78.3715-73.6083Q76.0979-72.6057 76.0979-70.0065Z"/>
  </g>
  <g id="Semibold-L" transform="matrix(1 0 0 1 1947.29 1556)">
   <path d="M33.3708 9.85558L158.592 9.85558Q167.012 9.85558 171.446 5.41296Q175.879 0.970352 175.879-7.41136L175.879-80.3366Q175.879-88.7789 171.446-93.2222Q167.012-97.6654 158.592-97.6654L33.3708-97.6654Q24.9692-97.6654 20.5266-93.2222Q16.084-88.7789 16.084-80.3366L16.084-7.41136Q16.084 0.970352 20.5266 5.41296Q24.9692 9.85558 33.3708 9.85558ZM34.2746-2.06059Q28.0002-2.06059 28.0002-8.31513L28.0002-79.4329Q28.0002-85.7294 34.2746-85.7294L157.668-85.7294Q163.943-85.7294 163.943-79.4329L163.943-8.31513Q163.943-2.06059 157.668-2.06059ZM63.8102 31.3385L128.153 31.3385Q130.465 31.3385 132.061 29.7039Q133.656 28.0693 133.656 25.8733Q133.656 23.5933 132.061 21.9797Q130.465 20.366 128.153 20.366L63.8102 20.366Q61.4979 20.366 59.9022 21.9797Q58.3065 23.5933 58.3065 25.8733Q58.3065 28.0693 59.9022 29.7039Q61.4979 31.3385 63.8102 31.3385ZM74.9449-17.9676Q74.9449-15.4519 77.1224-14.555Q79.2999-13.6581 81.425-14.8592L125.061-40.4121Q127.082-41.6145 127.052-43.9073Q127.022-46.2001 125.019-47.3407L81.425-72.9493Q79.2999-74.1504 77.1224-73.2233Q74.9449-72.2961 74.9449-69.7853Z"/>
  </g>
  <g id="Medium-L" transform="matrix(1 0 0 1 1651.63 1556)">
   <path d="M32.4933 9.17828L157.367 9.17828Q165.402 9.17828 169.589 4.98553Q173.777 0.79277 173.777-7.20686L173.777-79.9266Q173.777-87.9825 169.589-92.1821Q165.402-96.3816 157.367-96.3816L32.4933-96.3816Q24.4695-96.3816 20.2767-92.1821Q16.084-87.9825 16.084-79.9266L16.084-7.20686Q16.084 0.79277 20.2767 4.98553Q24.4695 9.17828 32.4933 9.17828ZM33.0746-1.31456Q26.5768-1.31456 26.5768-7.78822L26.5768-79.3452Q26.5768-85.8646 33.0746-85.8646L156.762-85.8646Q163.26-85.8646 163.26-79.3452L163.26-7.78822Q163.26-1.31456 156.762-1.31456ZM63.1631 30.0056L126.697 30.0056Q128.795 30.0056 130.244 28.5301Q131.693 27.0545 131.693 25.0446Q131.693 22.9432 130.244 21.4905Q128.795 20.0379 126.697 20.0379L63.1631 20.0379Q61.0654 20.0379 59.6164 21.4905Q58.1675 22.9432 58.1675 25.0446Q58.1675 27.0545 59.6164 28.5301Q61.0654 30.0056 63.1631 30.0056ZM74.0707-17.5406Q74.0707-15.0721 76.1752-14.2302Q78.2798-13.3884 80.3346-14.5401L124.112-40.2401Q126.051-41.4055 126.023-43.614Q125.995-45.8226 124.066-46.9181L80.3346-72.6496Q78.2798-73.8013 76.1752-72.9314Q74.0707-72.0614 74.0707-69.6175Z"/>
  </g>
  <g id="Regular-L" transform="matrix(1 0 0 1 1356.29 1556)">
   <path d="M31.3487 8.29486L155.77 8.29486Q163.301 8.29486 167.167 4.428Q171.034 0.561142 171.034-6.94011L171.034-79.3918Q171.034-86.9437 167.167-90.8254Q163.301-94.7071 155.77-94.7071L31.3487-94.7071Q23.8177-94.7071 19.9508-90.8254Q16.084-86.9437 16.084-79.3918L16.084-6.94011Q16.084 0.561142 19.9508 4.428Q23.8177 8.29486 31.3487 8.29486ZM31.5095-0.34149Q24.7203-0.34149 24.7203-7.10095L24.7203-79.2309Q24.7203-86.0411 31.5095-86.0411L155.579-86.0411Q162.368-86.0411 162.368-79.2309L162.368-7.10095Q162.368-0.34149 155.579-0.34149ZM62.3192 28.2671L124.799 28.2671Q126.617 28.2671 127.875 26.999Q129.132 25.7309 129.132 23.9638Q129.132 22.0953 127.875 20.8525Q126.617 19.6098 124.799 19.6098L62.3192 19.6098Q60.5013 19.6098 59.2437 20.8525Q57.9861 22.0953 57.9861 23.9638Q57.9861 25.7309 59.2437 26.999Q60.5013 28.2671 62.3192 28.2671ZM72.9304-16.9838Q72.9304-14.5767 74.9399-13.8066Q76.9493-13.0365 78.9125-14.1239L122.875-40.0157Q124.707-41.1328 124.681-43.2315Q124.656-45.3302 122.824-46.3668L78.9125-72.2587Q76.9493-73.346 74.9399-72.5506Q72.9304-71.7552 72.9304-69.3987Z"/>
  </g>
  <g id="Light-L" transform="matrix(1 0 0 1 1061.33 1556)">
   <path d="M30.1174 7.94599L153.492 7.94599Q160.448 7.94599 163.987 4.40748Q167.525 0.868972 167.525-6.03714L167.525-78.8171Q167.525-85.7534 163.987-89.3171Q160.448-92.8807 153.492-92.8807L30.1174-92.8807Q23.161-92.8807 19.6225-89.3171Q16.084-85.7534 16.084-78.8171L16.084-6.03714Q16.084 0.868972 19.6225 4.40748Q23.161 7.94599 30.1174 7.94599ZM30.2782 1.34131Q22.6887 1.34131 22.6887-6.19798L22.6887-78.6563Q22.6887-86.2258 30.2782-86.2258L153.281-86.2258Q160.87-86.2258 160.87-78.6563L160.87-6.19798Q160.87 1.34131 153.281 1.34131ZM61.1494 26.0507L122.46 26.0507Q123.867 26.0507 124.827 25.1007Q125.787 24.1507 125.787 22.7735Q125.787 21.3359 124.827 20.401Q123.867 19.4661 122.46 19.4661L61.1494 19.4661Q59.742 19.4661 58.782 20.401Q57.8219 21.3359 57.8219 22.7735Q57.8219 24.1507 58.782 25.1007Q59.742 26.0507 61.1494 26.0507ZM70.9808-16.0193Q70.9808-13.8379 72.7953-13.1191Q74.6098-12.4003 76.4293-13.4056L120.761-39.4616Q122.47-40.5172 122.455-42.4824Q122.44-44.4477 120.731-45.4228L76.4293-71.4788Q74.6098-72.4841 72.7953-71.7503Q70.9808-71.0164 70.9808-68.8652Z"/>
  </g>
  <g id="Thin-L" transform="matrix(1 0 0 1 766.943 1556)">
   <path d="M28.4889 7.48457L150.479 7.48457Q156.675 7.48457 159.78 4.38034Q162.884 1.2761 162.884-4.8429L162.884-78.0572Q162.884-84.1792 159.78-87.3221Q156.675-90.4651 150.479-90.4651L28.4889-90.4651Q22.2925-90.4651 19.1882-87.3221Q16.084-84.1792 16.084-78.0572L16.084-4.8429Q16.084 1.2761 19.1882 4.38034Q22.2925 7.48457 28.4889 7.48457ZM28.6497 3.56695Q20.0016 3.56695 20.0016-5.00374L20.0016-77.8963Q20.0016-86.47 28.6497-86.47L150.241-86.47Q158.889-86.47 158.889-77.8963L158.889-5.00374Q158.889 3.56695 150.241 3.56695ZM59.6023 23.1194L119.365 23.1194Q120.23 23.1194 120.796 22.5901Q121.363 22.0608 121.363 21.1993Q121.363 20.3317 120.796 19.8039Q120.23 19.2761 119.365 19.2761L59.6023 19.2761Q58.7378 19.2761 58.1713 19.8039Q57.6048 20.3317 57.6048 21.1993Q57.6048 22.0608 58.1713 22.5901Q58.7378 23.1194 59.6023 23.1194ZM68.4023-14.7436Q68.4023-12.8608 69.959-12.2098Q71.5156-11.5589 73.1451-12.4556L117.965-38.7288Q119.511-39.7029 119.51-41.4918Q119.508-43.2806 117.962-44.1743L73.1451-70.4474Q71.5156-71.3441 69.959-70.6917Q68.4023-70.0393 68.4023-68.1595Z"/>
  </g>
  <g id="Ultralight-L" transform="matrix(1 0 0 1 471.421 1556)">
   <path d="M27.6547 7.24824L148.936 7.24824Q154.743 7.24824 157.625 4.36643Q160.507 1.48463 160.507-4.23121L160.507-77.6679Q160.507-83.3729 157.625-86.3003Q154.743-89.2278 148.936-89.2278L27.6547-89.2278Q21.8476-89.2278 18.9658-86.3003Q16.084-83.3729 16.084-77.6679L16.084-4.23121Q16.084 1.48463 18.9658 4.36643Q21.8476 7.24824 27.6547 7.24824ZM27.8156 4.70691Q18.6253 4.70691 18.6253-4.39205L18.6253-77.5071Q18.6253-86.5952 27.8156-86.5952L148.684-86.5952Q157.874-86.5952 157.874-77.5071L157.874-4.39205Q157.874 4.70691 148.684 4.70691ZM58.8099 21.6179L117.781 21.6179Q118.367 21.6179 118.732 21.3041Q119.097 20.9903 119.097 20.3929Q119.097 19.8173 118.732 19.4981Q118.367 19.1788 117.781 19.1788L58.8099 19.1788Q58.2234 19.1788 57.8585 19.4981Q57.4936 19.8173 57.4936 20.3929Q57.4936 20.9903 57.8585 21.3041Q58.2234 21.6179 58.8099 21.6179ZM67.0816-14.0902Q67.0816-12.3603 68.5062-11.7441Q69.9308-11.128 71.463-11.9691L116.533-38.3535Q117.996-39.2858 118.001-40.9843Q118.007-42.6828 116.544-43.5348L71.463-69.9192Q69.9308-70.7603 68.5062-70.1495Q67.0816-69.5388 67.0816-67.798Z"/>
  </g>
  <g id="Black-M" transform="matrix(1 0 0 1 2854.07 1126)">
   <path d="M30.0842 3.16973L128.582 3.16973Q136.955 3.16973 141.58-1.48427Q146.206-6.13826 146.206-14.4539L146.206-72.153Q146.206-80.5312 141.58-85.1565Q136.955-89.7817 128.582-89.7817L30.0842-89.7817Q21.7689-89.7817 17.1149-85.1565Q12.4609-80.5312 12.4609-72.153L12.4609-14.4539Q12.4609-6.13826 17.1149-1.48427Q21.7689 3.16973 30.0842 3.16973ZM32.4927-12.9122Q28.5429-12.9122 28.5429-16.8623L28.5429-69.7445Q28.5429-73.7001 32.4927-73.7001L126.174-73.7001Q130.124-73.7001 130.124-69.7445L130.124-16.8623Q130.124-12.9122 126.174-12.9122ZM52.4667 22.6515L106.2 22.6515Q108.989 22.6515 110.901 20.6506Q112.813 18.6498 112.813 16.0949Q112.813 13.529 110.901 11.5309Q108.989 9.53276 106.2 9.53276L52.4667 9.53276Q49.6779 9.53276 47.7656 11.5309Q45.8533 13.529 45.8533 16.0949Q45.8533 18.6498 47.7656 20.6506Q49.6779 22.6515 52.4667 22.6515ZM62.0315-23.7897Q62.0315-21.668 64.0385-20.699Q66.0454-19.73 68.0153-20.8941L101.198-39.9676Q103.157-41.0743 103.125-43.2517Q103.094-45.429 101.192-46.5306L68.0153-65.7753Q66.0454-66.9394 64.0385-65.9391Q62.0315-64.9389 62.0315-62.7085Z"/>
  </g>
  <g id="Heavy-M" transform="matrix(1 0 0 1 2558.74 1126)">
   <path d="M28.8817 2.11238L127.024 2.11238Q134.875 2.11238 139.16-2.19444Q143.445-6.50126 143.445-14.3059L143.445-71.5909Q143.445-79.4554 139.16-83.7417Q134.875-88.0279 127.024-88.0279L28.8817-88.0279Q21.0746-88.0279 16.7678-83.7417Q12.4609-79.4554 12.4609-71.5909L12.4609-14.3059Q12.4609-6.50126 16.7678-2.19444Q21.0746 2.11238 28.8817 2.11238ZM30.7512-12.0265Q26.5998-12.0265 26.5998-16.1754L26.5998-69.7214Q26.5998-73.8865 30.7512-73.8865L125.152-73.8865Q129.304-73.8865 129.304-69.7214L129.304-16.1754Q129.304-12.0265 125.152-12.0265ZM51.6362 20.8993L104.27 20.8993Q106.788 20.8993 108.519 19.096Q110.25 17.2927 110.25 14.9653Q110.25 12.6053 108.519 10.8101Q106.788 9.01495 104.27 9.01495L51.6362 9.01495Q49.1181 9.01495 47.3871 10.8101Q45.6561 12.6053 45.6561 14.9653Q45.6561 17.2927 47.3871 19.096Q49.1181 20.8993 51.6362 20.8993ZM60.9888-23.2832Q60.9888-21.1917 62.9157-20.3037Q64.8427-19.4157 66.7259-20.515L100.065-39.799Q101.914-40.8571 101.884-42.9222Q101.854-44.9874 100.049-46.0268L66.7259-65.4417Q64.8427-66.541 62.9157-65.6231Q60.9888-64.7051 60.9888-62.5427Z"/>
  </g>
  <g id="Bold-M" transform="matrix(1 0 0 1 2263.57 1126)">
   <path d="M27.5365 0.92959L125.281 0.92959Q132.548 0.92959 136.452-2.98887Q140.356-6.90733 140.356-14.1405L140.356-70.9621Q140.356-78.252 136.452-82.159Q132.548-86.0659 125.281-86.0659L27.5365-86.0659Q20.2979-86.0659 16.3794-82.159Q12.4609-78.252 12.4609-70.9621L12.4609-14.1405Q12.4609-6.90733 16.3794-2.98887Q20.2979 0.92959 27.5365 0.92959ZM28.803-11.0357Q24.4263-11.0357 24.4263-15.407L24.4263-69.6956Q24.4263-74.0951 28.803-74.0951L124.009-74.0951Q128.386-74.0951 128.386-69.6956L128.386-15.407Q128.386-11.0357 124.009-11.0357ZM50.7073 18.9392L102.11 18.9392Q104.326 18.9392 105.854 17.357Q107.382 15.7747 107.382 13.7016Q107.382 11.572 105.854 10.0039Q104.326 8.43571 102.11 8.43571L50.7073 8.43571Q48.4918 8.43571 46.9637 10.0039Q45.4356 11.572 45.4356 13.7016Q45.4356 15.7747 46.9637 17.357Q48.4918 18.9392 50.7073 18.9392ZM59.8224-22.7165Q59.8224-20.6589 61.6598-19.8615Q63.4972-19.0641 65.2836-20.0908L98.7991-39.6105Q100.523-40.6141 100.495-42.5537Q100.467-44.4934 98.7708-45.4633L65.2836-65.0686Q63.4972-66.0953 61.6598-65.2695Q59.8224-64.4437 59.8224-62.3572Z"/>
  </g>
  <g id="Semibold-M" transform="matrix(1 0 0 1 1967.92 1126)">
   <path d="M26.6092 0.11418L124.079 0.11418Q130.944 0.11418 134.586-3.53655Q138.227-7.18727 138.227-14.0264L138.227-70.5287Q138.227-77.4224 134.586-81.0679Q130.944-84.7134 124.079-84.7134L26.6092-84.7134Q19.7624-84.7134 16.1117-81.0679Q12.4609-77.4224 12.4609-70.5287L12.4609-14.0264Q12.4609-7.18727 16.1117-3.53655Q19.7624 0.11418 26.6092 0.11418ZM27.46-10.3527Q22.9278-10.3527 22.9278-14.8773L22.9278-69.6778Q22.9278-74.2389 27.46-74.2389L123.221-74.2389Q127.753-74.2389 127.753-69.6778L127.753-14.8773Q127.753-10.3527 123.221-10.3527ZM50.0668 17.588L100.621 17.588Q102.628 17.588 104.017 16.158Q105.405 14.7281 105.405 12.8304Q105.405 10.8597 104.017 9.44804Q102.628 8.03638 100.621 8.03638L50.0668 8.03638Q48.06 8.03638 46.6718 9.44804Q45.2835 10.8597 45.2835 12.8304Q45.2835 14.7281 46.6718 16.158Q48.06 17.588 50.0668 17.588ZM59.0182-22.3259Q59.0182-20.2916 60.794-19.5567Q62.5697-18.8217 64.2892-19.7983L97.926-39.4805Q99.5649-40.4466 99.5376-42.2997Q99.5102-44.1528 97.8895-45.0748L64.2892-64.8114Q62.5697-65.788 60.794-65.0257Q59.0182-64.2634 59.0182-62.2293Z"/>
  </g>
  <g id="Medium-M" transform="matrix(1 0 0 1 1672.02 1126)">
   <path d="M25.906-0.504097L123.168-0.504097Q129.728-0.504097 133.17-3.95182Q136.613-7.39954 136.613-13.9399L136.613-70.2Q136.613-76.7934 133.17-80.2406Q129.728-83.6878 123.168-83.6878L25.906-83.6878Q19.3564-83.6878 15.9087-80.2406Q12.4609-76.7934 12.4609-70.2L12.4609-13.9399Q12.4609-7.39954 15.9087-3.95182Q19.3564-0.504097 25.906-0.504097ZM26.4417-9.83478Q21.7916-9.83478 21.7916-14.4756L21.7916-69.6643Q21.7916-74.3479 26.4417-74.3479L122.623-74.3479Q127.273-74.3479 127.273-69.6643L127.273-14.4756Q127.273-9.83478 122.623-9.83478ZM49.5812 16.5634L99.4926 16.5634Q101.341 16.5634 102.623 15.249Q103.906 13.9346 103.906 12.1699Q103.906 10.3196 102.623 9.02659Q101.341 7.73359 99.4926 7.73359L49.5812 7.73359Q47.7326 7.73359 46.4504 9.02659Q45.1682 10.3196 45.1682 12.1699Q45.1682 13.9346 46.4504 15.249Q47.7326 16.5634 49.5812 16.5634ZM58.4085-22.0298Q58.4085-20.0131 60.1374-19.3255Q61.8664-18.6379 63.5353-19.5766L97.264-39.3819Q98.8381-40.3196 98.8116-42.1071Q98.785-43.8946 97.2213-44.7802L63.5353-64.6163Q61.8664-65.555 60.1374-64.8409Q58.4085-64.1268 58.4085-62.1324Z"/>
  </g>
  <g id="Regular-M" transform="matrix(1 0 0 1 1376.36 1126)">
   <path d="M24.9888-1.31055L121.979-1.31055Q128.141-1.31055 131.324-4.49347Q134.507-7.6764 134.507-13.8271L134.507-69.7713Q134.507-75.9729 131.324-79.1615Q128.141-82.3501 121.979-82.3501L24.9888-82.3501Q18.8268-82.3501 15.6439-79.1615Q12.4609-75.9729 12.4609-69.7713L12.4609-13.8271Q12.4609-7.6764 15.6439-4.49347Q18.8268-1.31055 24.9888-1.31055ZM25.1134-9.15924Q20.3096-9.15924 20.3096-13.9517L20.3096-69.6467Q20.3096-74.4901 25.1134-74.4901L121.843-74.4901Q126.647-74.4901 126.647-69.6467L126.647-13.9517Q126.647-9.15924 121.843-9.15924ZM48.9478 15.227L98.0203 15.227Q99.6625 15.227 100.806 14.0633Q101.95 12.8996 101.95 11.3083Q101.95 9.61509 100.806 8.47687Q99.6625 7.33865 98.0203 7.33865L48.9478 7.33865Q47.3056 7.33865 46.1617 8.47687Q45.0178 9.61509 45.0178 11.3083Q45.0178 12.8996 46.1617 14.0633Q47.3056 15.227 48.9478 15.227ZM57.6132-21.6434Q57.6132-19.6499 59.2811-19.024Q60.949-18.3982 62.5518-19.2874L96.4006-39.2533Q97.8901-40.1539 97.8646-41.8558Q97.8392-43.5578 96.3496-44.396L62.5518-64.3619Q60.949-65.2511 59.2811-64.5998Q57.6132-63.9485 57.6132-62.0059Z"/>
  </g>
  <g id="Light-M" transform="matrix(1 0 0 1 1081.22 1126)">
   <path d="M23.8849-1.62333L119.937-1.62333Q125.584-1.62333 128.472-4.51187Q131.361-7.40042 131.361-13.0175L131.361-69.2561Q131.361-74.9058 128.472-77.8092Q125.584-80.7126 119.937-80.7126L23.8849-80.7126Q18.238-80.7126 15.3495-77.8092Q12.4609-74.9058 12.4609-69.2561L12.4609-13.0175Q12.4609-7.40042 15.3495-4.51187Q18.238-1.62333 23.8849-1.62333ZM24.0095-7.65052Q18.4881-7.65052 18.4881-13.1421L18.4881-69.1315Q18.4881-74.6557 24.0095-74.6557L119.783-74.6557Q125.304-74.6557 125.304-69.1315L125.304-13.1421Q125.304-7.65052 119.783-7.65052ZM47.8991 13.2399L95.9228 13.2399Q97.1971 13.2399 98.0742 12.3613Q98.9513 11.4828 98.9513 10.2411Q98.9513 8.93432 98.0742 8.07209Q97.1971 7.20986 95.9228 7.20986L47.8991 7.20986Q46.6249 7.20986 45.7477 8.07209Q44.8706 8.93432 44.8706 10.2411Q44.8706 11.4828 45.7477 12.3613Q46.6249 13.2399 47.8991 13.2399ZM55.8653-20.7787Q55.8653-18.9875 57.3584-18.4077Q58.8515-17.8278 60.3255-18.6434L94.5055-38.7566Q95.8846-39.6019 95.8683-41.1843Q95.8521-42.7666 94.4729-43.5496L60.3255-63.6628Q58.8515-64.4784 57.3584-63.8823Q55.8653-63.2861 55.8653-61.5275Z"/>
  </g>
  <g id="Thin-M" transform="matrix(1 0 0 1 786.595 1126)">
   <path d="M22.4248-2.03701L117.236-2.03701Q122.201-2.03701 124.701-4.53621Q127.2-7.03541 127.2-11.9468L127.2-68.5748Q127.2-73.4944 124.701-76.0206Q122.201-78.5469 117.236-78.5469L22.4248-78.5469Q17.4593-78.5469 14.9601-76.0206Q12.4609-73.4944 12.4609-68.5748L12.4609-11.9468Q12.4609-7.03541 14.9601-4.53621Q17.4593-2.03701 22.4248-2.03701ZM22.5494-5.65512Q16.079-5.65512 16.079-12.0714L16.079-68.4502Q16.079-74.8747 22.5494-74.8747L117.057-74.8747Q123.528-74.8747 123.528-68.4502L123.528-12.0714Q123.528-5.65512 117.057-5.65512ZM46.5121 10.6118L93.1487 10.6118Q93.9363 10.6118 94.4606 10.1104Q94.9848 9.6091 94.9848 8.82976Q94.9848 8.03396 94.4606 7.53674Q93.9363 7.03952 93.1487 7.03952L46.5121 7.03952Q45.7245 7.03952 45.2002 7.53674Q44.676 8.03396 44.676 8.82976Q44.676 9.6091 45.2002 10.1104Q45.7245 10.6118 46.5121 10.6118ZM53.5536-19.635Q53.5536-18.1115 54.8155-17.5925Q56.0774-17.0735 57.3811-17.7917L91.9991-38.0995Q93.2322-38.8719 93.2281-40.2961Q93.224-41.7202 91.9908-42.4303L57.3811-62.7381Q56.0774-63.4563 54.8155-62.9332Q53.5536-62.4101 53.5536-60.8948Z"/>
  </g>
  <g id="Ultralight-M" transform="matrix(1 0 0 1 490.95 1126)">
   <path d="M21.677-2.24889L115.852-2.24889Q120.469-2.24889 122.769-4.54867Q125.069-6.84845 125.069-11.3984L125.069-68.2258Q125.069-72.7715 122.769-75.1046Q120.469-77.4376 115.852-77.4376L21.677-77.4376Q17.0605-77.4376 14.7607-75.1046Q12.4609-72.7715 12.4609-68.2258L12.4609-11.3984Q12.4609-6.84845 14.7607-4.54867Q17.0605-2.24889 21.677-2.24889ZM21.8016-4.63308Q14.8451-4.63308 14.8451-11.523L14.8451-68.1012Q14.8451-74.9869 21.8016-74.9869L115.661-74.9869Q122.618-74.9869 122.618-68.1012L122.618-11.523Q122.618-4.63308 115.661-4.63308ZM45.8016 9.26568L91.7278 9.26568Q92.2661 9.26568 92.6097 8.95753Q92.9532 8.64939 92.9532 8.10686Q92.9532 7.5728 92.6097 7.26253Q92.2661 6.95227 91.7278 6.95227L45.8016 6.95227Q45.2633 6.95227 44.9198 7.26253Q44.5763 7.5728 44.5763 8.10686Q44.5763 8.64939 44.9198 8.95753Q45.2633 9.26568 45.8016 9.26568ZM52.3695-19.0492Q52.3695-17.6628 53.513-17.1749Q54.6566-16.6871 55.873-17.3555L90.7153-37.763Q91.8736-38.498 91.8758-39.8411Q91.8779-41.1843 90.7195-41.8569L55.873-62.2645Q54.6566-62.9329 53.513-62.4471Q52.3695-61.9614 52.3695-60.5708Z"/>
  </g>
  <g id="Black-S" transform="matrix(1 0 0 1 2870.9 696)">
   <path d="M23.877-4.83398L101.123-4.83398Q107.812-4.83398 111.523-8.56934Q115.234-12.3047 115.234-18.9453L115.234-64.3066Q115.234-70.9961 111.523-74.707Q107.812-78.418 101.123-78.418L23.877-78.418Q17.2363-78.418 13.501-74.707Q9.76562-70.9961 9.76562-64.3066L9.76562-18.9453Q9.76562-12.3047 13.501-8.56934Q17.2363-4.83398 23.877-4.83398ZM25.9277-17.9199Q22.8516-17.9199 22.8516-20.9961L22.8516-62.2559Q22.8516-65.332 25.9277-65.332L99.0723-65.332Q102.148-65.332 102.148-62.2559L102.148-20.9961Q102.148-17.9199 99.0723-17.9199ZM41.3086 10.5469L83.6914 10.5469Q85.9375 10.5469 87.4756 8.93555Q89.0137 7.32422 89.0137 5.27344Q89.0137 3.22266 87.4756 1.61133Q85.9375 0 83.6914 0L41.3086 0Q39.0625 0 37.5244 1.61133Q35.9863 3.22266 35.9863 5.27344Q35.9863 7.32422 37.5244 8.93555Q39.0625 10.5469 41.3086 10.5469ZM48.8281-26.3672Q48.8281-24.707 50.415-23.9258Q52.002-23.1445 53.5645-24.0723L79.541-38.9648Q81.1035-39.8438 81.0791-41.5771Q81.0547-43.3105 79.541-44.1895L53.5645-59.2285Q52.002-60.1562 50.415-59.3506Q48.8281-58.5449 48.8281-56.7871Z"/>
  </g>
  <g id="Heavy-S" transform="matrix(1 0 0 1 2575.17 696)">
   <path d="M22.9896-5.69832L100.051-5.69832Q106.36-5.69832 109.818-9.17437Q113.275-12.6504 113.275-18.9223L113.275-63.8918Q113.275-70.2124 109.818-73.6698Q106.36-77.1272 100.051-77.1272L22.9896-77.1272Q16.7177-77.1272 13.2417-73.6698Q9.76562-70.2124 9.76562-63.8918L9.76562-18.9223Q9.76562-12.6504 13.2417-9.17437Q16.7177-5.69832 22.9896-5.69832ZM24.5794-17.3552Q21.4225-17.3552 21.4225-20.5121L21.4225-62.302Q21.4225-65.4703 24.5794-65.4703L98.4615-65.4703Q101.618-65.4703 101.618-62.302L101.618-20.5121Q101.618-17.3552 98.4615-17.3552ZM40.7324 9.30223L82.3085 9.30223Q84.3702 9.30223 85.7873 7.82344Q87.2043 6.34464 87.2043 4.44368Q87.2043 2.51966 85.7873 1.04663Q84.3702-0.426405 82.3085-0.426405L40.7324-0.426405Q38.6707-0.426405 37.2536 1.04663Q35.8365 2.51966 35.8365 4.44368Q35.8365 6.34464 37.2536 7.82344Q38.6707 9.30223 40.7324 9.30223ZM48.1597-26.0445Q48.1597-24.3843 49.7005-23.6665Q51.2413-22.9486 52.7462-23.8303L78.815-38.8842Q80.2968-39.7285 80.2724-41.3812Q80.248-43.034 78.8034-43.8668L52.7462-59.0326Q51.2413-59.9142 49.7005-59.172Q48.1597-58.4297 48.1597-56.7064Z"/>
  </g>
  <g id="Bold-S" transform="matrix(1 0 0 1 2279.55 696)">
   <path d="M21.9971-6.66504L98.8525-6.66504Q104.736-6.66504 107.91-9.85107Q111.084-13.0371 111.084-18.8965L111.084-63.4277Q111.084-69.3359 107.91-72.5098Q104.736-75.6836 98.8525-75.6836L21.9971-75.6836Q16.1377-75.6836 12.9517-72.5098Q9.76562-69.3359 9.76562-63.4277L9.76562-18.8965Q9.76562-13.0371 12.9517-9.85107Q16.1377-6.66504 21.9971-6.66504ZM23.0713-16.7236Q19.8242-16.7236 19.8242-19.9707L19.8242-62.3535Q19.8242-65.625 23.0713-65.625L97.7783-65.625Q101.025-65.625 101.025-62.3535L101.025-19.9707Q101.025-16.7236 97.7783-16.7236ZM40.0879 7.91016L80.7617 7.91016Q82.6172 7.91016 83.8989 6.57959Q85.1807 5.24902 85.1807 3.51562Q85.1807 1.7334 83.8989 0.415039Q82.6172-0.90332 80.7617-0.90332L40.0879-0.90332Q38.2324-0.90332 36.9507 0.415039Q35.6689 1.7334 35.6689 3.51562Q35.6689 5.24902 36.9507 6.57959Q38.2324 7.91016 40.0879 7.91016ZM47.4121-25.6836Q47.4121-24.0234 48.9014-23.3765Q50.3906-22.7295 51.8311-23.5596L78.0029-38.7939Q79.3945-39.5996 79.3701-41.1621Q79.3457-42.7246 77.9785-43.5059L51.8311-58.8135Q50.3906-59.6436 48.9014-58.9722Q47.4121-58.3008 47.4121-56.6162Z"/>
  </g>
  <g id="Semibold-S" transform="matrix(1 0 0 1 1983.6 696)">
   <path d="M21.3128-7.33154L98.0261-7.33154Q103.617-7.33154 106.595-10.3176Q109.573-13.3037 109.573-18.8787L109.573-63.1078Q109.573-68.7316 106.595-71.71Q103.617-74.6883 98.0261-74.6883L21.3128-74.6883Q15.7378-74.6883 12.7517-71.71Q9.76562-68.7316 9.76562-63.1078L9.76562-18.8787Q9.76562-13.3037 12.7517-10.3176Q15.7378-7.33154 21.3128-7.33154ZM22.0315-16.2882Q18.7223-16.2882 18.7223-19.5975L18.7223-62.3891Q18.7223-65.7316 22.0315-65.7316L97.3073-65.7316Q100.617-65.7316 100.617-62.3891L100.617-19.5975Q100.617-16.2882 97.3073-16.2882ZM39.6436 6.95039L79.6953 6.95039Q81.4086 6.95039 82.597 5.72202Q83.7854 4.49365 83.7854 2.87578Q83.7854 1.19131 82.597-0.0204102Q81.4086-1.23213 79.6953-1.23213L39.6436-1.23213Q37.9303-1.23213 36.7418-0.0204102Q35.5534 1.19131 35.5534 2.87578Q35.5534 4.49365 36.7418 5.72202Q37.9303 6.95039 39.6436 6.95039ZM46.8967-25.4348Q46.8967-23.7746 48.3504-23.1765Q49.8041-22.5784 51.2001-23.3729L77.4431-38.7317Q78.7725-39.5107 78.748-41.011Q78.7236-42.5113 77.4098-43.257L51.2001-58.6624Q49.8041-59.4569 48.3504-58.8344Q46.8967-58.2119 46.8967-56.554Z"/>
  </g>
  <g id="Medium-S" transform="matrix(1 0 0 1 1687.46 696)">
   <path d="M20.7939-7.83691L97.3994-7.83691Q102.768-7.83691 105.598-10.6714Q108.428-13.5059 108.428-18.8652L108.428-62.8652Q108.428-68.2734 105.598-71.1035Q102.768-73.9336 97.3994-73.9336L20.7939-73.9336Q15.4346-73.9336 12.6001-71.1035Q9.76562-68.2734 9.76562-62.8652L9.76562-18.8652Q9.76562-13.5059 12.6001-10.6714Q15.4346-7.83691 20.7939-7.83691ZM21.2432-15.958Q17.8867-15.958 17.8867-19.3145L17.8867-62.416Q17.8867-65.8125 21.2432-65.8125L96.9502-65.8125Q100.307-65.8125 100.307-62.416L100.307-19.3145Q100.307-15.958 96.9502-15.958ZM39.3066 6.22266L78.8867 6.22266Q80.4922 6.22266 81.6099 5.07178Q82.7275 3.9209 82.7275 2.39062Q82.7275 0.780273 81.6099-0.350586Q80.4922-1.48145 78.8867-1.48145L39.3066-1.48145Q37.7012-1.48145 36.5835-0.350586Q35.4658 0.780273 35.4658 2.39062Q35.4658 3.9209 36.5835 5.07178Q37.7012 6.22266 39.3066 6.22266ZM46.5059-25.2461Q46.5059-23.5859 47.9326-23.0249Q49.3594-22.4639 50.7217-23.2314L77.0186-38.6846Q78.3008-39.4434 78.2764-40.8965Q78.252-42.3496 76.9785-43.0684L50.7217-58.5479Q49.3594-59.3154 47.9326-58.73Q46.5059-58.1445 46.5059-56.5068Z"/>
  </g>
  <g id="Regular-S" transform="matrix(1 0 0 1 1391.49 696)">
   <path d="M20.1172-8.49609L96.582-8.49609Q101.66-8.49609 104.297-11.1328Q106.934-13.7695 106.934-18.8477L106.934-62.5488Q106.934-67.6758 104.297-70.3125Q101.66-72.9492 96.582-72.9492L20.1172-72.9492Q15.0391-72.9492 12.4023-70.3125Q9.76562-67.6758 9.76562-62.5488L9.76562-18.8477Q9.76562-13.7695 12.4023-11.1328Q15.0391-8.49609 20.1172-8.49609ZM20.2148-15.5273Q16.7969-15.5273 16.7969-18.9453L16.7969-62.4512Q16.7969-65.918 20.2148-65.918L96.4844-65.918Q99.9023-65.918 99.9023-62.4512L99.9023-18.9453Q99.9023-15.5273 96.4844-15.5273ZM38.8672 5.27344L77.832 5.27344Q79.2969 5.27344 80.3223 4.22363Q81.3477 3.17383 81.3477 1.75781Q81.3477 0.244141 80.3223-0.78125Q79.2969-1.80664 77.832-1.80664L38.8672-1.80664Q37.4023-1.80664 36.377-0.78125Q35.3516 0.244141 35.3516 1.75781Q35.3516 3.17383 36.377 4.22363Q37.4023 5.27344 38.8672 5.27344ZM45.9961-25Q45.9961-23.3398 47.3877-22.8271Q48.7793-22.3145 50.0977-23.0469L76.4648-38.623Q77.6855-39.3555 77.6611-40.7471Q77.6367-42.1387 76.416-42.8223L50.0977-58.3984Q48.7793-59.1309 47.3877-58.5938Q45.9961-58.0566 45.9961-56.4453Z"/>
  </g>
  <g id="Light-S" transform="matrix(1 0 0 1 1096.18 696)">
   <path d="M19.1406-8.77279L94.7754-8.77279Q99.3978-8.77279 101.774-11.1491Q104.15-13.5254 104.15-18.1315L104.15-62.0931Q104.15-66.7318 101.774-69.1162Q99.3978-71.5007 94.7754-71.5007L19.1406-71.5007Q14.5182-71.5007 12.1419-69.1162Q9.76562-66.7318 9.76562-62.0931L9.76562-18.1315Q9.76562-13.5254 12.1419-11.1491Q14.5182-8.77279 19.1406-8.77279ZM19.2383-14.1927Q15.1855-14.1927 15.1855-18.2292L15.1855-61.9954Q15.1855-66.0645 19.2383-66.0645L94.6615-66.0645Q98.7142-66.0645 98.7142-61.9954L98.7142-18.2292Q98.7142-14.1927 94.6615-14.1927ZM37.9395 3.51562L75.9766 3.51562Q77.1159 3.51562 77.9053 2.7181Q78.6947 1.92057 78.6947 0.813802Q78.6947-0.358073 77.9053-1.13932Q77.1159-1.92057 75.9766-1.92057L37.9395-1.92057Q36.8001-1.92057 36.0107-1.13932Q35.2214-0.358073 35.2214 0.813802Q35.2214 1.92057 36.0107 2.7181Q36.8001 3.51562 37.9395 3.51562ZM44.4499-24.235Q44.4499-22.7539 45.6868-22.2819Q46.9238-21.8099 48.1283-22.4772L74.7884-38.1836Q75.9115-38.8672 75.8952-40.153Q75.8789-41.4388 74.7559-42.0736L48.1283-57.7799Q46.9238-58.4473 45.6868-57.959Q44.4499-57.4707 44.4499-56.0221Z"/>
  </g>
  <g id="Thin-S" transform="matrix(1 0 0 1 801.307 696)">
   <path d="M17.849-9.13873L92.386-9.13873Q96.4056-9.13873 98.4375-11.1706Q100.469-13.2025 100.469-17.1843L100.469-61.4904Q100.469-65.4832 98.4375-67.534Q96.4056-69.5848 92.386-69.5848L17.849-69.5848Q13.8294-69.5848 11.7975-67.534Q9.76562-65.4832 9.76562-61.4904L9.76562-17.1843Q9.76562-13.2025 11.7975-11.1706Q13.8294-9.13873 17.849-9.13873ZM17.9467-12.4275Q13.0544-12.4275 13.0544-17.282L13.0544-61.3927Q13.0544-66.2582 17.9467-66.2582L92.2505-66.2582Q97.1428-66.2582 97.1428-61.3927L97.1428-17.282Q97.1428-12.4275 92.2505-12.4275ZM36.7124 1.19078L73.5226 1.19078Q74.2314 1.19078 74.7086 0.726909Q75.1859 0.263042 75.1859-0.434728Q75.1859-1.15455 74.7086-1.6129Q74.2314-2.07126 73.5226-2.07126L36.7124-2.07126Q36.0037-2.07126 35.5264-1.6129Q35.0491-1.15455 35.0491-0.434728Q35.0491 0.263042 35.5264 0.726909Q36.0037 1.19078 36.7124 1.19078ZM42.4049-23.2233Q42.4049-21.979 43.4373-21.5608Q44.4698-21.1426 45.5236-21.7238L72.5712-37.6024Q73.5651-38.2214 73.5596-39.3673Q73.5541-40.5132 72.5602-41.0834L45.5236-56.9619Q44.4698-57.5432 43.4373-57.1195Q42.4049-56.6958 42.4049-55.4624Z"/>
  </g>
  <g id="Ultralight-S" transform="matrix(1 0 0 1 505.539 696)">
   <path d="M17.1875-9.32617L91.1621-9.32617Q94.873-9.32617 96.7285-11.1816Q98.584-13.0371 98.584-16.6992L98.584-61.1816Q98.584-64.8438 96.7285-66.7236Q94.873-68.6035 91.1621-68.6035L17.1875-68.6035Q13.4766-68.6035 11.6211-66.7236Q9.76562-64.8438 9.76562-61.1816L9.76562-16.6992Q9.76562-13.0371 11.6211-11.1816Q13.4766-9.32617 17.1875-9.32617ZM17.2852-11.5234Q11.9629-11.5234 11.9629-16.7969L11.9629-61.084Q11.9629-66.3574 17.2852-66.3574L91.0156-66.3574Q96.3379-66.3574 96.3379-61.084L96.3379-16.7969Q96.3379-11.5234 91.0156-11.5234ZM36.084 0L72.2656 0Q72.7539 0 73.0713-0.292969Q73.3887-0.585938 73.3887-1.07422Q73.3887-1.5625 73.0713-1.85547Q72.7539-2.14844 72.2656-2.14844L36.084-2.14844Q35.5957-2.14844 35.2783-1.85547Q34.9609-1.5625 34.9609-1.07422Q34.9609-0.585938 35.2783-0.292969Q35.5957 0 36.084 0ZM41.3574-22.7051Q41.3574-21.582 42.2852-21.1914Q43.2129-20.8008 44.1895-21.3379L71.4355-37.3047Q72.3633-37.8906 72.3633-38.9648Q72.3633-40.0391 71.4355-40.5762L44.1895-56.543Q43.2129-57.0801 42.2852-56.6895Q41.3574-56.2988 41.3574-55.1758Z"/>
  </g>
 </g>
</svg>
