<?xml version="1.0" encoding="UTF-8"?>
<!--Generator: Apple Native CoreSVG 175-->
<!DOCTYPE svg
PUBLIC "-//W3C//DTD SVG 1.1//EN"
       "http://www.w3.org/Graphics/SVG/1.1/DTD/svg11.dtd">
<svg version="1.1" xmlns="http://www.w3.org/2000/svg" xmlns:xlink="http://www.w3.org/1999/xlink" width="3300" height="2200">
 <!--glyph: "uni100369.medium", point size: 100.0, font version: "17.1d1e1", template writer version: "65.1"-->
 <g id="Notes">
  <rect height="2200" id="artboard" style="fill:white;opacity:1" width="3300" x="0" y="0"/>
  <line style="fill:none;stroke:black;opacity:1;stroke-width:0.5;" x1="263" x2="3036" y1="292" y2="292"/>
  <text style="stroke:none;fill:black;font-family:sans-serif;font-size:13;font-weight:bold;" transform="matrix(1 0 0 1 263 322)">Weight/Scale Variations</text>
  <text style="stroke:none;fill:black;font-family:sans-serif;font-size:13;text-anchor:middle;" transform="matrix(1 0 0 1 559.711 322)">Ultralight</text>
  <text style="stroke:none;fill:black;font-family:sans-serif;font-size:13;text-anchor:middle;" transform="matrix(1 0 0 1 856.422 322)">Thin</text>
  <text style="stroke:none;fill:black;font-family:sans-serif;font-size:13;text-anchor:middle;" transform="matrix(1 0 0 1 1153.13 322)">Light</text>
  <text style="stroke:none;fill:black;font-family:sans-serif;font-size:13;text-anchor:middle;" transform="matrix(1 0 0 1 1449.84 322)">Regular</text>
  <text style="stroke:none;fill:black;font-family:sans-serif;font-size:13;text-anchor:middle;" transform="matrix(1 0 0 1 1746.56 322)">Medium</text>
  <text style="stroke:none;fill:black;font-family:sans-serif;font-size:13;text-anchor:middle;" transform="matrix(1 0 0 1 2043.27 322)">Semibold</text>
  <text style="stroke:none;fill:black;font-family:sans-serif;font-size:13;text-anchor:middle;" transform="matrix(1 0 0 1 2339.98 322)">Bold</text>
  <text style="stroke:none;fill:black;font-family:sans-serif;font-size:13;text-anchor:middle;" transform="matrix(1 0 0 1 2636.69 322)">Heavy</text>
  <text style="stroke:none;fill:black;font-family:sans-serif;font-size:13;text-anchor:middle;" transform="matrix(1 0 0 1 2933.4 322)">Black</text>
  <line style="fill:none;stroke:black;opacity:1;stroke-width:0.5;" x1="263" x2="3036" y1="1903" y2="1903"/>
  <g transform="matrix(1 0 0 1 263 1933)">
   <path d="M9.24805 0.830078Q10.8691 0.830078 12.2949 0.214844Q13.7207-0.400391 14.8096-1.49414Q15.8984-2.58789 16.5186-4.01367Q17.1387-5.43945 17.1387-7.05078Q17.1387-8.66211 16.5186-10.0879Q15.8984-11.5137 14.8047-12.6074Q13.7109-13.7012 12.2852-14.3164Q10.8594-14.9316 9.23828-14.9316Q7.62695-14.9316 6.20117-14.3164Q4.77539-13.7012 3.69141-12.6074Q2.60742-11.5137 1.9873-10.0879Q1.36719-8.66211 1.36719-7.05078Q1.36719-5.43945 1.9873-4.01367Q2.60742-2.58789 3.69629-1.49414Q4.78516-0.400391 6.21094 0.214844Q7.63672 0.830078 9.24805 0.830078ZM9.24805-0.654297Q7.91992-0.654297 6.7627-1.14746Q5.60547-1.64062 4.73145-2.51953Q3.85742-3.39844 3.36426-4.56055Q2.87109-5.72266 2.87109-7.05078Q2.87109-8.37891 3.35938-9.54102Q3.84766-10.7031 4.72168-11.582Q5.5957-12.4609 6.75293-12.9541Q7.91016-13.4473 9.23828-13.4473Q10.5762-13.4473 11.7334-12.9541Q12.8906-12.4609 13.7695-11.582Q14.6484-10.7031 15.1465-9.54102Q15.6445-8.37891 15.6445-7.05078Q15.6445-5.72266 15.1514-4.56055Q14.6582-3.39844 13.7842-2.51953Q12.9102-1.64062 11.748-1.14746Q10.5859-0.654297 9.24805-0.654297ZM5.6543-7.05078Q5.6543-6.72852 5.85938-6.52832Q6.06445-6.32812 6.40625-6.32812L8.51562-6.32812L8.51562-4.20898Q8.51562-3.88672 8.71094-3.67676Q8.90625-3.4668 9.23828-3.4668Q9.56055-3.4668 9.77051-3.67676Q9.98047-3.88672 9.98047-4.20898L9.98047-6.32812L12.0898-6.32812Q12.4219-6.32812 12.627-6.52832Q12.832-6.72852 12.832-7.05078Q12.832-7.38281 12.627-7.58789Q12.4219-7.79297 12.0898-7.79297L9.98047-7.79297L9.98047-9.90234Q9.98047-10.2344 9.77051-10.4443Q9.56055-10.6543 9.23828-10.6543Q8.90625-10.6543 8.71094-10.4443Q8.51562-10.2344 8.51562-9.90234L8.51562-7.79297L6.40625-7.79297Q6.06445-7.79297 5.85938-7.58789Q5.6543-7.38281 5.6543-7.05078Z"/>
  </g>
  <g transform="matrix(1 0 0 1 281.867 1933)">
   <path d="M11.709 2.91016Q13.75 2.91016 15.5518 2.12891Q17.3535 1.34766 18.7305-0.0292969Q20.1074-1.40625 20.8887-3.20801Q21.6699-5.00977 21.6699-7.05078Q21.6699-9.0918 20.8887-10.8936Q20.1074-12.6953 18.7305-14.0723Q17.3535-15.4492 15.5469-16.2305Q13.7402-17.0117 11.6992-17.0117Q9.6582-17.0117 7.85645-16.2305Q6.05469-15.4492 4.68262-14.0723Q3.31055-12.6953 2.5293-10.8936Q1.74805-9.0918 1.74805-7.05078Q1.74805-5.00977 2.5293-3.20801Q3.31055-1.40625 4.6875-0.0292969Q6.06445 1.34766 7.86621 2.12891Q9.66797 2.91016 11.709 2.91016ZM11.709 1.25Q9.98047 1.25 8.47656 0.605469Q6.97266-0.0390625 5.83496-1.17676Q4.69727-2.31445 4.05762-3.81836Q3.41797-5.32227 3.41797-7.05078Q3.41797-8.7793 4.05762-10.2832Q4.69727-11.7871 5.83008-12.9297Q6.96289-14.0723 8.4668-14.7119Q9.9707-15.3516 11.6992-15.3516Q13.4277-15.3516 14.9316-14.7119Q16.4355-14.0723 17.5781-12.9297Q18.7207-11.7871 19.3652-10.2832Q20.0098-8.7793 20.0098-7.05078Q20.0098-5.32227 19.3701-3.81836Q18.7305-2.31445 17.5928-1.17676Q16.4551-0.0390625 14.9463 0.605469Q13.4375 1.25 11.709 1.25ZM7.17773-7.05078Q7.17773-6.69922 7.41211-6.47461Q7.64648-6.25 8.01758-6.25L10.8887-6.25L10.8887-3.36914Q10.8887-2.99805 11.1133-2.76855Q11.3379-2.53906 11.6895-2.53906Q12.0605-2.53906 12.29-2.76855Q12.5195-2.99805 12.5195-3.36914L12.5195-6.25L15.4004-6.25Q15.7715-6.25 16.001-6.47461Q16.2305-6.69922 16.2305-7.05078Q16.2305-7.42188 16.001-7.65137Q15.7715-7.88086 15.4004-7.88086L12.5195-7.88086L12.5195-10.752Q12.5195-11.1328 12.29-11.3623Q12.0605-11.5918 11.6895-11.5918Q11.3379-11.5918 11.1133-11.3574Q10.8887-11.123 10.8887-10.752L10.8887-7.88086L8.01758-7.88086Q7.63672-7.88086 7.40723-7.65137Q7.17773-7.42188 7.17773-7.05078Z"/>
  </g>
  <g transform="matrix(1 0 0 1 305.646 1933)">
   <path d="M14.9707 5.66406Q17.0605 5.66406 18.96 5.01465Q20.8594 4.36523 22.4512 3.19336Q24.043 2.02148 25.2197 0.429688Q26.3965-1.16211 27.0459-3.06641Q27.6953-4.9707 27.6953-7.05078Q27.6953-9.14062 27.0459-11.04Q26.3965-12.9395 25.2197-14.5312Q24.043-16.123 22.4512-17.2998Q20.8594-18.4766 18.9551-19.126Q17.0508-19.7754 14.9609-19.7754Q12.8711-19.7754 10.9717-19.126Q9.07227-18.4766 7.48535-17.2998Q5.89844-16.123 4.72168-14.5312Q3.54492-12.9395 2.90039-11.04Q2.25586-9.14062 2.25586-7.05078Q2.25586-4.9707 2.90527-3.06641Q3.55469-1.16211 4.72656 0.429688Q5.89844 2.02148 7.49023 3.19336Q9.08203 4.36523 10.9814 5.01465Q12.8809 5.66406 14.9707 5.66406ZM14.9707 3.84766Q13.1641 3.84766 11.5283 3.2959Q9.89258 2.74414 8.53516 1.74805Q7.17773 0.751953 6.17676-0.610352Q5.17578-1.97266 4.62891-3.6084Q4.08203-5.24414 4.08203-7.05078Q4.08203-8.86719 4.62891-10.5029Q5.17578-12.1387 6.17188-13.501Q7.16797-14.8633 8.52539-15.8594Q9.88281-16.8555 11.5186-17.4023Q13.1543-17.9492 14.9609-17.9492Q16.7773-17.9492 18.4131-17.4023Q20.0488-16.8555 21.4111-15.8594Q22.7734-14.8633 23.7695-13.501Q24.7656-12.1387 25.3174-10.5029Q25.8691-8.86719 25.8691-7.05078Q25.8789-5.24414 25.332-3.6084Q24.7852-1.97266 23.7842-0.610352Q22.7832 0.751953 21.4209 1.74805Q20.0586 2.74414 18.4229 3.2959Q16.7871 3.84766 14.9707 3.84766ZM9.19922-7.05078Q9.19922-6.66992 9.45801-6.4209Q9.7168-6.17188 10.1172-6.17188L14.0625-6.17188L14.0625-2.2168Q14.0625-1.81641 14.3115-1.55762Q14.5605-1.29883 14.9512-1.29883Q15.3516-1.29883 15.6104-1.55273Q15.8691-1.80664 15.8691-2.2168L15.8691-6.17188L19.8242-6.17188Q20.2246-6.17188 20.4785-6.4209Q20.7324-6.66992 20.7324-7.05078Q20.7324-7.46094 20.4785-7.71484Q20.2246-7.96875 19.8242-7.96875L15.8691-7.96875L15.8691-11.9141Q15.8691-12.3242 15.6104-12.583Q15.3516-12.8418 14.9512-12.8418Q14.5605-12.8418 14.3115-12.583Q14.0625-12.3242 14.0625-11.9141L14.0625-7.96875L10.1172-7.96875Q9.70703-7.96875 9.45312-7.71484Q9.19922-7.46094 9.19922-7.05078Z"/>
  </g>
  <text style="stroke:none;fill:black;font-family:sans-serif;font-size:13;font-weight:bold;" transform="matrix(1 0 0 1 263 1953)">Design Variations</text>
  <text style="stroke:none;fill:black;font-family:sans-serif;font-size:13;" transform="matrix(1 0 0 1 263 1971)">Symbols are supported in up to nine weights and three scales.</text>
  <text style="stroke:none;fill:black;font-family:sans-serif;font-size:13;" transform="matrix(1 0 0 1 263 1989)">For optimal layout with text and other symbols, vertically align</text>
  <text style="stroke:none;fill:black;font-family:sans-serif;font-size:13;" transform="matrix(1 0 0 1 263 2007)">symbols with the adjacent text.</text>
  <line style="fill:none;stroke:#00AEEF;stroke-width:0.5;opacity:1.0;" x1="776" x2="776" y1="1919" y2="1933"/>
  <g transform="matrix(1 0 0 1 776 1933)">
   <path d="M3.31055 0.15625Q3.70117 0.15625 3.91602-0.00976562Q4.13086-0.175781 4.26758-0.585938L5.52734-4.0332L11.2891-4.0332L12.5488-0.585938Q12.6855-0.175781 12.9004-0.00976562Q13.1152 0.15625 13.4961 0.15625Q13.8867 0.15625 14.1162-0.0585938Q14.3457-0.273438 14.3457-0.644531Q14.3457-0.869141 14.2383-1.17188L9.6582-13.3691Q9.48242-13.8184 9.17969-14.043Q8.87695-14.2676 8.4082-14.2676Q7.5-14.2676 7.17773-13.3789L2.59766-1.16211Q2.49023-0.859375 2.49023-0.634766Q2.49023-0.263672 2.70996-0.0537109Q2.92969 0.15625 3.31055 0.15625ZM6.00586-5.51758L8.37891-12.0898L8.42773-12.0898L10.8008-5.51758Z"/>
  </g>
  <line style="fill:none;stroke:#00AEEF;stroke-width:0.5;opacity:1.0;" x1="793.197" x2="793.197" y1="1919" y2="1933"/>
  <text style="stroke:none;fill:black;font-family:sans-serif;font-size:13;font-weight:bold;" transform="matrix(1 0 0 1 776 1953)">Margins</text>
  <text style="stroke:none;fill:black;font-family:sans-serif;font-size:13;" transform="matrix(1 0 0 1 776 1971)">Leading and trailing margins on the left and right side of each symbol</text>
  <text style="stroke:none;fill:black;font-family:sans-serif;font-size:13;" transform="matrix(1 0 0 1 776 1989)">can be adjusted by modifying the x-location of the margin guidelines.</text>
  <text style="stroke:none;fill:black;font-family:sans-serif;font-size:13;" transform="matrix(1 0 0 1 776 2007)">Modifications are automatically applied proportionally to all</text>
  <text style="stroke:none;fill:black;font-family:sans-serif;font-size:13;" transform="matrix(1 0 0 1 776 2025)">scales and weights.</text>
  <g transform="matrix(1 0 0 1 1289 1933)">
   <path d="M2.8418 1.86523L4.54102 3.57422Q5.18555 4.22852 5.90332 4.17969Q6.62109 4.13086 7.31445 3.35938L18.0078-8.42773L17.041-9.4043L6.42578 2.27539Q6.16211 2.57812 5.89355 2.61719Q5.625 2.65625 5.27344 2.30469L4.10156 1.14258Q3.75 0.791016 3.79395 0.522461Q3.83789 0.253906 4.14062-0.0195312L15.6152-10.8203L14.6387-11.7871L3.04688-0.898438Q2.30469-0.214844 2.25098 0.498047Q2.19727 1.21094 2.8418 1.86523ZM9.25781-16.3281Q8.94531-16.0254 8.90625-15.6348Q8.86719-15.2441 9.04297-14.9512Q9.21875-14.6777 9.55566-14.541Q9.89258-14.4043 10.3809-14.5215Q11.4746-14.7754 12.5977-14.7314Q13.7207-14.6875 14.7949-13.9844L14.209-12.5293Q13.9551-11.9043 14.0674-11.4404Q14.1797-10.9766 14.5801-10.5664L16.875-8.25195Q17.2363-7.88086 17.5781-7.82227Q17.9199-7.76367 18.3398-7.8418L19.4043-8.03711L20.0684-7.36328L20.0293-6.80664Q20-6.43555 20.1221-6.12305Q20.2441-5.81055 20.6055-5.44922L21.3672-4.70703Q21.7285-4.3457 22.1533-4.33105Q22.5781-4.31641 22.9297-4.66797L25.8398-7.58789Q26.1914-7.93945 26.1816-8.35449Q26.1719-8.76953 25.8105-9.13086L25.0391-9.89258Q24.6875-10.2539 24.3799-10.3857Q24.0723-10.5176 23.7109-10.4883L23.1348-10.4395L22.4902-11.0742L22.7344-12.1973Q22.832-12.6172 22.6953-12.9834Q22.5586-13.3496 22.1191-13.7891L19.9219-15.9766Q18.6719-17.2168 17.2607-17.8369Q15.8496-18.457 14.4189-18.4814Q12.9883-18.5059 11.665-17.959Q10.3418-17.4121 9.25781-16.3281ZM10.752-15.957Q11.6602-16.6211 12.7002-16.9043Q13.7402-17.1875 14.8047-17.085Q15.8691-16.9824 16.8701-16.5137Q17.8711-16.0449 18.7012-15.2051L21.1328-12.793Q21.3086-12.6172 21.3525-12.4512Q21.3965-12.2852 21.3379-12.0312L21.0156-10.5469L22.5195-9.0625L23.5059-9.12109Q23.6914-9.13086 23.7891-9.09668Q23.8867-9.0625 24.0332-8.91602L24.6094-8.33984L22.168-5.89844L21.5918-6.47461Q21.4453-6.62109 21.4062-6.71875Q21.3672-6.81641 21.377-7.01172L21.4453-7.98828L19.9512-9.47266L18.4277-9.21875Q18.1836-9.16992 18.042-9.2041Q17.9004-9.23828 17.7148-9.41406L15.7129-11.416Q15.5176-11.5918 15.4932-11.7529Q15.4688-11.9141 15.5859-12.1875L16.4648-14.2773Q15.293-15.3711 13.8281-15.791Q12.3633-16.2109 10.8398-15.7617Q10.7227-15.7324 10.6885-15.8057Q10.6543-15.8789 10.752-15.957Z"/>
  </g>
  <text style="stroke:none;fill:black;font-family:sans-serif;font-size:13;font-weight:bold;" transform="matrix(1 0 0 1 1289 1953)">Exporting</text>
  <text style="stroke:none;fill:black;font-family:sans-serif;font-size:13;" transform="matrix(1 0 0 1 1289 1971)">Symbols should be outlined when exporting to ensure the</text>
  <text style="stroke:none;fill:black;font-family:sans-serif;font-size:13;" transform="matrix(1 0 0 1 1289 1989)">design is preserved when submitting to Xcode.</text>
  <text id="template-version" style="stroke:none;fill:black;font-family:sans-serif;font-size:13;text-anchor:end;" transform="matrix(1 0 0 1 3036 1933)">Template v.3.0</text>
  <text style="stroke:none;fill:black;font-family:sans-serif;font-size:13;text-anchor:end;" transform="matrix(1 0 0 1 3036 1951)">Requires Xcode 13 or greater</text>
  <text id="descriptive-name" style="stroke:none;fill:black;font-family:sans-serif;font-size:13;text-anchor:end;" transform="matrix(1 0 0 1 3036 1969)">Generated from cart</text>
  <text style="stroke:none;fill:black;font-family:sans-serif;font-size:13;text-anchor:end;" transform="matrix(1 0 0 1 3036 1987)">Typeset at 100 points</text>
  <text style="stroke:none;fill:black;font-family:sans-serif;font-size:13;" transform="matrix(1 0 0 1 263 726)">Small</text>
  <text style="stroke:none;fill:black;font-family:sans-serif;font-size:13;" transform="matrix(1 0 0 1 263 1156)">Medium</text>
  <text style="stroke:none;fill:black;font-family:sans-serif;font-size:13;" transform="matrix(1 0 0 1 263 1586)">Large</text>
 </g>
 <g id="Guides">
  <g id="H-reference" style="fill:#27AAE1;stroke:none;" transform="matrix(1 0 0 1 339 696)">
   <path d="M0.993347 0L3.6377 0L29.3282-67.1326L30.0301-67.1326L30.0301-70.459L28.1227-70.459ZM11.6882-24.4797L46.9818-24.4797L46.2311-26.7288L12.4382-26.7288ZM55.1193 0L57.7637 0L30.6381-70.459L29.4327-70.459L29.4327-67.1326Z"/>
  </g>
  <line id="Baseline-S" style="fill:none;stroke:#27AAE1;opacity:1;stroke-width:0.5;" x1="263" x2="3036" y1="696" y2="696"/>
  <line id="Capline-S" style="fill:none;stroke:#27AAE1;opacity:1;stroke-width:0.5;" x1="263" x2="3036" y1="625.541" y2="625.541"/>
  <g id="H-reference" style="fill:#27AAE1;stroke:none;" transform="matrix(1 0 0 1 339 1126)">
   <path d="M0.993347 0L3.6377 0L29.3282-67.1326L30.0301-67.1326L30.0301-70.459L28.1227-70.459ZM11.6882-24.4797L46.9818-24.4797L46.2311-26.7288L12.4382-26.7288ZM55.1193 0L57.7637 0L30.6381-70.459L29.4327-70.459L29.4327-67.1326Z"/>
  </g>
  <line id="Baseline-M" style="fill:none;stroke:#27AAE1;opacity:1;stroke-width:0.5;" x1="263" x2="3036" y1="1126" y2="1126"/>
  <line id="Capline-M" style="fill:none;stroke:#27AAE1;opacity:1;stroke-width:0.5;" x1="263" x2="3036" y1="1055.54" y2="1055.54"/>
  <g id="H-reference" style="fill:#27AAE1;stroke:none;" transform="matrix(1 0 0 1 339 1556)">
   <path d="M0.993347 0L3.6377 0L29.3282-67.1326L30.0301-67.1326L30.0301-70.459L28.1227-70.459ZM11.6882-24.4797L46.9818-24.4797L46.2311-26.7288L12.4382-26.7288ZM55.1193 0L57.7637 0L30.6381-70.459L29.4327-70.459L29.4327-67.1326Z"/>
  </g>
  <line id="Baseline-L" style="fill:none;stroke:#27AAE1;opacity:1;stroke-width:0.5;" x1="263" x2="3036" y1="1556" y2="1556"/>
  <line id="Capline-L" style="fill:none;stroke:#27AAE1;opacity:1;stroke-width:0.5;" x1="263" x2="3036" y1="1485.54" y2="1485.54"/>
  <line id="left-margin-Regular-M" style="fill:none;stroke:#00AEEF;stroke-width:0.5;opacity:1.0;" x1="1382.3" x2="1382.3" y1="1030.79" y2="1150.12"/>
  <line id="right-margin-Regular-M" style="fill:none;stroke:#00AEEF;stroke-width:0.5;opacity:1.0;" x1="1517.39" x2="1517.39" y1="1030.79" y2="1150.12"/>
 </g>
 <g id="Symbols">
  <g id="Black-L" transform="matrix(1 0 0 1 2844.08 1556)">
   <path d="M65.2087 0.872124L137.833 0.872124Q141.303 0.872124 143.993-1.40939Q146.683-3.69091 146.683-7.61133Q146.683-11.4954 143.993-13.7471Q141.303-15.9988 137.833-15.9988L67.7131-15.9988Q66.7815-15.9988 66.2089-16.6691Q65.6362-17.3394 65.4641-18.3174L56.225-84.3741Q55.4721-89.9695 52.3534-92.7683Q49.2347-95.5672 42.4802-95.5672L22.672-95.5672Q18.7336-95.5672 15.8004-92.6328Q12.8672-89.6984 12.8672-85.682Q12.8672-81.6656 15.8004-78.7312Q18.7336-75.7968 22.672-75.7968L37.5222-75.7968L46.1905-16.9575Q47.4844-8.55462 52.1517-3.84125Q56.819 0.872124 65.2087 0.872124ZM56.0755-24.4418L139.53-24.4418Q147.829-24.4418 152.535-29.109Q157.242-33.7761 158.459-42.2833L162.207-68.3113Q162.346-69.0667 162.455-69.9249Q162.565-70.7831 162.565-71.6501Q162.565-75.8213 159.915-78.5365Q157.264-81.2516 151.896-81.2516L49.9367-81.2516L49.9427-64.3807L141.989-64.3807L139.437-43.4573Q139.132-41.3127 137.238-41.3127L56.0476-41.2919ZM70.7528 35.3358Q76.3344 35.3358 80.2203 31.4396Q84.1061 27.5433 84.1061 21.9824Q84.1061 16.48 80.2203 12.5539Q76.3344 8.62786 70.7528 8.62786Q65.3075 8.62786 61.3529 12.5539Q57.3982 16.48 57.3982 21.9824Q57.3982 27.5433 61.3529 31.4396Q65.3075 35.3358 70.7528 35.3358ZM126.919 35.3358Q132.422 35.3358 136.318 31.4396Q140.215 27.5433 140.215 21.9824Q140.215 16.48 136.318 12.5539Q132.422 8.62786 126.919 8.62786Q121.395 8.62786 117.469 12.5539Q113.543 16.48 113.543 21.9824Q113.543 27.5433 117.469 31.4396Q121.395 35.3358 126.919 35.3358Z"/>
  </g>
  <g id="Heavy-L" transform="matrix(1 0 0 1 2547.93 1556)">
   <path d="M64.8814 0.765585L137.783 0.765585Q140.838 0.765585 143.195-1.28178Q145.552-3.32915 145.552-6.75709Q145.552-10.1763 143.195-12.1985Q140.838-14.2207 137.783-14.2207L67.0369-14.2207Q65.6757-14.2207 64.8447-15.1455Q64.0137-16.0704 63.7732-17.5143L54.2578-84.6738Q53.5589-89.7523 50.7888-92.2971Q48.0186-94.842 41.7932-94.842L21.3805-94.842Q17.9626-94.842 15.4149-92.2886Q12.8672-89.7353 12.8672-86.2484Q12.8672-82.7613 15.4149-80.208Q17.9626-77.6546 21.3805-77.6546L37.8289-77.6546L46.8655-16.1809Q48.0915-8.22704 52.4933-3.73073Q56.895 0.765585 64.8814 0.765585ZM55.1888-23.8602L139.075-23.8602Q147.002-23.8602 151.438-28.3354Q155.874-32.8106 157.037-40.8628L161.1-68.6889Q161.225-69.3991 161.328-70.2138Q161.431-71.0284 161.431-71.7763Q161.431-75.4904 159.05-77.8854Q156.668-80.2804 151.969-80.2804L49.1529-80.2804L49.1809-65.2941L143.352-65.2941L140.326-42.0119Q139.866-38.8465 137.133-38.8465L55.125-38.8164ZM70.3807 34.2991Q75.6514 34.2991 79.3084 30.627Q82.9655 26.9549 82.9655 21.7144Q82.9655 16.5186 79.3084 12.8213Q75.6514 9.12408 70.3807 9.12408Q65.2239 9.12408 61.5072 12.8213Q57.7904 16.5186 57.7904 21.7144Q57.7904 26.9549 61.5072 30.627Q65.2239 34.2991 70.3807 34.2991ZM127.139 34.2991Q132.34 34.2991 136.012 30.627Q139.685 26.9549 139.685 21.7144Q139.685 16.5186 136.012 12.8213Q132.34 9.12408 127.139 9.12408Q121.913 9.12408 118.216 12.8213Q114.518 16.5186 114.518 21.7144Q114.518 26.9549 118.216 30.627Q121.913 34.2991 127.139 34.2991Z"/>
  </g>
  <g id="Bold-L" transform="matrix(1 0 0 1 2251.96 1556)">
   <path d="M64.3923 0.590193L137.729 0.590193Q140.269 0.590193 142.215-1.15776Q144.161-2.90572 144.161-5.72652Q144.161-8.56956 142.215-10.2962Q140.269-12.0229 137.729-12.0229L66.1547-12.0229Q64.2781-12.0229 63.1394-13.2405Q62.0007-14.458 61.6756-16.4633L51.7922-85.1321Q51.1698-89.5281 48.8337-91.7393Q46.4977-93.9504 40.9925-93.9504L19.8046-93.9504Q17.0172-93.9504 14.9422-91.8621Q12.8672-89.7739 12.8672-86.9328Q12.8672-84.0915 14.9422-82.0032Q17.0172-79.915 19.8046-79.915L38.1906-79.915L47.6956-15.1757Q48.8295-7.81242 52.8861-3.61112Q56.9426 0.590193 64.3923 0.590193ZM54.1272-23.2498L138.492-23.2498Q145.942-23.2498 150.026-27.4607Q154.109-31.6717 155.203-39.1479L159.643-69.098Q159.753-69.7468 159.848-70.5115Q159.943-71.2761 159.943-71.8854Q159.943-75.0532 157.892-77.0674Q155.841-79.0816 151.927-79.0816L48.1102-79.0816L48.1762-66.4684L144.968-66.4684L141.351-40.229Q140.705-35.8629 136.995-35.8629L54.0099-35.825ZM70.0315 33.0457Q74.9328 33.0457 78.3205 29.6391Q81.7082 26.2325 81.7082 21.369Q81.7082 16.5349 78.3205 13.1071Q74.9328 9.67917 70.0315 9.67917Q65.2133 9.67917 61.7775 13.1071Q58.3417 16.5349 58.3417 21.369Q58.3417 26.2325 61.7775 29.6391Q65.2133 33.0457 70.0315 33.0457ZM127.319 33.0457Q132.166 33.0457 135.573 29.6391Q138.979 26.2325 138.979 21.369Q138.979 16.5349 135.573 13.1071Q132.166 9.67917 127.319 9.67917Q122.446 9.67917 119.019 13.1071Q115.591 16.5349 115.591 21.369Q115.591 26.2325 119.019 29.6391Q122.446 33.0457 127.319 33.0457Z"/>
  </g>
  <g id="Semibold-L" transform="matrix(1 0 0 1 1955.77 1556)">
   <path d="M64.055 0.469279L137.691 0.469279Q139.877 0.469279 141.539-1.07227Q143.202-2.61381 143.202-5.01606Q143.202-7.46189 141.539-8.98483Q139.877-10.5078 137.691-10.5078L65.5465-10.5078Q63.3146-10.5078 61.9638-11.9271Q60.6129-13.3465 60.2295-15.7387L50.0925-85.4481Q49.5228-89.3736 47.486-91.3546Q45.4491-93.3357 40.4405-93.3357L18.7182-93.3357Q16.3655-93.3357 14.6163-91.5681Q12.8672-89.8005 12.8672-87.4046Q12.8672-85.0084 14.6163-83.2408Q16.3655-81.4732 18.7182-81.4732L38.44-81.4732L48.2679-14.4827Q49.3383-7.52659 53.1569-3.52866Q56.9754 0.469279 64.055 0.469279ZM53.3953-22.829L138.09-22.829Q145.212-22.829 149.052-26.8577Q152.892-30.8865 153.938-37.9657L158.638-69.38Q158.737-69.9866 158.827-70.7167Q158.917-71.4468 158.917-71.9605Q158.917-74.7519 157.094-76.5035Q155.271-78.2551 151.898-78.2551L47.3913-78.2551L47.4835-67.278L146.082-67.278L142.057-38.9999Q141.284-33.806 136.9-33.806L53.2413-33.7628ZM69.7907 32.1816Q74.4375 32.1816 77.6394 28.958Q80.8414 25.7344 80.8414 21.1309Q80.8414 16.5462 77.6394 13.304Q74.4375 10.0619 69.7907 10.0619Q65.206 10.0619 61.9638 13.304Q58.7217 16.5462 58.7217 21.1309Q58.7217 25.7344 61.9638 28.958Q65.206 32.1816 69.7907 32.1816ZM127.442 32.1816Q132.046 32.1816 135.269 28.958Q138.493 25.7344 138.493 21.1309Q138.493 16.5462 135.269 13.304Q132.046 10.0619 127.442 10.0619Q122.814 10.0619 119.572 13.304Q116.33 16.5462 116.33 21.1309Q116.33 25.7344 119.572 28.958Q122.814 32.1816 127.442 32.1816Z"/>
  </g>
  <g id="Medium-L" transform="matrix(1 0 0 1 1659.44 1556)">
   <path d="M63.7993 0.377596L137.663 0.377596Q139.58 0.377596 141.027-1.00744Q142.475-2.39247 142.475-4.47735Q142.475-6.622 141.027-7.99046Q139.58-9.35891 137.663-9.35891L65.0853-9.35891Q62.5841-9.35891 61.0724-10.9313Q59.5607-12.5037 59.1331-15.1893L48.8036-85.6877Q48.274-89.2564 46.464-91.063Q44.6541-92.8696 40.022-92.8696L17.8944-92.8696Q15.8713-92.8696 14.3692-91.3451Q12.8672-89.8206 12.8672-87.7624Q12.8672-85.7037 14.3692-84.1792Q15.8713-82.6547 17.8944-82.6547L38.6291-82.6547L48.7018-13.9573Q49.7241-7.30986 53.3622-3.46613Q57.0003 0.377596 63.7993 0.377596ZM52.8404-22.5099L137.785-22.5099Q144.658-22.5099 148.314-26.4005Q151.97-30.2911 152.979-37.0693L157.877-69.5938Q157.968-70.1683 158.053-70.8723Q158.139-71.5763 158.139-72.0176Q158.139-74.5234 156.489-76.0759Q154.839-77.6284 151.876-77.6284L46.8462-77.6284L46.9583-67.8919L146.927-67.8919L142.593-38.0679Q141.723-32.2464 136.828-32.2464L52.6584-32.1991ZM69.6082 31.5264Q74.0619 31.5264 77.123 28.4416Q80.1842 25.3568 80.1842 20.9503Q80.1842 16.5548 77.123 13.4534Q74.0619 10.352 69.6082 10.352Q65.2005 10.352 62.1052 13.4534Q59.0098 16.5548 59.0098 20.9503Q59.0098 25.3568 62.1052 28.4416Q65.2005 31.5264 69.6082 31.5264ZM127.536 31.5264Q131.955 31.5264 135.039 28.4416Q138.124 25.3568 138.124 20.9503Q138.124 16.5548 135.039 13.4534Q131.955 10.352 127.536 10.352Q123.093 10.352 119.992 13.4534Q116.89 16.5548 116.89 20.9503Q116.89 25.3568 119.992 28.4416Q123.093 31.5264 127.536 31.5264Z"/>
  </g>
  <g id="Regular-L" transform="matrix(1 0 0 1 1363.24 1556)">
   <path d="M63.4658 0.258011L137.626 0.258011Q139.192 0.258011 140.359-0.922879Q141.526-2.10377 141.526-3.77469Q141.526-5.52651 140.359-6.69346Q139.192-7.86041 137.626-7.86041L64.4838-7.86041Q61.6312-7.86041 59.9096-9.6324Q58.1881-11.4044 57.7029-14.4727L47.1225-86.0002Q46.6451-89.1036 45.1311-90.6826Q43.6171-92.2617 39.4761-92.2617L16.8199-92.2617Q15.2267-92.2617 14.0469-91.0543Q12.8672-89.8469 12.8672-88.229Q12.8672-86.6106 14.0469-85.4032Q15.2267-84.1959 16.8199-84.1959L38.8757-84.1959L49.2678-13.2719Q50.2273-7.02717 53.63-3.38458Q57.0328 0.258011 63.4658 0.258011ZM52.1166-22.0937L137.387-22.0937Q143.936-22.0937 147.351-25.8041Q150.766-29.5146 151.729-35.9001L156.883-69.8726Q156.963-70.4054 157.044-71.0753Q157.124-71.7451 157.124-72.0919Q157.124-74.2253 155.7-75.5182Q154.275-76.811 151.847-76.811L46.1352-76.811L46.2732-68.6926L148.029-68.6926L143.291-36.8523Q142.296-30.2121 136.734-30.2121L51.8982-30.1596ZM69.37 30.6718Q73.572 30.6718 76.4495 27.768Q79.327 24.8642 79.327 20.7148Q79.327 16.5659 76.4495 13.6482Q73.572 10.7305 69.37 10.7305Q65.1932 10.7305 62.2895 13.6482Q59.3857 16.5659 59.3857 20.7148Q59.3857 24.8642 62.2895 27.768Q65.1932 30.6718 69.37 30.6718ZM127.659 30.6718Q131.836 30.6718 134.739 27.768Q137.643 24.8642 137.643 20.7148Q137.643 16.5659 134.739 13.6482Q131.836 10.7305 127.659 10.7305Q123.457 10.7305 120.539 13.6482Q117.621 16.5659 117.621 20.7148Q117.621 24.8642 120.539 27.768Q123.457 30.6718 127.659 30.6718Z"/>
  </g>
  <g id="Light-L" transform="matrix(1 0 0 1 1067.31 1556)">
   <path d="M62.5878-0.142809L137.646-0.142809Q138.848-0.142809 139.739-1.05643Q140.629-1.97006 140.629-3.24016Q140.629-4.59147 139.739-5.48154Q138.848-6.3716 137.646-6.3716L63.587-6.3716Q60.4861-6.3716 58.631-8.20099Q56.776-10.0304 56.2333-13.3847L45.2332-86.8782Q44.8702-89.2373 43.6711-90.4632Q42.472-91.689 39.2471-91.689L15.8849-91.689Q14.6351-91.689 13.7511-90.7584Q12.8672-89.8277 12.8672-88.5917Q12.8672-87.3549 13.7511-86.4242Q14.6351-85.4936 15.8849-85.4936L39.0095-85.4936L49.8023-12.2988Q50.6471-6.68375 53.7064-3.41328Q56.7657-0.142809 62.5878-0.142809ZM51.6202-22.38L136.852-22.38Q142.982-22.38 146.034-25.7374Q149.086-29.0948 149.992-35.0032L155.318-69.7771Q155.398-70.2335 155.479-70.8939Q155.559-71.5543 155.559-71.863Q155.559-73.7482 154.344-74.8788Q153.13-76.0094 150.969-76.0094L44.952-76.0094L45.1853-69.7806L148.678-69.7806L143.501-35.6691Q142.429-28.6088 136.581-28.6088L51.3066-28.5755ZM69.8472 30.0038Q73.8965 30.0038 76.6786 27.2051Q79.4607 24.4063 79.4607 20.3903Q79.4607 16.3751 76.6786 13.5528Q73.8965 10.7305 69.8472 10.7305Q65.7849 10.7305 62.9861 13.5528Q60.1873 16.3751 60.1873 20.3903Q60.1873 24.4063 62.9861 27.2051Q65.7849 30.0038 69.8472 30.0038ZM127.182 30.0038Q131.244 30.0038 134.043 27.2051Q136.841 24.4063 136.841 20.3903Q136.841 16.3751 134.043 13.5528Q131.244 10.7305 127.182 10.7305Q123.132 10.7305 120.31 13.5528Q117.488 16.3751 117.488 20.3903Q117.488 24.4063 120.31 27.2051Q123.132 30.0038 127.182 30.0038Z"/>
  </g>
  <g id="Thin-L" transform="matrix(1 0 0 1 771.635 1556)">
   <path d="M61.4267-0.672925L137.671-0.672925Q138.394-0.672925 138.919-1.23307Q139.443-1.79321 139.443-2.5332Q139.443-3.35482 138.919-3.87868Q138.394-4.40254 137.671-4.40254L62.4008-4.40254Q58.9717-4.40254 56.94-6.30784Q54.9083-8.21314 54.2897-11.9458L42.7345-88.0393Q42.5229-89.4141 41.7402-90.1729Q40.9576-90.9316 38.9443-90.9316L14.6483-90.9316Q13.8526-90.9316 13.3599-90.3669Q12.8672-89.8023 12.8672-89.0713Q12.8672-88.3392 13.3599-87.7745Q13.8526-87.2099 14.6483-87.2099L39.1863-87.2099L50.5093-11.0116Q51.2022-6.22955 53.8073-3.45124Q56.4124-0.672925 61.4267-0.672925ZM50.9637-22.7587L136.145-22.7587Q141.72-22.7587 144.292-25.6492Q146.865-28.5397 147.695-33.817L153.248-69.6507Q153.328-70.0062 153.409-70.6541Q153.489-71.302 153.489-71.5602Q153.489-73.1171 152.552-74.0331Q151.615-74.9491 149.808-74.9491L43.3871-74.9491L43.7463-71.2195L149.536-71.2195L143.779-34.1042Q142.606-26.4884 136.379-26.4884L50.5241-26.4805ZM70.4782 29.1205Q74.3256 29.1205 76.9816 26.4606Q79.6375 23.8007 79.6375 19.9612Q79.6375 16.1228 76.9816 13.4266Q74.3256 10.7305 70.4782 10.7305Q66.5673 10.7305 63.9074 13.4266Q61.2476 16.1228 61.2476 19.9612Q61.2476 23.8007 63.9074 26.4606Q66.5673 29.1205 70.4782 29.1205ZM126.551 29.1205Q130.462 29.1205 133.121 26.4606Q135.781 23.8007 135.781 19.9612Q135.781 16.1228 133.121 13.4266Q130.462 10.7305 126.551 10.7305Q122.703 10.7305 120.007 13.4266Q117.311 16.1228 117.311 19.9612Q117.311 23.8007 120.007 26.4606Q122.703 29.1205 126.551 29.1205Z"/>
  </g>
  <g id="Ultralight-L" transform="matrix(1 0 0 1 475.454 1556)">
   <path d="M60.8319-0.944448L137.684-0.944448Q138.161-0.944448 138.498-1.32354Q138.835-1.70263 138.835-2.1711Q138.835-2.72141 138.498-3.0577Q138.161-3.39399 137.684-3.39399L61.7932-3.39399Q58.196-3.39399 56.0738-5.33818Q53.9516-7.28236 53.2942-11.2088L41.4546-88.6341Q41.3206-89.5047 40.7512-90.0242Q40.1819-90.5437 38.7892-90.5437L14.0148-90.5437Q13.4518-90.5437 13.1595-90.1664Q12.8672-89.7892 12.8672-89.317Q12.8672-88.8434 13.1595-88.4662Q13.4518-88.0889 14.0148-88.0889L39.2769-88.0889L50.8714-10.3524Q51.4866-5.99691 53.859-3.47068Q56.2314-0.944448 60.8319-0.944448ZM50.6275-22.9527L135.783-22.9527Q141.073-22.9527 143.4-25.604Q145.727-28.2554 146.519-33.2095L152.188-69.586Q152.268-69.8898 152.348-70.5313Q152.429-71.1728 152.429-71.4051Q152.429-72.7939 151.634-73.6Q150.84-74.4061 149.213-74.4061L42.5856-74.4061L43.0093-71.9566L149.976-71.9566L143.921-33.3026Q142.697-25.4023 136.276-25.4023L50.1233-25.4074ZM70.8014 28.668Q74.5455 28.668 77.1368 26.0793Q79.7281 23.4905 79.7281 19.7413Q79.7281 15.9936 77.1368 13.362Q74.5455 10.7305 70.8014 10.7305Q66.9681 10.7305 64.3793 13.362Q61.7906 15.9936 61.7906 19.7413Q61.7906 23.4905 64.3793 26.0793Q66.9681 28.668 70.8014 28.668ZM126.227 28.668Q130.061 28.668 132.649 26.0793Q135.238 23.4905 135.238 19.7413Q135.238 15.9936 132.649 13.362Q130.061 10.7305 126.227 10.7305Q122.483 10.7305 119.852 13.362Q117.22 15.9936 117.22 19.7413Q117.22 23.4905 119.852 26.0793Q122.483 28.668 126.227 28.668Z"/>
  </g>
  <g id="Black-M" transform="matrix(1 0 0 1 2863.82 1126)">
   <path d="M50.6822-7.2228L106.831-7.2228Q109.827-7.2228 112.159-9.15541Q114.492-11.088 114.492-14.4943Q114.492-17.8487 112.159-19.7529Q109.827-21.6571 106.831-21.6571L52.9198-21.6571Q52.5336-21.6571 52.2939-21.9654Q52.0542-22.2738 51.9719-22.6698L44.9946-73.1653Q44.3803-77.8436 41.7072-80.1825Q39.0342-82.5214 33.4706-82.5214L18.5482-82.5214Q15.0961-82.5214 12.5324-79.9579Q9.96875-77.3945 9.96875-73.8795Q9.96875-70.3646 12.5324-67.8012Q15.0961-65.2378 18.5482-65.2378L28.8246-65.2378L35.2779-21.6089Q36.3232-14.7984 40.1209-11.0106Q43.9185-7.2228 50.6822-7.2228ZM44.1389-27.4104L108.418-27.4104Q115.111-27.4104 118.94-31.1434Q122.769-34.8764 123.751-41.7937L126.407-60.5219Q126.527-61.1357 126.618-61.8367Q126.708-62.5377 126.708-63.3066Q126.708-66.8975 124.452-69.2541Q122.196-71.6108 117.499-71.6108L39.2014-71.6108L39.2-57.1765L108.921-57.1765L107.292-42.6859Q107.178-41.8447 106.393-41.8447L44.1351-41.8392ZM55.1995 20.2409Q59.7704 20.2409 62.9647 17.0439Q66.159 13.8469 66.159 9.28141Q66.159 4.77304 62.9647 1.54761Q59.7704-1.67783 55.1995-1.67783Q50.7485-1.67783 47.4944 1.54761Q44.2403 4.77304 44.2403 9.28141Q44.2403 13.8469 47.4944 17.0439Q50.7485 20.2409 55.1995 20.2409ZM98.075 20.2409Q102.583 20.2409 105.78 17.0439Q108.977 13.8469 108.977 9.28141Q108.977 4.77304 105.78 1.54761Q102.583-1.67783 98.075-1.67783Q93.5612-1.67783 90.3358 1.54761Q87.1103 4.77304 87.1103 9.28141Q87.1103 13.8469 90.3358 17.0439Q93.5612 20.2409 98.075 20.2409Z"/>
  </g>
  <g id="Heavy-M" transform="matrix(1 0 0 1 2567.59 1126)">
   <path d="M50.4433-7.28997L106.78-7.28997Q109.404-7.28997 111.436-9.01834Q113.469-10.7467 113.469-13.7085Q113.469-16.6454 111.436-18.3508Q109.404-20.0562 106.78-20.0562L52.3415-20.0562Q51.5583-20.0562 51.0783-20.6081Q50.5984-21.16 50.4545-21.9851L43.2458-73.3773Q42.6738-77.619 40.3124-79.7421Q37.951-81.8652 32.8201-81.8652L17.3719-81.8652Q14.397-81.8652 12.1829-79.6488Q9.96875-77.4324 9.96875-74.3998Q9.96875-71.3671 12.1829-69.1507Q14.397-66.9342 17.3719-66.9342L29.1121-66.9342L35.8885-20.9396Q36.878-14.5098 40.4478-10.8999Q44.0175-7.28997 50.4433-7.28997ZM43.3179-26.8155L108.023-26.8155Q114.39-26.8155 117.989-30.3934Q121.587-33.9713 122.521-40.4878L125.47-60.8999Q125.576-61.4764 125.66-62.1358Q125.744-62.7951 125.744-63.4511Q125.744-66.618 123.732-68.6767Q121.719-70.7354 117.651-70.7354L38.5443-70.7354L38.5557-57.9691L110.194-57.9691L108.142-41.382Q107.884-39.5818 106.305-39.5818L43.2878-39.5654ZM54.7918 19.2891Q59.0728 19.2891 62.0522 16.3015Q65.0316 13.3139 65.0316 9.04929Q65.0316 4.82833 62.0522 1.8178Q59.0728-1.19274 54.7918-1.19274Q50.6122-1.19274 47.581 1.8178Q44.5498 4.82833 44.5498 9.04929Q44.5498 13.3139 47.581 16.3015Q50.6122 19.2891 54.7918 19.2891ZM98.3345 19.2891Q102.558 19.2891 105.545 16.3015Q108.533 13.3139 108.533 9.04929Q108.533 4.82833 105.545 1.8178Q102.558-1.19274 98.3345-1.19274Q94.0971-1.19274 91.0866 1.8178Q88.0761 4.82833 88.0761 9.04929Q88.0761 13.3139 91.0866 16.3015Q94.0971 19.2891 98.3345 19.2891Z"/>
  </g>
  <g id="Bold-M" transform="matrix(1 0 0 1 2271.41 1126)">
   <path d="M50.176-7.36511L106.723-7.36511Q108.93-7.36511 110.627-8.86501Q112.325-10.3649 112.325-12.8295Q112.325-15.2994 110.627-16.7825Q108.93-18.2655 106.723-18.2655L51.6946-18.2655Q50.4672-18.2655 49.7185-19.0897Q48.9699-19.914 48.7571-21.2191L41.2895-73.6144Q40.7648-77.3677 38.7521-79.2495Q36.7393-81.1312 32.0924-81.1312L16.0561-81.1312Q13.615-81.1312 11.7919-79.303Q9.96875-77.4747 9.96875-74.9817Q9.96875-72.4885 11.7919-70.6603Q13.615-68.832 16.0561-68.832L29.4336-68.832L36.5716-20.1908Q37.4986-14.187 40.8134-10.7761Q44.1282-7.36511 50.176-7.36511ZM42.3994-26.1499L107.581-26.1499Q113.584-26.1499 116.925-29.5544Q120.266-32.9588 121.146-39.0269L124.422-61.3227Q124.512-61.8577 124.589-62.4704Q124.666-63.0831 124.666-63.6127Q124.666-66.3053 122.926-68.0307Q121.186-69.756 117.821-69.756L37.8093-69.756L37.8349-58.8557L111.618-58.8557L109.093-39.9234Q108.672-37.0503 106.207-37.0503L42.34-37.0217ZM54.3357 18.2243Q58.2924 18.2243 61.0314 15.471Q63.7704 12.7177 63.7704 8.78963Q63.7704 4.89018 61.0314 2.12004Q58.2924-0.650098 54.3357-0.650098Q50.4597-0.650098 47.6778 2.12004Q44.896 4.89018 44.896 8.78963Q44.896 12.7177 47.6778 15.471Q50.4597 18.2243 54.3357 18.2243ZM98.6248 18.2243Q102.529 18.2243 105.283 15.471Q108.036 12.7177 108.036 8.78963Q108.036 4.89018 105.283 2.12004Q102.529-0.650098 98.6248-0.650098Q94.6967-0.650098 91.9265 2.12004Q89.1564 4.89018 89.1564 8.78963Q89.1564 12.7177 91.9265 15.471Q94.6967 18.2243 98.6248 18.2243Z"/>
  </g>
  <g id="Semibold-M" transform="matrix(1 0 0 1 1975.08 1126)">
   <path d="M49.9918-7.41692L106.683-7.41692Q108.604-7.41692 110.07-8.75931Q111.536-10.1017 111.536-12.2235Q111.536-14.3715 110.07-15.7012Q108.604-17.031 106.683-17.031L51.2486-17.031Q49.715-17.031 48.7811-18.043Q47.8472-19.055 47.5869-20.691L39.9409-73.7778Q39.4487-77.1945 37.6764-78.9099Q35.904-80.6252 31.5908-80.6252L15.1489-80.6252Q13.0759-80.6252 11.5223-79.0646Q9.96875-77.5039 9.96875-75.3828Q9.96875-73.2617 11.5223-71.701Q13.0759-70.1403 15.1489-70.1403L29.6552-70.1403L37.0425-19.6746Q37.9265-13.9645 41.0655-10.6907Q44.2045-7.41692 49.9918-7.41692ZM41.7661-25.6911L107.276-25.6911Q113.028-25.6911 116.191-28.9759Q119.354-32.2607 120.197-38.0198L123.699-61.6141Q123.779-62.1205 123.851-62.701Q123.922-63.2816 123.922-63.7241Q123.922-66.0897 122.37-67.5853Q120.818-69.0809 117.938-69.0809L37.3026-69.0809L37.338-59.4669L112.599-59.4669L109.748-38.9179Q109.216-35.3052 106.139-35.3052L41.6865-35.2682ZM54.0213 17.4902Q57.7544 17.4902 60.3277 14.8984Q62.9009 12.3067 62.9009 8.61062Q62.9009 4.93282 60.3277 2.32841Q57.7544-0.276002 54.0213-0.276002Q50.3545-0.276002 47.7446 2.32841Q45.1347 4.93282 45.1347 8.61062Q45.1347 12.3067 47.7446 14.8984Q50.3545 17.4902 54.0213 17.4902ZM98.8249 17.4902Q102.51 17.4902 105.102 14.8984Q107.693 12.3067 107.693 8.61062Q107.693 4.93282 105.102 2.32841Q102.51-0.276002 98.8249-0.276002Q95.11-0.276002 92.5056 2.32841Q89.9011 4.93282 89.9011 8.61062Q89.9011 12.3067 92.5056 14.8984Q95.11 17.4902 98.8249 17.4902Z"/>
  </g>
  <g id="Medium-M" transform="matrix(1 0 0 1 1678.65 1126)">
   <path d="M49.8521-7.45619L106.653-7.45619Q108.356-7.45619 109.647-8.67916Q110.938-9.90212 110.938-11.7641Q110.938-13.6679 109.647-14.8814Q108.356-16.0949 106.653-16.0949L50.9105-16.0949Q49.1447-16.0949 48.0703-17.2493Q46.9959-18.4037 46.6996-20.2906L38.9183-73.9017Q38.4509-77.0631 36.8608-78.6523Q35.2706-80.2416 31.2104-80.2416L14.4611-80.2416Q12.6671-80.2416 11.3179-78.8838Q9.96875-77.526 9.96875-75.687Q9.96875-73.8479 11.3179-72.4901Q12.6671-71.1324 14.4611-71.1324L29.8233-71.1324L37.3995-19.2832Q38.2509-13.7958 41.2566-10.626Q44.2624-7.45619 49.8521-7.45619ZM41.286-25.3432L107.045-25.3432Q112.607-25.3432 115.635-28.5373Q118.663-31.7315 119.478-37.2562L123.151-61.8352Q123.223-62.3198 123.291-62.8759Q123.358-63.4321 123.358-63.8086Q123.358-65.9263 121.949-67.2476Q120.539-68.569 118.027-68.569L36.9183-68.569L36.9612-59.9303L113.343-59.9303L110.245-38.1555Q109.628-33.9819 106.087-33.9819L41.1911-33.9386ZM53.7829 16.9336Q57.3465 16.9336 59.794 14.4643Q62.2416 11.9951 62.2416 8.47489Q62.2416 4.96515 59.794 2.4864Q57.3465 0.00765234 53.7829 0.00765234Q50.2748 0.00765234 47.7952 2.4864Q45.3157 4.96515 45.3157 8.47489Q45.3157 11.9951 47.7952 14.4643Q50.2748 16.9336 53.7829 16.9336ZM98.9766 16.9336Q102.495 16.9336 104.964 14.4643Q107.434 11.9951 107.434 8.47489Q107.434 4.96515 104.964 2.4864Q102.495 0.00765234 98.9766 0.00765234Q95.4234 0.00765234 92.9446 2.4864Q90.4659 4.96515 90.4659 8.47489Q90.4659 11.9951 92.9446 14.4643Q95.4234 16.9336 98.9766 16.9336Z"/>
  </g>
  <g id="Regular-M" transform="matrix(1 0 0 1 1382.3 1126)">
   <path d="M49.6699-7.50743L106.614-7.50743Q108.033-7.50743 109.095-8.57461Q110.157-9.6418 110.157-11.1647Q110.157-12.7502 109.095-13.812Q108.033-14.8739 106.614-14.8739L50.4694-14.8739Q48.4008-14.8739 47.1431-16.214Q45.8855-17.5542 45.5423-19.7683L37.5844-74.0634Q37.1493-76.8918 35.7969-78.3165Q34.4445-79.7411 30.7142-79.7411L13.5639-79.7411Q12.1339-79.7411 11.0513-78.648Q9.96875-77.5549 9.96875-76.0838Q9.96875-74.6125 11.0513-73.5194Q12.1339-72.4263 13.5639-72.4263L30.0425-72.4263L37.8652-18.7726Q38.674-13.5757 41.506-10.5415Q44.3379-7.50743 49.6699-7.50743ZM40.6598-24.8895L106.744-24.8895Q112.057-24.8895 114.909-27.9653Q117.762-31.0411 118.54-36.2601L122.436-62.1234Q122.498-62.5797 122.56-63.1041Q122.623-63.6284 122.623-63.9188Q122.623-65.7131 121.399-66.8072Q120.176-67.9013 118.143-67.9013L36.4172-67.9013L36.4698-60.5348L114.314-60.5348L110.894-37.161Q110.166-32.2559 106.021-32.2559L40.5448-32.2043ZM53.472 16.2076Q56.8144 16.2076 59.098 13.8981Q61.3817 11.5886 61.3817 8.29785Q61.3817 5.00732 59.098 2.69248Q56.8144 0.377637 53.472 0.377637Q50.1708 0.377637 47.8613 2.69248Q45.5518 5.00732 45.5518 8.29785Q45.5518 11.5886 47.8613 13.8981Q50.1708 16.2076 53.472 16.2076ZM99.1745 16.2076Q102.476 16.2076 104.785 13.8981Q107.095 11.5886 107.095 8.29785Q107.095 5.00732 104.785 2.69248Q102.476 0.377637 99.1745 0.377637Q95.8321 0.377637 93.5173 2.69248Q91.2024 5.00732 91.2024 8.29785Q91.2024 11.5886 93.5173 13.8981Q95.8321 16.2076 99.1745 16.2076Z"/>
  </g>
  <g id="Light-M" transform="matrix(1 0 0 1 1086.29 1126)">
   <path d="M48.8828-7.86678L106.631-7.86678Q107.725-7.86678 108.539-8.69435Q109.353-9.52192 109.353-10.6855Q109.353-11.9119 108.539-12.7255Q107.725-13.5391 106.631-13.5391L49.6653-13.5391Q47.3742-13.5391 45.9968-14.9307Q44.6194-16.3223 44.2247-18.7929L35.8906-74.8505Q35.5581-77.0117 34.488-78.1197Q33.4179-79.2277 30.509-79.2277L12.7256-79.2277Q11.6035-79.2277 10.7861-78.3827Q9.96875-77.5376 9.96875-76.4089Q9.96875-75.2798 10.7861-74.4348Q11.6035-73.5897 12.7256-73.5897L30.1624-73.5897L38.3445-17.9001Q39.0504-13.2678 41.5744-10.5673Q44.0984-7.86678 48.8828-7.86678ZM40.2147-25.1462L106.265-25.1462Q111.201-25.1462 113.729-27.9055Q116.256-30.6648 116.983-35.456L121.033-62.0378Q121.095-62.4256 121.157-62.9415Q121.219-63.4574 121.219-63.7136Q121.219-65.2853 120.184-66.2339Q119.149-67.1825 117.356-67.1825L35.3563-67.1825L35.4944-61.5102L114.896-61.5102L111.082-36.1002Q110.286-30.8185 105.884-30.8185L40.0144-30.7841ZM53.8998 15.6088Q57.1053 15.6088 59.3035 13.3934Q61.5016 11.178 61.5016 8.00691Q61.5016 4.83626 59.3035 2.60695Q57.1053 0.377637 53.8998 0.377637Q50.7012 0.377637 48.4859 2.60695Q46.2705 4.83626 46.2705 8.00691Q46.2705 11.178 48.4859 13.3934Q50.7012 15.6088 53.8998 15.6088ZM98.7467 15.6088Q101.945 15.6088 104.161 13.3934Q106.376 11.178 106.376 8.00691Q106.376 4.83626 104.161 2.60695Q101.945 0.377637 98.7467 0.377637Q95.5412 0.377637 93.3119 2.60695Q91.0826 4.83626 91.0826 8.00691Q91.0826 11.178 93.3119 13.3934Q95.5412 15.6088 98.7467 15.6088Z"/>
  </g>
  <g id="Thin-M" transform="matrix(1 0 0 1 790.51 1126)">
   <path d="M47.8417-8.34206L106.654-8.34206Q107.318-8.34206 107.804-8.85271Q108.29-9.36337 108.29-10.0517Q108.29-10.8031 107.804-11.2884Q107.318-11.7737 106.654-11.7737L48.6018-11.7737Q46.0164-11.7737 44.4807-13.2334Q42.9449-14.693 42.4822-17.5028L33.6503-75.8916Q33.4535-77.1702 32.7568-77.8594Q32.0601-78.5486 30.2375-78.5486L11.6169-78.5486Q10.902-78.5486 10.4354-78.0317Q9.96875-77.5148 9.96875-76.839Q9.96875-76.1623 10.4354-75.6454Q10.902-75.1285 11.6169-75.1285L30.3209-75.1285L38.9783-16.7461Q39.5481-12.8606 41.6649-10.6013Q43.7817-8.34206 47.8417-8.34206ZM39.6262-25.4857L105.631-25.4857Q110.07-25.4857 112.167-27.8264Q114.264-30.1671 114.924-34.3926L119.177-61.9245Q119.239-62.2218 119.301-62.7265Q119.364-63.2311 119.364-63.4421Q119.364-64.7195 118.577-65.4758Q117.791-66.232 116.315-66.232L33.9533-66.232L34.2043-62.8003L115.666-62.8003L111.331-34.6972Q110.445-28.9174 105.703-28.9174L39.3129-28.9058ZM54.4655 14.8168Q57.4901 14.8168 59.5751 12.7259Q61.6602 10.6351 61.6602 7.62213Q61.6602 4.61003 59.5751 2.49383Q57.4901 0.377637 54.4655 0.377637Q51.4027 0.377637 49.3119 2.49383Q47.221 4.61003 47.221 7.62213Q47.221 10.6351 49.3119 12.7259Q51.4027 14.8168 54.4655 14.8168ZM98.181 14.8168Q101.244 14.8168 103.335 12.7259Q105.425 10.6351 105.425 7.62213Q105.425 4.61003 103.335 2.49383Q101.244 0.377637 98.181 0.377637Q95.1564 0.377637 93.0402 2.49383Q90.924 4.61003 90.924 7.62213Q90.924 10.6351 93.0402 12.7259Q95.1564 14.8168 98.181 14.8168Z"/>
  </g>
  <g id="Ultralight-M" transform="matrix(1 0 0 1 494.274 1126)">
   <path d="M47.3085-8.58549L106.666-8.58549Q107.11-8.58549 107.427-8.93383Q107.745-9.28216 107.745-9.72703Q107.745-10.2353 107.427-10.5524Q107.11-10.8695 106.666-10.8695L48.0571-10.8695Q45.3209-10.8695 43.7041-12.364Q42.0873-13.8586 41.5896-16.842L32.5029-76.4248Q32.3756-77.2514 31.8701-77.7261Q31.3647-78.2008 30.0985-78.2008L11.049-78.2008Q10.5426-78.2008 10.2557-77.852Q9.96875-77.5031 9.96875-77.0592Q9.96875-76.6143 10.2557-76.2655Q10.5426-75.9166 11.049-75.9166L30.4021-75.9166L39.3029-16.1551Q39.803-12.652 41.7112-10.6187Q43.6195-8.58549 47.3085-8.58549ZM39.3247-25.6596L105.306-25.6596Q109.49-25.6596 111.367-27.7859Q113.244-29.9121 113.869-33.8479L118.226-61.8664Q118.288-62.1174 118.351-62.6163Q118.413-63.1153 118.413-63.303Q118.413-64.4297 117.754-65.0874Q117.096-65.7451 115.781-65.7451L33.2347-65.7451L33.5435-63.4611L116.06-63.4611L111.459-33.9786Q110.526-27.9437 105.61-27.9437L38.9536-27.9437ZM54.7553 14.4111Q57.6872 14.4111 59.7143 12.384Q61.7414 10.357 61.7414 7.42505Q61.7414 4.49416 59.7143 2.4359Q57.6872 0.377637 54.7553 0.377637Q51.762 0.377637 49.735 2.4359Q47.7079 4.49416 47.7079 7.42505Q47.7079 10.357 49.735 12.384Q51.762 14.4111 54.7553 14.4111ZM97.8912 14.4111Q100.884 14.4111 102.912 12.384Q104.939 10.357 104.939 7.42505Q104.939 4.49416 102.912 2.4359Q100.884 0.377637 97.8912 0.377637Q94.9593 0.377637 92.9011 2.4359Q90.8428 4.49416 90.8428 7.42505Q90.8428 10.357 92.9011 12.384Q94.9593 14.4111 97.8912 14.4111Z"/>
  </g>
  <g id="Black-S" transform="matrix(1 0 0 1 2878.76 696)">
   <path d="M39.7461-13.2812L83.7402-13.2812Q86.1816-13.2812 88.0859-14.8438Q89.9902-16.4062 89.9902-19.1895Q89.9902-21.9238 88.0859-23.4619Q86.1816-25 83.7402-25L41.6016-25Q41.4062-25 41.2842-25.1709Q41.1621-25.3418 41.1133-25.5371L35.6934-64.9414Q35.2051-68.7012 33.0322-70.5811Q30.8594-72.4609 26.416-72.4609L14.8438-72.4609Q12.0117-72.4609 9.91211-70.3613Q7.8125-68.2617 7.8125-65.3809Q7.8125-62.5 9.91211-60.4004Q12.0117-58.3008 14.8438-58.3008L22.5098-58.3008L27.4902-24.707Q28.3203-19.2871 31.3477-16.2842Q34.375-13.2812 39.7461-13.2812ZM34.8145-29.2969L85.0586-29.2969Q90.3809-29.2969 93.4326-32.251Q96.4844-35.2051 97.2656-40.7227L99.2676-54.9316Q99.3652-55.4199 99.4385-55.9814Q99.5117-56.543 99.5117-57.1777Q99.5117-60.1074 97.6807-62.0361Q95.8496-63.9648 91.9922-63.9648L30.8594-63.9648L30.8594-52.2461L85.0098-52.2461L83.8379-41.4062Q83.7891-41.0156 83.3984-41.0156L34.8145-41.0156ZM43.4082 8.49609Q47.0703 8.49609 49.6338 5.93262Q52.1973 3.36914 52.1973-0.292969Q52.1973-3.90625 49.6338-6.49414Q47.0703-9.08203 43.4082-9.08203Q39.8438-9.08203 37.2314-6.49414Q34.6191-3.90625 34.6191-0.292969Q34.6191 3.36914 37.2314 5.93262Q39.8438 8.49609 43.4082 8.49609ZM76.7578 8.49609Q80.3711 8.49609 82.9346 5.93262Q85.498 3.36914 85.498-0.292969Q85.498-3.90625 82.9346-6.49414Q80.3711-9.08203 76.7578-9.08203Q73.1445-9.08203 70.5566-6.49414Q67.9688-3.90625 67.9688-0.292969Q67.9688 3.36914 70.5566 5.93262Q73.1445 8.49609 76.7578 8.49609Z"/>
  </g>
  <g id="Heavy-S" transform="matrix(1 0 0 1 2582.37 696)">
   <path d="M39.6424-13.2928L83.6941-13.2928Q85.859-13.2928 87.5385-14.7112Q89.2181-16.1297 89.2181-18.5787Q89.2181-21.0019 87.5385-22.4017Q85.859-23.8015 83.6941-23.8015L41.2097-23.8015Q40.7033-23.8015 40.391-24.174Q40.0788-24.5466 39.9839-25.0761L34.4141-65.0221Q33.9489-68.4937 32.0065-70.2296Q30.0642-71.9654 25.8859-71.9654L13.9448-71.9654Q11.4816-71.9654 9.64705-70.1308Q7.8125-68.2963 7.8125-65.7842Q7.8125-63.2721 9.64705-61.4376Q11.4816-59.603 13.9448-59.603L22.7403-59.603L27.9512-24.2461Q28.7467-19.0797 31.6185-16.1862Q34.4902-13.2928 39.6424-13.2928ZM34.1691-28.7552L84.782-28.7552Q89.8738-28.7552 92.77-31.6171Q95.6661-34.479 96.4128-39.7085L98.6453-55.2659Q98.7314-55.7311 98.7989-56.258Q98.8663-56.785 98.8663-57.3276Q98.8663-59.923 97.2197-61.6155Q95.573-63.3079 92.2227-63.3079L30.433-63.3079L30.433-52.7993L86.0239-52.7993L84.5409-40.4267Q84.3768-39.2639 83.3408-39.2639L34.1576-39.2524ZM43.0048 7.75853Q46.4365 7.75853 48.8271 5.36216Q51.2177 2.96578 51.2177-0.454311Q51.2177-3.8371 48.8271-6.25213Q46.4365-8.66715 43.0048-8.66715Q39.6594-8.66715 37.2257-6.25213Q34.792-3.8371 34.792-0.454311Q34.792 2.96578 37.2257 5.36216Q39.6594 7.75853 43.0048 7.75853ZM77.0344 7.75853Q80.4172 7.75853 82.8136 5.36216Q85.2099 2.96578 85.2099-0.454311Q85.2099-3.8371 82.8136-6.25213Q80.4172-8.66715 77.0344-8.66715Q73.6401-8.66715 71.2251-6.25213Q68.81-3.8371 68.81-0.454311Q68.81 2.96578 71.2251 5.36216Q73.6401 7.75853 77.0344 7.75853Z"/>
  </g>
  <g id="Bold-S" transform="matrix(1 0 0 1 2286.02 696)">
   <path d="M39.5264-13.3057L83.6426-13.3057Q85.498-13.3057 86.9263-14.563Q88.3545-15.8203 88.3545-17.8955Q88.3545-19.9707 86.9263-21.2158Q85.498-22.4609 83.6426-22.4609L40.7715-22.4609Q39.917-22.4609 39.3921-23.0591Q38.8672-23.6572 38.7207-24.5605L32.9834-65.1123Q32.5439-68.2617 30.8594-69.8364Q29.1748-71.4111 25.293-71.4111L12.9395-71.4111Q10.8887-71.4111 9.35059-69.873Q7.8125-68.335 7.8125-66.2354Q7.8125-64.1357 9.35059-62.5977Q10.8887-61.0596 12.9395-61.0596L22.998-61.0596L28.4668-23.7305Q29.2236-18.8477 31.9214-16.0767Q34.6191-13.3057 39.5264-13.3057ZM33.4473-28.1494L84.4727-28.1494Q89.3066-28.1494 92.0288-30.9082Q94.751-33.667 95.459-38.5742L97.9492-55.6396Q98.0225-56.0791 98.0835-56.5674Q98.1445-57.0557 98.1445-57.4951Q98.1445-59.7168 96.7041-61.145Q95.2637-62.5732 92.4805-62.5732L29.9561-62.5732L29.9561-53.418L87.1582-53.418L85.3271-39.3311Q85.0342-37.3047 83.2764-37.3047L33.4229-37.2803ZM42.5537 6.93359Q45.7275 6.93359 47.9248 4.72412Q50.1221 2.51465 50.1221-0.634766Q50.1221-3.75977 47.9248-5.98145Q45.7275-8.20312 42.5537-8.20312Q39.4531-8.20312 37.2192-5.98145Q34.9854-3.75977 34.9854-0.634766Q34.9854 2.51465 37.2192 4.72412Q39.4531 6.93359 42.5537 6.93359ZM77.3438 6.93359Q80.4688 6.93359 82.6782 4.72412Q84.8877 2.51465 84.8877-0.634766Q84.8877-3.75977 82.6782-5.98145Q80.4688-8.20312 77.3438-8.20312Q74.1943-8.20312 71.9727-5.98145Q69.751-3.75977 69.751-0.634766Q69.751 2.51465 71.9727 4.72412Q74.1943 6.93359 77.3438 6.93359Z"/>
  </g>
  <g id="Semibold-S" transform="matrix(1 0 0 1 1989.56 696)">
   <path d="M39.4464-13.3146L83.607-13.3146Q85.2492-13.3146 86.5042-14.4608Q87.7591-15.607 87.7591-17.4245Q87.7591-19.2598 86.5042-20.3982Q85.2492-21.5367 83.607-21.5367L40.4693-21.5367Q39.3749-21.5367 38.7034-22.2904Q38.0318-23.044 37.8498-24.2051L31.997-65.1745Q31.5753-68.1018 30.0685-69.5654Q28.5616-71.029 24.8842-71.029L12.2463-71.029Q10.4799-71.029 9.14619-69.6953Q7.8125-68.3616 7.8125-66.5464Q7.8125-64.7312 9.14619-63.3975Q10.4799-62.0638 12.2463-62.0638L23.1758-62.0638L28.8223-23.375Q29.5524-18.6877 32.1302-16.0011Q34.708-13.3146 39.4464-13.3146ZM32.9496-27.7317L84.2594-27.7317Q88.9156-27.7317 91.5178-30.4194Q94.12-33.1071 94.8014-37.7922L97.4693-55.8974Q97.5337-56.319 97.5903-56.7807Q97.6469-57.2423 97.6469-57.6106Q97.6469-59.5746 96.3486-60.8207Q95.0504-62.0667 92.6582-62.0667L29.6272-62.0667L29.6272-53.8445L87.9402-53.8445L85.8692-38.5757Q85.4874-35.9539 83.2319-35.9539L32.9163-35.9206ZM42.2427 6.36484Q45.2388 6.36484 47.3027 4.28423Q49.3667 2.20361 49.3667-0.75918Q49.3667-3.70645 47.3027-5.79482Q45.2388-7.8832 42.2427-7.8832Q39.3109-7.8832 37.2148-5.79482Q35.1187-3.70645 35.1187-0.75918Q35.1187 2.20361 37.2148 4.28423Q39.3109 6.36484 42.2427 6.36484ZM77.557 6.36484Q80.5043 6.36484 82.5849 4.28423Q84.6655 2.20361 84.6655-0.75918Q84.6655-3.70645 82.5849-5.79482Q80.5043-7.8832 77.557-7.8832Q74.5765-7.8832 72.4881-5.79482Q70.3997-3.70645 70.3997-0.75918Q70.3997 2.20361 72.4881 4.28423Q74.5765 6.36484 77.557 6.36484Z"/>
  </g>
  <g id="Medium-S" transform="matrix(1 0 0 1 1693.04 696)">
   <path d="M39.3857-13.3213L83.5801-13.3213Q85.0605-13.3213 86.1841-14.3833Q87.3076-15.4453 87.3076-17.0674Q87.3076-18.7207 86.1841-19.7783Q85.0605-20.8359 83.5801-20.8359L40.2402-20.8359Q38.9639-20.8359 38.1812-21.7075Q37.3984-22.5791 37.1895-23.9355L31.249-65.2217Q30.8408-67.9805 29.4688-69.3599Q28.0967-70.7393 24.5742-70.7393L11.7207-70.7393Q10.1699-70.7393 8.99121-69.5605Q7.8125-68.3818 7.8125-66.7822Q7.8125-65.1826 8.99121-64.0039Q10.1699-62.8252 11.7207-62.8252L23.3105-62.8252L29.0918-23.1055Q29.8018-18.5664 32.2886-15.9438Q34.7754-13.3213 39.3857-13.3213ZM32.5723-27.415L84.0977-27.415Q88.6191-27.415 91.1304-30.0488Q93.6416-32.6826 94.3027-37.1992L97.1055-56.0928Q97.1631-56.501 97.2163-56.9424Q97.2695-57.3838 97.2695-57.6982Q97.2695-59.4668 96.0791-60.5747Q94.8887-61.6826 92.793-61.6826L29.3779-61.6826L29.3779-54.168L88.5332-54.168L86.2803-38.0029Q85.8311-34.9297 83.1982-34.9297L32.5322-34.8896ZM42.0068 5.93359Q44.8682 5.93359 46.8311 3.95068Q48.7939 1.96777 48.7939-0.853516Q48.7939-3.66602 46.8311-5.65332Q44.8682-7.64062 42.0068-7.64062Q39.2031-7.64062 37.2114-5.65332Q35.2197-3.66602 35.2197-0.853516Q35.2197 1.96777 37.2114 3.95068Q39.2031 5.93359 42.0068 5.93359ZM77.7188 5.93359Q80.5312 5.93359 82.5142 3.95068Q84.4971 1.96777 84.4971-0.853516Q84.4971-3.66602 82.5142-5.65332Q80.5312-7.64062 77.7188-7.64062Q74.8662-7.64062 72.8789-5.65332Q70.8916-3.66602 70.8916-0.853516Q70.8916 1.96777 72.8789 3.95068Q74.8662 5.93359 77.7188 5.93359Z"/>
  </g>
  <g id="Regular-S" transform="matrix(1 0 0 1 1396.57 696)">
   <path d="M39.3066-13.3301L83.5449-13.3301Q84.8145-13.3301 85.7666-14.2822Q86.7188-15.2344 86.7188-16.6016Q86.7188-18.0176 85.7666-18.9697Q84.8145-19.9219 83.5449-19.9219L39.9414-19.9219Q38.4277-19.9219 37.5-20.9473Q36.5723-21.9727 36.3281-23.584L30.2734-65.2832Q29.8828-67.8223 28.6865-69.0918Q27.4902-70.3613 24.1699-70.3613L11.0352-70.3613Q9.76562-70.3613 8.78906-69.3848Q7.8125-68.4082 7.8125-67.0898Q7.8125-65.7715 8.78906-64.7949Q9.76562-63.8184 11.0352-63.8184L23.4863-63.8184L29.4434-22.7539Q30.127-18.4082 32.4951-15.8691Q34.8633-13.3301 39.3066-13.3301ZM32.0801-27.002L83.8867-27.002Q88.2324-27.002 90.625-29.5654Q93.0176-32.1289 93.6523-36.4258L96.6309-56.3477Q96.6797-56.7383 96.7285-57.1533Q96.7773-57.5684 96.7773-57.8125Q96.7773-59.3262 95.7275-60.2539Q94.6777-61.1816 92.9688-61.1816L29.0527-61.1816L29.0527-54.5898L89.3066-54.5898L86.8164-37.2559Q86.2793-33.5938 83.1543-33.5938L32.0312-33.5449ZM41.6992 5.37109Q44.3848 5.37109 46.2158 3.51562Q48.0469 1.66016 48.0469-0.976562Q48.0469-3.61328 46.2158-5.46875Q44.3848-7.32422 41.6992-7.32422Q39.0625-7.32422 37.207-5.46875Q35.3516-3.61328 35.3516-0.976562Q35.3516 1.66016 37.207 3.51562Q39.0625 5.37109 41.6992 5.37109ZM77.9297 5.37109Q80.5664 5.37109 82.4219 3.51562Q84.2773 1.66016 84.2773-0.976562Q84.2773-3.61328 82.4219-5.46875Q80.5664-7.32422 77.9297-7.32422Q75.2441-7.32422 73.3887-5.46875Q71.5332-3.61328 71.5332-0.976562Q71.5332 1.66016 73.3887 3.51562Q75.2441 5.37109 77.9297 5.37109Z"/>
  </g>
  <g id="Light-S" transform="matrix(1 0 0 1 1100.48 696)">
   <path d="M38.6103-13.648L83.5602-13.648Q84.5421-13.648 85.2748-14.3881Q86.0074-15.1283 86.0074-16.1776Q86.0074-17.276 85.2748-18.0086Q84.5421-18.7411 83.5602-18.7411L39.2301-18.7411Q37.5196-18.7411 36.4859-19.812Q35.4523-20.8829 35.1626-22.7211L28.775-65.9795Q28.4752-67.9283 27.5286-68.9177Q26.5821-69.9071 23.9883-69.9071L10.2936-69.9071Q9.29642-69.9071 8.55446-69.15Q7.8125-68.3929 7.8125-67.3775Q7.8125-66.3617 8.55446-65.6047Q9.29642-64.8476 10.2936-64.8476L23.5924-64.8476L29.8673-21.9821Q30.4598-18.1358 32.5556-15.8919Q34.6514-13.648 38.6103-13.648ZM31.6864-27.2291L83.4628-27.2291Q87.4756-27.2291 89.5805-29.5125Q91.6855-31.796 92.275-35.7145L95.3896-56.2719Q95.4384-56.602 95.4872-57.0095Q95.536-57.417 95.536-57.6309Q95.536-58.9478 94.6528-59.7468Q93.7696-60.5459 92.2724-60.5459L28.1143-60.5459L28.1898-55.4527L89.8214-55.4527L86.983-36.3174Q86.3853-32.3222 83.0332-32.3222L31.562-32.2886ZM42.0776 4.84136Q44.6421 4.84136 46.3975 3.06918Q48.1529 1.297 48.1529-1.23393Q48.1529-3.7646 46.3975-5.54441Q44.6421-7.32422 42.0776-7.32422Q39.5317-7.32422 37.7595-5.54441Q35.9873-3.7646 35.9873-1.23393Q35.9873 1.297 37.7595 3.06918Q39.5317 4.84136 42.0776 4.84136ZM77.5513 4.84136Q80.0972 4.84136 81.8694 3.06918Q83.6416 1.297 83.6416-1.23393Q83.6416-3.7646 81.8694-5.54441Q80.0972-7.32422 77.5513-7.32422Q74.9868-7.32422 73.207-5.54441Q71.4272-3.7646 71.4272-1.23393Q71.4272 1.297 73.207 3.06918Q74.9868 4.84136 77.5513 4.84136Z"/>
  </g>
  <g id="Thin-S" transform="matrix(1 0 0 1 804.592 696)">
   <path d="M37.6894-14.0684L83.5804-14.0684Q84.1819-14.0684 84.6243-14.5282Q85.0667-14.9881 85.0667-15.6169Q85.0667-16.2952 84.6243-16.7373Q84.1819-17.1794 83.5804-17.1794L38.2893-17.1794Q36.3185-17.1794 35.1447-18.3105Q33.971-19.4417 33.6211-21.5799L26.7933-66.9004Q26.6135-68.0686 25.9972-68.6875Q25.381-69.3064 23.7482-69.3064L9.31278-69.3064Q8.67585-69.3064 8.24418-68.8396Q7.8125-68.3728 7.8125-67.7579Q7.8125-67.1424 8.24418-66.6756Q8.67585-66.2088 9.31278-66.2088L23.7326-66.2088L30.428-20.9612Q30.9001-17.7756 32.6357-15.922Q34.3713-14.0684 37.6894-14.0684ZM31.1657-27.5294L82.9021-27.5294Q86.4746-27.5294 88.1991-29.4426Q89.9237-31.3557 90.4533-34.7737L93.7478-56.1716Q93.7967-56.4217 93.8455-56.8193Q93.8943-57.2169 93.8943-57.3908Q93.8943-58.4473 93.2314-59.0761Q92.5685-59.705 91.3515-59.705L26.8732-59.705L27.0486-56.594L90.5021-56.594L87.2033-35.0763Q86.5256-30.6404 82.8731-30.6404L30.9415-30.627ZM42.5781 4.14074Q44.9825 4.14074 46.6378 2.47872Q48.2932 0.81669 48.2932-1.57431Q48.2932-3.96473 46.6378-5.64447Q44.9825-7.32422 42.5781-7.32422Q40.1523-7.32422 38.4902-5.64447Q36.8282-3.96473 36.8282-1.57431Q36.8282 0.81669 38.4902 2.47872Q40.1523 4.14074 42.5781 4.14074ZM77.0508 4.14074Q79.4766 4.14074 81.1387 2.47872Q82.8007 0.81669 82.8007-1.57431Q82.8007-3.96473 81.1387-5.64447Q79.4766-7.32422 77.0508-7.32422Q74.6464-7.32422 72.9666-5.64447Q71.2869-3.96473 71.2869-1.57431Q71.2869 0.81669 72.9666 2.47872Q74.6464 4.14074 77.0508 4.14074Z"/>
  </g>
  <g id="Ultralight-S" transform="matrix(1 0 0 1 508.301 696)">
   <path d="M37.2177-14.2838L83.5907-14.2838Q83.9973-14.2838 84.2911-14.6Q84.5848-14.9162 84.5848-15.3297Q84.5848-15.7928 84.2911-16.0862Q83.9973-16.3795 83.5907-16.3795L37.8075-16.3795Q35.7033-16.3795 34.4578-17.5415Q33.2123-18.7035 32.8316-20.9953L25.7782-67.3721Q25.6599-68.1404 25.2129-68.5696Q24.7658-68.9987 23.6252-68.9987L8.81042-68.9987Q8.358-68.9987 8.08525-68.6806Q7.8125-68.3624 7.8125-67.9527Q7.8125-67.5423 8.08525-67.2241Q8.358-66.906 8.81042-66.906L23.8045-66.906L30.7152-20.4384Q31.1256-17.5911 32.6767-15.9374Q34.2278-14.2838 37.2177-14.2838ZM30.899-27.6833L82.6149-27.6833Q85.9619-27.6833 87.4916-29.4067Q89.0213-31.1302 89.5203-34.2918L92.907-56.1203Q92.9558-56.3293 93.0046-56.7219Q93.0534-57.1144 93.0534-57.2678Q93.0534-58.1909 92.5034-58.7326Q91.9533-59.2743 90.8798-59.2743L26.2375-59.2743L26.4641-57.1785L90.8508-57.1785L87.3161-34.4406Q86.5974-29.7791 82.7911-29.7791L30.6236-29.776ZM42.8345 3.78189Q45.1569 3.78189 46.7609 2.17628Q48.365 0.570679 48.365-1.74866Q48.365-4.06723 46.7609-5.69572Q45.1569-7.32422 42.8345-7.32422Q40.4701-7.32422 38.8645-5.69572Q37.2589-4.06723 37.2589-1.74866Q37.2589 0.570679 38.8645 2.17628Q40.4701 3.78189 42.8345 3.78189ZM76.7944 3.78189Q79.1588 3.78189 80.7644 2.17628Q82.37 0.570679 82.37-1.74866Q82.37-4.06723 80.7644-5.69572Q79.1588-7.32422 76.7944-7.32422Q74.472-7.32422 72.8436-5.69572Q71.2151-4.06723 71.2151-1.74866Q71.2151 0.570679 72.8436 2.17628Q74.472 3.78189 76.7944 3.78189Z"/>
  </g>
 </g>
</svg>
