<?xml version="1.0" encoding="UTF-8"?>
<!--Generator: Apple Native CoreSVG 175-->
<!DOCTYPE svg
PUBLIC "-//W3C//DTD SVG 1.1//EN"
       "http://www.w3.org/Graphics/SVG/1.1/DTD/svg11.dtd">
<svg version="1.1" xmlns="http://www.w3.org/2000/svg" xmlns:xlink="http://www.w3.org/1999/xlink" width="3300" height="2200">
 <!--glyph: "uni100307.medium", point size: 100.0, font version: "17.1d1e1", template writer version: "65.1"-->
 <g id="Notes">
  <rect height="2200" id="artboard" style="fill:white;opacity:1" width="3300" x="0" y="0"/>
  <line style="fill:none;stroke:black;opacity:1;stroke-width:0.5;" x1="263" x2="3036" y1="292" y2="292"/>
  <text style="stroke:none;fill:black;font-family:sans-serif;font-size:13;font-weight:bold;" transform="matrix(1 0 0 1 263 322)">Weight/Scale Variations</text>
  <text style="stroke:none;fill:black;font-family:sans-serif;font-size:13;text-anchor:middle;" transform="matrix(1 0 0 1 559.711 322)">Ultralight</text>
  <text style="stroke:none;fill:black;font-family:sans-serif;font-size:13;text-anchor:middle;" transform="matrix(1 0 0 1 856.422 322)">Thin</text>
  <text style="stroke:none;fill:black;font-family:sans-serif;font-size:13;text-anchor:middle;" transform="matrix(1 0 0 1 1153.13 322)">Light</text>
  <text style="stroke:none;fill:black;font-family:sans-serif;font-size:13;text-anchor:middle;" transform="matrix(1 0 0 1 1449.84 322)">Regular</text>
  <text style="stroke:none;fill:black;font-family:sans-serif;font-size:13;text-anchor:middle;" transform="matrix(1 0 0 1 1746.56 322)">Medium</text>
  <text style="stroke:none;fill:black;font-family:sans-serif;font-size:13;text-anchor:middle;" transform="matrix(1 0 0 1 2043.27 322)">Semibold</text>
  <text style="stroke:none;fill:black;font-family:sans-serif;font-size:13;text-anchor:middle;" transform="matrix(1 0 0 1 2339.98 322)">Bold</text>
  <text style="stroke:none;fill:black;font-family:sans-serif;font-size:13;text-anchor:middle;" transform="matrix(1 0 0 1 2636.69 322)">Heavy</text>
  <text style="stroke:none;fill:black;font-family:sans-serif;font-size:13;text-anchor:middle;" transform="matrix(1 0 0 1 2933.4 322)">Black</text>
  <line style="fill:none;stroke:black;opacity:1;stroke-width:0.5;" x1="263" x2="3036" y1="1903" y2="1903"/>
  <g transform="matrix(1 0 0 1 263 1933)">
   <path d="M9.24805 0.830078Q10.8691 0.830078 12.2949 0.214844Q13.7207-0.400391 14.8096-1.49414Q15.8984-2.58789 16.5186-4.01367Q17.1387-5.43945 17.1387-7.05078Q17.1387-8.66211 16.5186-10.0879Q15.8984-11.5137 14.8047-12.6074Q13.7109-13.7012 12.2852-14.3164Q10.8594-14.9316 9.23828-14.9316Q7.62695-14.9316 6.20117-14.3164Q4.77539-13.7012 3.69141-12.6074Q2.60742-11.5137 1.9873-10.0879Q1.36719-8.66211 1.36719-7.05078Q1.36719-5.43945 1.9873-4.01367Q2.60742-2.58789 3.69629-1.49414Q4.78516-0.400391 6.21094 0.214844Q7.63672 0.830078 9.24805 0.830078ZM9.24805-0.654297Q7.91992-0.654297 6.7627-1.14746Q5.60547-1.64062 4.73145-2.51953Q3.85742-3.39844 3.36426-4.56055Q2.87109-5.72266 2.87109-7.05078Q2.87109-8.37891 3.35938-9.54102Q3.84766-10.7031 4.72168-11.582Q5.5957-12.4609 6.75293-12.9541Q7.91016-13.4473 9.23828-13.4473Q10.5762-13.4473 11.7334-12.9541Q12.8906-12.4609 13.7695-11.582Q14.6484-10.7031 15.1465-9.54102Q15.6445-8.37891 15.6445-7.05078Q15.6445-5.72266 15.1514-4.56055Q14.6582-3.39844 13.7842-2.51953Q12.9102-1.64062 11.748-1.14746Q10.5859-0.654297 9.24805-0.654297ZM5.6543-7.05078Q5.6543-6.72852 5.85938-6.52832Q6.06445-6.32812 6.40625-6.32812L8.51562-6.32812L8.51562-4.20898Q8.51562-3.88672 8.71094-3.67676Q8.90625-3.4668 9.23828-3.4668Q9.56055-3.4668 9.77051-3.67676Q9.98047-3.88672 9.98047-4.20898L9.98047-6.32812L12.0898-6.32812Q12.4219-6.32812 12.627-6.52832Q12.832-6.72852 12.832-7.05078Q12.832-7.38281 12.627-7.58789Q12.4219-7.79297 12.0898-7.79297L9.98047-7.79297L9.98047-9.90234Q9.98047-10.2344 9.77051-10.4443Q9.56055-10.6543 9.23828-10.6543Q8.90625-10.6543 8.71094-10.4443Q8.51562-10.2344 8.51562-9.90234L8.51562-7.79297L6.40625-7.79297Q6.06445-7.79297 5.85938-7.58789Q5.6543-7.38281 5.6543-7.05078Z"/>
  </g>
  <g transform="matrix(1 0 0 1 281.867 1933)">
   <path d="M11.709 2.91016Q13.75 2.91016 15.5518 2.12891Q17.3535 1.34766 18.7305-0.0292969Q20.1074-1.40625 20.8887-3.20801Q21.6699-5.00977 21.6699-7.05078Q21.6699-9.0918 20.8887-10.8936Q20.1074-12.6953 18.7305-14.0723Q17.3535-15.4492 15.5469-16.2305Q13.7402-17.0117 11.6992-17.0117Q9.6582-17.0117 7.85645-16.2305Q6.05469-15.4492 4.68262-14.0723Q3.31055-12.6953 2.5293-10.8936Q1.74805-9.0918 1.74805-7.05078Q1.74805-5.00977 2.5293-3.20801Q3.31055-1.40625 4.6875-0.0292969Q6.06445 1.34766 7.86621 2.12891Q9.66797 2.91016 11.709 2.91016ZM11.709 1.25Q9.98047 1.25 8.47656 0.605469Q6.97266-0.0390625 5.83496-1.17676Q4.69727-2.31445 4.05762-3.81836Q3.41797-5.32227 3.41797-7.05078Q3.41797-8.7793 4.05762-10.2832Q4.69727-11.7871 5.83008-12.9297Q6.96289-14.0723 8.4668-14.7119Q9.9707-15.3516 11.6992-15.3516Q13.4277-15.3516 14.9316-14.7119Q16.4355-14.0723 17.5781-12.9297Q18.7207-11.7871 19.3652-10.2832Q20.0098-8.7793 20.0098-7.05078Q20.0098-5.32227 19.3701-3.81836Q18.7305-2.31445 17.5928-1.17676Q16.4551-0.0390625 14.9463 0.605469Q13.4375 1.25 11.709 1.25ZM7.17773-7.05078Q7.17773-6.69922 7.41211-6.47461Q7.64648-6.25 8.01758-6.25L10.8887-6.25L10.8887-3.36914Q10.8887-2.99805 11.1133-2.76855Q11.3379-2.53906 11.6895-2.53906Q12.0605-2.53906 12.29-2.76855Q12.5195-2.99805 12.5195-3.36914L12.5195-6.25L15.4004-6.25Q15.7715-6.25 16.001-6.47461Q16.2305-6.69922 16.2305-7.05078Q16.2305-7.42188 16.001-7.65137Q15.7715-7.88086 15.4004-7.88086L12.5195-7.88086L12.5195-10.752Q12.5195-11.1328 12.29-11.3623Q12.0605-11.5918 11.6895-11.5918Q11.3379-11.5918 11.1133-11.3574Q10.8887-11.123 10.8887-10.752L10.8887-7.88086L8.01758-7.88086Q7.63672-7.88086 7.40723-7.65137Q7.17773-7.42188 7.17773-7.05078Z"/>
  </g>
  <g transform="matrix(1 0 0 1 305.646 1933)">
   <path d="M14.9707 5.66406Q17.0605 5.66406 18.96 5.01465Q20.8594 4.36523 22.4512 3.19336Q24.043 2.02148 25.2197 0.429688Q26.3965-1.16211 27.0459-3.06641Q27.6953-4.9707 27.6953-7.05078Q27.6953-9.14062 27.0459-11.04Q26.3965-12.9395 25.2197-14.5312Q24.043-16.123 22.4512-17.2998Q20.8594-18.4766 18.9551-19.126Q17.0508-19.7754 14.9609-19.7754Q12.8711-19.7754 10.9717-19.126Q9.07227-18.4766 7.48535-17.2998Q5.89844-16.123 4.72168-14.5312Q3.54492-12.9395 2.90039-11.04Q2.25586-9.14062 2.25586-7.05078Q2.25586-4.9707 2.90527-3.06641Q3.55469-1.16211 4.72656 0.429688Q5.89844 2.02148 7.49023 3.19336Q9.08203 4.36523 10.9814 5.01465Q12.8809 5.66406 14.9707 5.66406ZM14.9707 3.84766Q13.1641 3.84766 11.5283 3.2959Q9.89258 2.74414 8.53516 1.74805Q7.17773 0.751953 6.17676-0.610352Q5.17578-1.97266 4.62891-3.6084Q4.08203-5.24414 4.08203-7.05078Q4.08203-8.86719 4.62891-10.5029Q5.17578-12.1387 6.17188-13.501Q7.16797-14.8633 8.52539-15.8594Q9.88281-16.8555 11.5186-17.4023Q13.1543-17.9492 14.9609-17.9492Q16.7773-17.9492 18.4131-17.4023Q20.0488-16.8555 21.4111-15.8594Q22.7734-14.8633 23.7695-13.501Q24.7656-12.1387 25.3174-10.5029Q25.8691-8.86719 25.8691-7.05078Q25.8789-5.24414 25.332-3.6084Q24.7852-1.97266 23.7842-0.610352Q22.7832 0.751953 21.4209 1.74805Q20.0586 2.74414 18.4229 3.2959Q16.7871 3.84766 14.9707 3.84766ZM9.19922-7.05078Q9.19922-6.66992 9.45801-6.4209Q9.7168-6.17188 10.1172-6.17188L14.0625-6.17188L14.0625-2.2168Q14.0625-1.81641 14.3115-1.55762Q14.5605-1.29883 14.9512-1.29883Q15.3516-1.29883 15.6104-1.55273Q15.8691-1.80664 15.8691-2.2168L15.8691-6.17188L19.8242-6.17188Q20.2246-6.17188 20.4785-6.4209Q20.7324-6.66992 20.7324-7.05078Q20.7324-7.46094 20.4785-7.71484Q20.2246-7.96875 19.8242-7.96875L15.8691-7.96875L15.8691-11.9141Q15.8691-12.3242 15.6104-12.583Q15.3516-12.8418 14.9512-12.8418Q14.5605-12.8418 14.3115-12.583Q14.0625-12.3242 14.0625-11.9141L14.0625-7.96875L10.1172-7.96875Q9.70703-7.96875 9.45312-7.71484Q9.19922-7.46094 9.19922-7.05078Z"/>
  </g>
  <text style="stroke:none;fill:black;font-family:sans-serif;font-size:13;font-weight:bold;" transform="matrix(1 0 0 1 263 1953)">Design Variations</text>
  <text style="stroke:none;fill:black;font-family:sans-serif;font-size:13;" transform="matrix(1 0 0 1 263 1971)">Symbols are supported in up to nine weights and three scales.</text>
  <text style="stroke:none;fill:black;font-family:sans-serif;font-size:13;" transform="matrix(1 0 0 1 263 1989)">For optimal layout with text and other symbols, vertically align</text>
  <text style="stroke:none;fill:black;font-family:sans-serif;font-size:13;" transform="matrix(1 0 0 1 263 2007)">symbols with the adjacent text.</text>
  <line style="fill:none;stroke:#00AEEF;stroke-width:0.5;opacity:1.0;" x1="776" x2="776" y1="1919" y2="1933"/>
  <g transform="matrix(1 0 0 1 776 1933)">
   <path d="M3.31055 0.15625Q3.70117 0.15625 3.91602-0.00976562Q4.13086-0.175781 4.26758-0.585938L5.52734-4.0332L11.2891-4.0332L12.5488-0.585938Q12.6855-0.175781 12.9004-0.00976562Q13.1152 0.15625 13.4961 0.15625Q13.8867 0.15625 14.1162-0.0585938Q14.3457-0.273438 14.3457-0.644531Q14.3457-0.869141 14.2383-1.17188L9.6582-13.3691Q9.48242-13.8184 9.17969-14.043Q8.87695-14.2676 8.4082-14.2676Q7.5-14.2676 7.17773-13.3789L2.59766-1.16211Q2.49023-0.859375 2.49023-0.634766Q2.49023-0.263672 2.70996-0.0537109Q2.92969 0.15625 3.31055 0.15625ZM6.00586-5.51758L8.37891-12.0898L8.42773-12.0898L10.8008-5.51758Z"/>
  </g>
  <line style="fill:none;stroke:#00AEEF;stroke-width:0.5;opacity:1.0;" x1="793.197" x2="793.197" y1="1919" y2="1933"/>
  <text style="stroke:none;fill:black;font-family:sans-serif;font-size:13;font-weight:bold;" transform="matrix(1 0 0 1 776 1953)">Margins</text>
  <text style="stroke:none;fill:black;font-family:sans-serif;font-size:13;" transform="matrix(1 0 0 1 776 1971)">Leading and trailing margins on the left and right side of each symbol</text>
  <text style="stroke:none;fill:black;font-family:sans-serif;font-size:13;" transform="matrix(1 0 0 1 776 1989)">can be adjusted by modifying the x-location of the margin guidelines.</text>
  <text style="stroke:none;fill:black;font-family:sans-serif;font-size:13;" transform="matrix(1 0 0 1 776 2007)">Modifications are automatically applied proportionally to all</text>
  <text style="stroke:none;fill:black;font-family:sans-serif;font-size:13;" transform="matrix(1 0 0 1 776 2025)">scales and weights.</text>
  <g transform="matrix(1 0 0 1 1289 1933)">
   <path d="M2.8418 1.86523L4.54102 3.57422Q5.18555 4.22852 5.90332 4.17969Q6.62109 4.13086 7.31445 3.35938L18.0078-8.42773L17.041-9.4043L6.42578 2.27539Q6.16211 2.57812 5.89355 2.61719Q5.625 2.65625 5.27344 2.30469L4.10156 1.14258Q3.75 0.791016 3.79395 0.522461Q3.83789 0.253906 4.14062-0.0195312L15.6152-10.8203L14.6387-11.7871L3.04688-0.898438Q2.30469-0.214844 2.25098 0.498047Q2.19727 1.21094 2.8418 1.86523ZM9.25781-16.3281Q8.94531-16.0254 8.90625-15.6348Q8.86719-15.2441 9.04297-14.9512Q9.21875-14.6777 9.55566-14.541Q9.89258-14.4043 10.3809-14.5215Q11.4746-14.7754 12.5977-14.7314Q13.7207-14.6875 14.7949-13.9844L14.209-12.5293Q13.9551-11.9043 14.0674-11.4404Q14.1797-10.9766 14.5801-10.5664L16.875-8.25195Q17.2363-7.88086 17.5781-7.82227Q17.9199-7.76367 18.3398-7.8418L19.4043-8.03711L20.0684-7.36328L20.0293-6.80664Q20-6.43555 20.1221-6.12305Q20.2441-5.81055 20.6055-5.44922L21.3672-4.70703Q21.7285-4.3457 22.1533-4.33105Q22.5781-4.31641 22.9297-4.66797L25.8398-7.58789Q26.1914-7.93945 26.1816-8.35449Q26.1719-8.76953 25.8105-9.13086L25.0391-9.89258Q24.6875-10.2539 24.3799-10.3857Q24.0723-10.5176 23.7109-10.4883L23.1348-10.4395L22.4902-11.0742L22.7344-12.1973Q22.832-12.6172 22.6953-12.9834Q22.5586-13.3496 22.1191-13.7891L19.9219-15.9766Q18.6719-17.2168 17.2607-17.8369Q15.8496-18.457 14.4189-18.4814Q12.9883-18.5059 11.665-17.959Q10.3418-17.4121 9.25781-16.3281ZM10.752-15.957Q11.6602-16.6211 12.7002-16.9043Q13.7402-17.1875 14.8047-17.085Q15.8691-16.9824 16.8701-16.5137Q17.8711-16.0449 18.7012-15.2051L21.1328-12.793Q21.3086-12.6172 21.3525-12.4512Q21.3965-12.2852 21.3379-12.0312L21.0156-10.5469L22.5195-9.0625L23.5059-9.12109Q23.6914-9.13086 23.7891-9.09668Q23.8867-9.0625 24.0332-8.91602L24.6094-8.33984L22.168-5.89844L21.5918-6.47461Q21.4453-6.62109 21.4062-6.71875Q21.3672-6.81641 21.377-7.01172L21.4453-7.98828L19.9512-9.47266L18.4277-9.21875Q18.1836-9.16992 18.042-9.2041Q17.9004-9.23828 17.7148-9.41406L15.7129-11.416Q15.5176-11.5918 15.4932-11.7529Q15.4688-11.9141 15.5859-12.1875L16.4648-14.2773Q15.293-15.3711 13.8281-15.791Q12.3633-16.2109 10.8398-15.7617Q10.7227-15.7324 10.6885-15.8057Q10.6543-15.8789 10.752-15.957Z"/>
  </g>
  <text style="stroke:none;fill:black;font-family:sans-serif;font-size:13;font-weight:bold;" transform="matrix(1 0 0 1 1289 1953)">Exporting</text>
  <text style="stroke:none;fill:black;font-family:sans-serif;font-size:13;" transform="matrix(1 0 0 1 1289 1971)">Symbols should be outlined when exporting to ensure the</text>
  <text style="stroke:none;fill:black;font-family:sans-serif;font-size:13;" transform="matrix(1 0 0 1 1289 1989)">design is preserved when submitting to Xcode.</text>
  <text id="template-version" style="stroke:none;fill:black;font-family:sans-serif;font-size:13;text-anchor:end;" transform="matrix(1 0 0 1 3036 1933)">Template v.3.0</text>
  <text style="stroke:none;fill:black;font-family:sans-serif;font-size:13;text-anchor:end;" transform="matrix(1 0 0 1 3036 1951)">Requires Xcode 13 or greater</text>
  <text id="descriptive-name" style="stroke:none;fill:black;font-family:sans-serif;font-size:13;text-anchor:end;" transform="matrix(1 0 0 1 3036 1969)">Generated from line.3.horizontal</text>
  <text style="stroke:none;fill:black;font-family:sans-serif;font-size:13;text-anchor:end;" transform="matrix(1 0 0 1 3036 1987)">Typeset at 100 points</text>
  <text style="stroke:none;fill:black;font-family:sans-serif;font-size:13;" transform="matrix(1 0 0 1 263 726)">Small</text>
  <text style="stroke:none;fill:black;font-family:sans-serif;font-size:13;" transform="matrix(1 0 0 1 263 1156)">Medium</text>
  <text style="stroke:none;fill:black;font-family:sans-serif;font-size:13;" transform="matrix(1 0 0 1 263 1586)">Large</text>
 </g>
 <g id="Guides">
  <g id="H-reference" style="fill:#27AAE1;stroke:none;" transform="matrix(1 0 0 1 339 696)">
   <path d="M0.993347 0L3.6377 0L29.3282-67.1326L30.0301-67.1326L30.0301-70.459L28.1227-70.459ZM11.6882-24.4797L46.9818-24.4797L46.2311-26.7288L12.4382-26.7288ZM55.1193 0L57.7637 0L30.6381-70.459L29.4327-70.459L29.4327-67.1326Z"/>
  </g>
  <line id="Baseline-S" style="fill:none;stroke:#27AAE1;opacity:1;stroke-width:0.5;" x1="263" x2="3036" y1="696" y2="696"/>
  <line id="Capline-S" style="fill:none;stroke:#27AAE1;opacity:1;stroke-width:0.5;" x1="263" x2="3036" y1="625.541" y2="625.541"/>
  <g id="H-reference" style="fill:#27AAE1;stroke:none;" transform="matrix(1 0 0 1 339 1126)">
   <path d="M0.993347 0L3.6377 0L29.3282-67.1326L30.0301-67.1326L30.0301-70.459L28.1227-70.459ZM11.6882-24.4797L46.9818-24.4797L46.2311-26.7288L12.4382-26.7288ZM55.1193 0L57.7637 0L30.6381-70.459L29.4327-70.459L29.4327-67.1326Z"/>
  </g>
  <line id="Baseline-M" style="fill:none;stroke:#27AAE1;opacity:1;stroke-width:0.5;" x1="263" x2="3036" y1="1126" y2="1126"/>
  <line id="Capline-M" style="fill:none;stroke:#27AAE1;opacity:1;stroke-width:0.5;" x1="263" x2="3036" y1="1055.54" y2="1055.54"/>
  <g id="H-reference" style="fill:#27AAE1;stroke:none;" transform="matrix(1 0 0 1 339 1556)">
   <path d="M0.993347 0L3.6377 0L29.3282-67.1326L30.0301-67.1326L30.0301-70.459L28.1227-70.459ZM11.6882-24.4797L46.9818-24.4797L46.2311-26.7288L12.4382-26.7288ZM55.1193 0L57.7637 0L30.6381-70.459L29.4327-70.459L29.4327-67.1326Z"/>
  </g>
  <line id="Baseline-L" style="fill:none;stroke:#27AAE1;opacity:1;stroke-width:0.5;" x1="263" x2="3036" y1="1556" y2="1556"/>
  <line id="Capline-L" style="fill:none;stroke:#27AAE1;opacity:1;stroke-width:0.5;" x1="263" x2="3036" y1="1485.54" y2="1485.54"/>
  <line id="left-margin-Regular-M" style="fill:none;stroke:#00AEEF;stroke-width:0.5;opacity:1.0;" x1="1388.01" x2="1388.01" y1="1030.79" y2="1150.12"/>
  <line id="right-margin-Regular-M" style="fill:none;stroke:#00AEEF;stroke-width:0.5;opacity:1.0;" x1="1511.68" x2="1511.68" y1="1030.79" y2="1150.12"/>
 </g>
 <g id="Symbols">
  <g id="Black-L" transform="matrix(1 0 0 1 2849.91 1556)">
   <path d="M24.8023 5.23842L142.159 5.23842Q145.846 5.23842 148.372 2.51885Q150.898-0.200714 150.898-3.79273Q150.898-7.48071 148.372-10.1523Q145.846-12.8239 142.159-12.8239L24.8023-12.8239Q21.1727-12.8239 18.6283-10.1231Q16.084-7.42231 16.084-3.79273Q16.084-0.317527 18.6283 2.46045Q21.1727 5.23842 24.8023 5.23842ZM24.8023-26.213L142.159-26.213Q145.846-26.213 148.372-28.9429Q150.898-31.6729 150.898-35.2441Q150.898-38.9529 148.372-41.6141Q145.846-44.2752 142.159-44.2752L24.8023-44.2752Q21.1727-44.2752 18.6283-41.5849Q16.084-38.8945 16.084-35.2441Q16.084-31.7897 18.6283-29.0013Q21.1727-26.213 24.8023-26.213ZM24.8023-57.6267L142.159-57.6267Q145.846-57.6267 148.372-60.3463Q150.898-63.0659 150.898-66.6371Q150.898-70.3459 148.372-73.007Q145.846-75.6682 142.159-75.6682L24.8023-75.6682Q21.1727-75.6682 18.6283-72.9778Q16.084-70.2875 16.084-66.6371Q16.084-63.1827 18.6283-60.4047Q21.1727-57.6267 24.8023-57.6267Z"/>
  </g>
  <g id="Heavy-L" transform="matrix(1 0 0 1 2554.11 1556)">
   <path d="M23.7908 3.3175L141.33 3.3175Q144.58 3.3175 146.823 0.935458Q149.067-1.44658 149.067-4.64267Q149.067-7.89768 146.823-10.2502Q144.58-12.6027 141.33-12.6027L23.7908-12.6027Q20.5803-12.6027 18.3322-10.2279Q16.084-7.85305 16.084-4.64267Q16.084-1.53583 18.3322 0.890835Q20.5803 3.3175 23.7908 3.3175ZM23.7908-27.257L141.33-27.257Q144.58-27.257 146.823-29.6541Q149.067-32.0513 149.067-35.217Q149.067-38.5024 146.823-40.8398Q144.58-43.1772 141.33-43.1772L23.7908-43.1772Q20.5803-43.1772 18.3322-40.8175Q16.084-38.4577 16.084-35.217Q16.084-32.1405 18.3322-29.6987Q20.5803-27.257 23.7908-27.257ZM23.7908-57.8169L141.33-57.8169Q144.58-57.8169 146.823-60.199Q149.067-62.5811 149.067-65.7469Q149.067-69.0321 146.823-71.3696Q144.58-73.707 141.33-73.707L23.7908-73.707Q20.5803-73.707 18.3322-71.3472Q16.084-68.9875 16.084-65.7469Q16.084-62.6703 18.3322-60.2436Q20.5803-57.8169 23.7908-57.8169Z"/>
  </g>
  <g id="Bold-L" transform="matrix(1 0 0 1 2258.51 1556)">
   <path d="M22.5308 1.17402L140.36 1.17402Q143.064 1.17402 144.955-0.792963Q146.845-2.75995 146.845-5.45696Q146.845-8.17407 144.955-10.1309Q143.064-12.0877 140.36-12.0877L22.5308-12.0877Q19.8427-12.0877 17.9634-10.1163Q16.084-8.14486 16.084-5.45696Q16.084-2.81835 17.9634-0.822167Q19.8427 1.17402 22.5308 1.17402ZM22.5308-28.5479L140.36-28.5479Q143.064-28.5479 144.955-30.534Q146.845-32.52 146.845-35.1787Q146.845-37.9341 144.955-39.8719Q143.064-41.8097 140.36-41.8097L22.5308-41.8097Q19.8427-41.8097 17.9634-39.8573Q16.084-37.9049 16.084-35.1787Q16.084-32.5784 17.9634-30.5632Q19.8427-28.5479 22.5308-28.5479ZM22.5308-58.2786L140.36-58.2786Q143.064-58.2786 144.955-60.2457Q146.845-62.2128 146.845-64.8714Q146.845-67.6267 144.955-69.5645Q143.064-71.5024 140.36-71.5024L22.5308-71.5024Q19.8427-71.5024 17.9634-69.5499Q16.084-67.5974 16.084-64.8714Q16.084-62.2712 17.9634-60.2749Q19.8427-58.2786 22.5308-58.2786Z"/>
  </g>
  <g id="Semibold-L" transform="matrix(1 0 0 1 1962.57 1556)">
   <path d="M21.6622-0.303682L139.692-0.303682Q142.02-0.303682 143.666-1.98453Q145.313-3.66537 145.313-6.01833Q145.313-8.36461 143.666-10.0486Q142.02-11.7327 139.692-11.7327L21.6622-11.7327Q19.3342-11.7327 17.7091-10.0394Q16.084-8.34603 16.084-6.01833Q16.084-3.70252 17.7091-2.0031Q19.3342-0.303682 21.6622-0.303682ZM21.6622-29.4379L139.692-29.4379Q142.02-29.4379 143.666-31.1405Q145.313-32.8431 145.313-35.1523Q145.313-37.5424 143.666-39.2047Q142.02-40.8669 139.692-40.8669L21.6622-40.8669Q19.3342-40.8669 17.7091-39.1954Q16.084-37.5238 16.084-35.1523Q16.084-32.8803 17.7091-31.1591Q19.3342-29.4379 21.6622-29.4379ZM21.6622-58.5968L139.692-58.5968Q142.02-58.5968 143.666-60.2778Q145.313-61.9588 145.313-64.268Q145.313-66.6578 143.666-68.3202Q142.02-69.9826 139.692-69.9826L21.6622-69.9826Q19.3342-69.9826 17.7091-68.3109Q16.084-66.6392 16.084-64.268Q16.084-61.996 17.7091-60.2964Q19.3342-58.5968 21.6622-58.5968Z"/>
  </g>
  <g id="Medium-L" transform="matrix(1 0 0 1 1666.44 1556)">
   <path d="M21.0036-1.42414L139.185-1.42414Q141.227-1.42414 142.689-2.88802Q144.151-4.3519 144.151-6.44399Q144.151-8.50908 142.689-9.98627Q141.227-11.4635 139.185-11.4635L21.0036-11.4635Q18.9487-11.4635 17.5163-9.98102Q16.084-8.49857 16.084-6.44399Q16.084-4.37293 17.5163-2.89853Q18.9487-1.42414 21.0036-1.42414ZM21.0036-30.1128L139.185-30.1128Q141.227-30.1128 142.689-31.6005Q144.151-33.0882 144.151-35.1322Q144.151-37.2454 142.689-38.6987Q141.227-40.1521 139.185-40.1521L21.0036-40.1521Q18.9487-40.1521 17.5163-38.6935Q16.084-37.2348 16.084-35.1322Q16.084-33.1092 17.5163-31.611Q18.9487-30.1128 21.0036-30.1128ZM21.0036-58.8381L139.185-58.8381Q141.227-58.8381 142.689-60.3022Q144.151-61.7663 144.151-63.8104Q144.151-65.9231 142.689-67.3766Q141.227-68.8302 139.185-68.8302L21.0036-68.8302Q18.9487-68.8302 17.5163-67.3714Q16.084-65.9126 16.084-63.8104Q16.084-61.7873 17.5163-60.3127Q18.9487-58.8381 21.0036-58.8381Z"/>
  </g>
  <g id="Regular-L" transform="matrix(1 0 0 1 1370.48 1556)">
   <path d="M20.1446-2.8856L138.523-2.8856Q140.194-2.8856 141.415-4.06649Q142.636-5.24738 142.636-6.99919Q142.636-8.69753 141.415-9.90492Q140.194-11.1123 138.523-11.1123L20.1446-11.1123Q18.4458-11.1123 17.2649-9.90492Q16.084-8.69753 16.084-6.99919Q16.084-5.24738 17.2649-4.06649Q18.4458-2.8856 20.1446-2.8856ZM20.1446-30.993L138.523-30.993Q140.194-30.993 141.415-32.2004Q142.636-33.4078 142.636-35.1061Q142.636-36.8579 141.415-38.0388Q140.194-39.2197 138.523-39.2197L20.1446-39.2197Q18.4458-39.2197 17.2649-38.0388Q16.084-36.8579 16.084-35.1061Q16.084-33.4078 17.2649-32.2004Q18.4458-30.993 20.1446-30.993ZM20.1446-59.1529L138.523-59.1529Q140.194-59.1529 141.415-60.334Q142.636-61.5151 142.636-63.2135Q142.636-64.9648 141.415-66.146Q140.194-67.3271 138.523-67.3271L20.1446-67.3271Q18.4458-67.3271 17.2649-66.146Q16.084-64.9648 16.084-63.2135Q16.084-61.5151 17.2649-60.334Q18.4458-59.1529 20.1446-59.1529Z"/>
  </g>
  <g id="Light-L" transform="matrix(1 0 0 1 1074.39 1556)">
   <path d="M19.2285-2.84744L138.218-2.84744Q139.488-2.84744 140.442-3.76106Q141.396-4.67469 141.396-6.026Q141.396-7.34244 140.442-8.27311Q139.488-9.20377 138.218-9.20377L19.2285-9.20377Q17.9112-9.20377 16.9976-8.27311Q16.084-7.34244 16.084-6.026Q16.084-4.67469 16.9976-3.76106Q17.9112-2.84744 19.2285-2.84744ZM19.2285-31.8709L138.218-31.8709Q139.488-31.8709 140.442-32.8016Q141.396-33.7323 141.396-35.0487Q141.396-36.4 140.442-37.3136Q139.488-38.2273 138.218-38.2273L19.2285-38.2273Q17.9112-38.2273 16.9976-37.3136Q16.084-36.4 16.084-35.0487Q16.084-33.7323 16.9976-32.8016Q17.9112-31.8709 19.2285-31.8709ZM19.2285-60.9277L138.218-60.9277Q139.488-60.9277 140.442-61.8417Q141.396-62.7558 141.396-64.0722Q141.396-65.4227 140.442-66.3367Q139.488-67.2508 138.218-67.2508L19.2285-67.2508Q17.9112-67.2508 16.9976-66.3367Q16.084-65.4227 16.084-64.0722Q16.084-62.7558 16.9976-61.8417Q17.9112-60.9277 19.2285-60.9277Z"/>
  </g>
  <g id="Thin-L" transform="matrix(1 0 0 1 778.503 1556)">
   <path d="M18.0168-2.79697L137.814-2.79697Q138.554-2.79697 139.155-3.35712Q139.755-3.91726 139.755-4.73888Q139.755-5.55022 139.155-6.1149Q138.554-6.67957 137.814-6.67957L18.0168-6.67957Q17.2043-6.67957 16.6441-6.1149Q16.084-5.55022 16.084-4.73888Q16.084-3.91726 16.6441-3.35712Q17.2043-2.79697 18.0168-2.79697ZM18.0168-33.0321L137.814-33.0321Q138.554-33.0321 139.155-33.5968Q139.755-34.1615 139.755-34.9728Q139.755-35.7944 139.155-36.3546Q138.554-36.9147 137.814-36.9147L18.0168-36.9147Q17.2043-36.9147 16.6441-36.3546Q16.084-35.7944 16.084-34.9728Q16.084-34.1615 16.6441-33.5968Q17.2043-33.0321 18.0168-33.0321ZM18.0168-63.2751L137.814-63.2751Q138.554-63.2751 139.155-63.8358Q139.755-64.3966 139.755-65.2079Q139.755-66.0283 139.155-66.5891Q138.554-67.1498 137.814-67.1498L18.0168-67.1498Q17.2043-67.1498 16.6441-66.5891Q16.084-66.0283 16.084-65.2079Q16.084-64.3966 16.6441-63.8358Q17.2043-63.2751 18.0168-63.2751Z"/>
  </g>
  <g id="Ultralight-L" transform="matrix(1 0 0 1 482.212 1556)">
   <path d="M17.3962-2.77112L137.607-2.77112Q138.076-2.77112 138.495-3.15021Q138.915-3.5293 138.915-4.07962Q138.915-4.63226 138.495-5.00947Q138.076-5.38669 137.607-5.38669L17.3962-5.38669Q16.8422-5.38669 16.4631-5.00947Q16.084-4.63226 16.084-4.07962Q16.084-3.5293 16.4631-3.15021Q16.8422-2.77112 17.3962-2.77112ZM17.3962-33.6268L137.607-33.6268Q138.076-33.6268 138.495-34.0041Q138.915-34.3813 138.915-34.9339Q138.915-35.4842 138.495-35.8633Q138.076-36.2424 137.607-36.2424L17.3962-36.2424Q16.8422-36.2424 16.4631-35.8633Q16.084-35.4842 16.084-34.9339Q16.084-34.3813 16.4631-34.0041Q16.8422-33.6268 17.3962-33.6268ZM17.3962-64.4774L137.607-64.4774Q138.076-64.4774 138.495-64.8572Q138.915-65.237 138.915-65.7896Q138.915-66.3385 138.495-66.7183Q138.076-67.0981 137.607-67.0981L17.3962-67.0981Q16.8422-67.0981 16.4631-66.7183Q16.084-66.3385 16.084-65.7896Q16.084-65.237 16.4631-64.8572Q16.8422-64.4774 17.3962-64.4774Z"/>
  </g>
  <g id="Black-M" transform="matrix(1 0 0 1 2868.01 1126)">
   <path d="M19.9605-2.22124L110.807-2.22124Q113.985-2.22124 116.149-4.58207Q118.312-6.9429 118.312-10.0118Q118.312-13.1894 116.149-15.4959Q113.985-17.8024 110.807-17.8024L19.9605-17.8024Q16.84-17.8024 14.6505-15.4673Q12.4609-13.1323 12.4609-10.0118Q12.4609-7.05709 14.6505-4.63917Q16.84-2.22124 19.9605-2.22124ZM19.9605-27.4657L110.807-27.4657Q113.985-27.4657 116.149-29.8293Q118.312-32.1929 118.312-35.2563Q118.312-38.4394 116.149-40.7431Q113.985-43.0468 110.807-43.0468L19.9605-43.0468Q16.84-43.0468 14.6505-40.7146Q12.4609-38.3823 12.4609-35.2563Q12.4609-32.3071 14.6505-29.8864Q16.84-27.4657 19.9605-27.4657ZM19.9605-52.6586L110.807-52.6586Q113.985-52.6586 116.149-55.0194Q118.312-57.3803 118.312-60.4437Q118.312-63.6268 116.149-65.9305Q113.985-68.2342 110.807-68.2342L19.9605-68.2342Q16.84-68.2342 14.6505-65.902Q12.4609-63.5697 12.4609-60.4437Q12.4609-57.4945 14.6505-55.0765Q16.84-52.6586 19.9605-52.6586Z"/>
  </g>
  <g id="Heavy-M" transform="matrix(1 0 0 1 2572.14 1126)">
   <path d="M19.0563-4.10259L110.025-4.10259Q112.813-4.10259 114.725-6.15812Q116.637-8.21365 116.637-10.9324Q116.637-13.722 114.725-15.7421Q112.813-17.7623 110.025-17.7623L19.0563-17.7623Q16.3103-17.7623 14.3856-15.7203Q12.4609-13.6784 12.4609-10.9324Q12.4609-8.3009 14.3856-6.20174Q16.3103-4.10259 19.0563-4.10259ZM19.0563-28.4053L110.025-28.4053Q112.813-28.4053 114.725-30.469Q116.637-32.5328 116.637-35.2351Q116.637-38.0412 114.725-40.0531Q112.813-42.065 110.025-42.065L19.0563-42.065Q16.3103-42.065 14.3856-40.0313Q12.4609-37.9975 12.4609-35.2351Q12.4609-32.62 14.3856-30.5127Q16.3103-28.4053 19.0563-28.4053ZM19.0563-52.6808L110.025-52.6808Q112.813-52.6808 114.725-54.7363Q116.637-56.7919 116.637-59.4942Q116.637-62.3002 114.725-64.3121Q112.813-66.3241 110.025-66.3241L19.0563-66.3241Q16.3103-66.3241 14.3856-64.2903Q12.4609-62.2566 12.4609-59.4942Q12.4609-56.8791 14.3856-54.78Q16.3103-52.6808 19.0563-52.6808Z"/>
  </g>
  <g id="Bold-M" transform="matrix(1 0 0 1 2276.37 1126)">
   <path d="M18.0447-6.20715L109.151-6.20715Q111.501-6.20715 113.132-7.92116Q114.763-9.63517 114.763-11.9623Q114.763-14.3178 113.132-16.0176Q111.501-17.7174 109.151-17.7174L18.0447-17.7174Q15.7177-17.7174 14.0893-16.0034Q12.4609-14.2893 12.4609-11.9623Q12.4609-9.69227 14.0893-7.94971Q15.7177-6.20715 18.0447-6.20715ZM18.0447-29.4564L109.151-29.4564Q111.501-29.4564 113.132-31.1847Q114.763-32.913 114.763-35.2114Q114.763-37.5957 113.132-39.2812Q111.501-40.9666 109.151-40.9666L18.0447-40.9666Q15.7177-40.9666 14.0893-39.2669Q12.4609-37.5672 12.4609-35.2114Q12.4609-32.9701 14.0893-31.2132Q15.7177-29.4564 18.0447-29.4564ZM18.0447-52.7056L109.151-52.7056Q111.501-52.7056 113.132-54.4196Q114.763-56.1337 114.763-58.4321Q114.763-60.8163 113.132-62.5018Q111.501-64.1873 109.151-64.1873L18.0447-64.1873Q15.7177-64.1873 14.0893-62.4875Q12.4609-60.7877 12.4609-58.4321Q12.4609-56.1908 14.0893-54.4482Q15.7177-52.7056 18.0447-52.7056Z"/>
  </g>
  <g id="Semibold-M" transform="matrix(1 0 0 1 1980.3 1126)">
   <path d="M17.3474-7.65802L108.547-7.65802Q110.597-7.65802 112.034-9.13659Q113.471-10.6152 113.471-12.6723Q113.471-14.7286 112.034-16.2075Q110.597-17.6865 108.547-17.6865L17.3474-17.6865Q15.3091-17.6865 13.885-16.1985Q12.4609-14.7104 12.4609-12.6723Q12.4609-10.6515 13.885-9.15475Q15.3091-7.65802 17.3474-7.65802ZM17.3474-30.1809L108.547-30.1809Q110.597-30.1809 112.034-31.6781Q113.471-33.1752 113.471-35.1951Q113.471-37.2886 112.034-38.749Q110.597-40.2094 108.547-40.2094L17.3474-40.2094Q15.3091-40.2094 13.885-38.7399Q12.4609-37.2705 12.4609-35.1951Q12.4609-33.2115 13.885-31.6962Q15.3091-30.1809 17.3474-30.1809ZM17.3474-52.7227L108.547-52.7227Q110.597-52.7227 112.034-54.2013Q113.471-55.6799 113.471-57.6999Q113.471-59.7933 112.034-61.2537Q110.597-62.7142 108.547-62.7142L17.3474-62.7142Q15.3091-62.7142 13.885-61.2446Q12.4609-59.7751 12.4609-57.6999Q12.4609-55.7163 13.885-54.2195Q15.3091-52.7227 17.3474-52.7227Z"/>
  </g>
  <g id="Medium-M" transform="matrix(1 0 0 1 1684.08 1126)">
   <path d="M16.8186-8.75814L108.09-8.75814Q109.911-8.75814 111.201-10.0582Q112.491-11.3582 112.491-13.2107Q112.491-15.04 111.201-16.3515Q109.911-17.6631 108.09-17.6631L16.8186-17.6631Q14.9994-17.6631 13.7301-16.3464Q12.4609-15.0298 12.4609-13.2107Q12.4609-11.3788 13.7301-10.0685Q14.9994-8.75814 16.8186-8.75814ZM16.8186-30.7304L108.09-30.7304Q109.911-30.7304 111.201-32.0522Q112.491-33.3739 112.491-35.1828Q112.491-37.0558 111.201-38.3455Q109.911-39.6353 108.09-39.6353L16.8186-39.6353Q14.9994-39.6353 13.7301-38.3404Q12.4609-37.0455 12.4609-35.1828Q12.4609-33.3945 13.7301-32.0624Q14.9994-30.7304 16.8186-30.7304ZM16.8186-52.7357L108.09-52.7357Q109.911-52.7357 111.201-54.0358Q112.491-55.3359 112.491-57.1447Q112.491-59.0176 111.201-60.3074Q109.911-61.5972 108.09-61.5972L16.8186-61.5972Q14.9994-61.5972 13.7301-60.3023Q12.4609-59.0073 12.4609-57.1447Q12.4609-55.3564 13.7301-54.0461Q14.9994-52.7357 16.8186-52.7357Z"/>
  </g>
  <g id="Regular-M" transform="matrix(1 0 0 1 1388.01 1126)">
   <path d="M16.1289-10.1931L107.494-10.1931Q109.017-10.1931 110.115-11.2603Q111.213-12.3274 111.213-13.9129Q111.213-15.4463 110.115-16.5394Q109.017-17.6325 107.494-17.6325L16.1289-17.6325Q14.5953-17.6325 13.5281-16.5394Q12.4609-15.4463 12.4609-13.9129Q12.4609-12.3274 13.5281-11.2603Q14.5953-10.1931 16.1289-10.1931ZM16.1289-31.447L107.494-31.447Q109.017-31.447 110.115-32.5401Q111.213-33.6332 111.213-35.1666Q111.213-36.752 110.115-37.8192Q109.017-38.8864 107.494-38.8864L16.1289-38.8864Q14.5953-38.8864 13.5281-37.8192Q12.4609-36.752 12.4609-35.1666Q12.4609-33.6332 13.5281-32.5401Q14.5953-31.447 16.1289-31.447ZM16.1289-52.7526L107.494-52.7526Q109.017-52.7526 110.115-53.8199Q111.213-54.8871 111.213-56.4205Q111.213-58.0058 110.115-59.0731Q109.017-60.1403 107.494-60.1403L16.1289-60.1403Q14.5953-60.1403 13.5281-59.0731Q12.4609-58.0058 12.4609-56.4205Q12.4609-54.8871 13.5281-53.8199Q14.5953-52.7526 16.1289-52.7526Z"/>
  </g>
  <g id="Light-M" transform="matrix(1 0 0 1 1091.85 1126)">
   <path d="M15.3075-10.1589L107.22-10.1589Q108.384-10.1589 109.242-10.9864Q110.101-11.814 110.101-13.0403Q110.101-14.2314 109.242-15.0764Q108.384-15.9214 107.22-15.9214L15.3075-15.9214Q14.1161-15.9214 13.2885-15.0764Q12.4609-14.2314 12.4609-13.0403Q12.4609-11.814 13.2885-10.9864Q14.1161-10.1589 15.3075-10.1589ZM15.3075-32.2341L107.22-32.2341Q108.384-32.2341 109.242-33.0791Q110.101-33.9241 110.101-35.1151Q110.101-36.3415 109.242-37.1691Q108.384-37.9966 107.22-37.9966L15.3075-37.9966Q14.1161-37.9966 13.2885-37.1691Q12.4609-36.3415 12.4609-35.1151Q12.4609-33.9241 13.2885-33.0791Q14.1161-32.2341 15.3075-32.2341ZM15.3075-54.3438L107.22-54.3438Q108.384-54.3438 109.242-55.1716Q110.101-55.9994 110.101-57.1904Q110.101-58.4163 109.242-59.2441Q108.384-60.0719 107.22-60.0719L15.3075-60.0719Q14.1161-60.0719 13.2885-59.2441Q12.4609-58.4163 12.4609-57.1904Q12.4609-55.9994 13.2885-55.1716Q14.1161-54.3438 15.3075-54.3438Z"/>
  </g>
  <g id="Thin-M" transform="matrix(1 0 0 1 795.877 1126)">
   <path d="M14.2213-10.1136L106.858-10.1136Q107.546-10.1136 108.088-10.6243Q108.63-11.1349 108.63-11.8864Q108.63-12.6245 108.088-13.1414Q107.546-13.6583 106.858-13.6583L14.2213-13.6583Q13.4822-13.6583 12.9716-13.1414Q12.4609-12.6245 12.4609-11.8864Q12.4609-11.1349 12.9716-10.6243Q13.4822-10.1136 14.2213-10.1136ZM14.2213-33.2752L106.858-33.2752Q107.546-33.2752 108.088-33.792Q108.63-34.3089 108.63-35.0471Q108.63-35.7986 108.088-36.3092Q107.546-36.8199 106.858-36.8199L14.2213-36.8199Q13.4822-36.8199 12.9716-36.3092Q12.4609-35.7986 12.4609-35.0471Q12.4609-34.3089 12.9716-33.792Q13.4822-33.2752 14.2213-33.2752ZM14.2213-56.4483L106.858-56.4483Q107.546-56.4483 108.088-56.9594Q108.63-57.4705 108.63-58.2086Q108.63-58.9593 108.088-59.4703Q107.546-59.9814 106.858-59.9814L14.2213-59.9814Q13.4822-59.9814 12.9716-59.4703Q12.4609-58.9593 12.4609-58.2086Q12.4609-57.4705 12.9716-56.9594Q13.4822-56.4483 14.2213-56.4483Z"/>
  </g>
  <g id="Ultralight-M" transform="matrix(1 0 0 1 499.542 1126)">
   <path d="M13.6649-10.0904L106.673-10.0904Q107.118-10.0904 107.497-10.4388Q107.877-10.7871 107.877-11.2953Q107.877-11.8015 107.497-12.1504Q107.118-12.4992 106.673-12.4992L13.6649-12.4992Q13.1576-12.4992 12.8093-12.1504Q12.4609-11.8015 12.4609-11.2953Q12.4609-10.7871 12.8093-10.4388Q13.1576-10.0904 13.6649-10.0904ZM13.6649-33.8084L106.673-33.8084Q107.118-33.8084 107.497-34.1572Q107.877-34.506 107.877-35.0122Q107.877-35.5205 107.497-35.8688Q107.118-36.2171 106.673-36.2171L13.6649-36.2171Q13.1576-36.2171 12.8093-35.8688Q12.4609-35.5205 12.4609-35.0122Q12.4609-34.506 12.8093-34.1572Q13.1576-33.8084 13.6649-33.8084ZM13.6649-57.5263L106.673-57.5263Q107.118-57.5263 107.497-57.8751Q107.877-58.224 107.877-58.7302Q107.877-59.2374 107.497-59.5862Q107.118-59.9351 106.673-59.9351L13.6649-59.9351Q13.1576-59.9351 12.8093-59.5862Q12.4609-59.2374 12.4609-58.7302Q12.4609-58.224 12.8093-57.8751Q13.1576-57.5263 13.6649-57.5263Z"/>
  </g>
  <g id="Black-S" transform="matrix(1 0 0 1 2881.94 696)">
   <path d="M15.8691-8.78906L87.0605-8.78906Q89.6484-8.78906 91.4062-10.7178Q93.1641-12.6465 93.1641-15.1367Q93.1641-17.7246 91.4062-19.6045Q89.6484-21.4844 87.0605-21.4844L15.8691-21.4844Q13.3301-21.4844 11.5479-19.5801Q9.76562-17.6758 9.76562-15.1367Q9.76562-12.7441 11.5479-10.7666Q13.3301-8.78906 15.8691-8.78906ZM15.8691-28.9062L87.0605-28.9062Q89.6484-28.9062 91.4062-30.835Q93.1641-32.7637 93.1641-35.2539Q93.1641-37.8418 91.4062-39.7217Q89.6484-41.6016 87.0605-41.6016L15.8691-41.6016Q13.3301-41.6016 11.5479-39.6973Q9.76562-37.793 9.76562-35.2539Q9.76562-32.8613 11.5479-30.8838Q13.3301-28.9062 15.8691-28.9062ZM15.8691-48.9746L87.0605-48.9746Q89.6484-48.9746 91.4062-50.9033Q93.1641-52.832 93.1641-55.3223Q93.1641-57.9102 91.4062-59.79Q89.6484-61.6699 87.0605-61.6699L15.8691-61.6699Q13.3301-61.6699 11.5479-59.7656Q9.76562-57.8613 9.76562-55.3223Q9.76562-52.9297 11.5479-50.9521Q13.3301-48.9746 15.8691-48.9746Z"/>
  </g>
  <g id="Heavy-S" transform="matrix(1 0 0 1 2585.87 696)">
   <path d="M15.2007-10.4025L86.4267-10.4025Q88.7265-10.4025 90.2999-12.1007Q91.8733-13.7989 91.8733-16.0356Q91.8733-18.3354 90.2999-20.0021Q88.7265-21.6688 86.4267-21.6688L15.2007-21.6688Q12.9382-21.6688 11.3519-19.9834Q9.76562-18.2981 9.76562-16.0356Q9.76562-13.8735 11.3519-12.138Q12.9382-10.4025 15.2007-10.4025ZM15.2007-29.6092L86.4267-29.6092Q88.7265-29.6092 90.2999-31.3132Q91.8733-33.0172 91.8733-35.2424Q91.8733-37.5537 90.2999-39.2146Q88.7265-40.8755 86.4267-40.8755L15.2007-40.8755Q12.9382-40.8755 11.3519-39.196Q9.76562-37.5164 9.76562-35.2424Q9.76562-33.0918 11.3519-31.3505Q12.9382-29.6092 15.2007-29.6092ZM15.2007-48.7902L86.4267-48.7902Q88.7265-48.7902 90.2999-50.4884Q91.8733-52.1867 91.8733-54.4118Q91.8733-56.7231 90.2999-58.3841Q88.7265-60.045 86.4267-60.045L15.2007-60.045Q12.9382-60.045 11.3519-58.3654Q9.76562-56.6858 9.76562-54.4118Q9.76562-52.2613 11.3519-50.5257Q12.9382-48.7902 15.2007-48.7902Z"/>
  </g>
  <g id="Bold-S" transform="matrix(1 0 0 1 2289.88 696)">
   <path d="M14.4531-12.207L85.7178-12.207Q87.6953-12.207 89.0625-13.6475Q90.4297-15.0879 90.4297-17.041Q90.4297-19.0186 89.0625-20.4468Q87.6953-21.875 85.7178-21.875L14.4531-21.875Q12.5-21.875 11.1328-20.4346Q9.76562-18.9941 9.76562-17.041Q9.76562-15.1367 11.1328-13.6719Q12.5-12.207 14.4531-12.207ZM14.4531-30.3955L85.7178-30.3955Q87.6953-30.3955 89.0625-31.8481Q90.4297-33.3008 90.4297-35.2295Q90.4297-37.2314 89.0625-38.6475Q87.6953-40.0635 85.7178-40.0635L14.4531-40.0635Q12.5-40.0635 11.1328-38.6353Q9.76562-37.207 9.76562-35.2295Q9.76562-33.3496 11.1328-31.8726Q12.5-30.3955 14.4531-30.3955ZM14.4531-48.584L85.7178-48.584Q87.6953-48.584 89.0625-50.0244Q90.4297-51.4648 90.4297-53.3936Q90.4297-55.3955 89.0625-56.8115Q87.6953-58.2275 85.7178-58.2275L14.4531-58.2275Q12.5-58.2275 11.1328-56.7993Q9.76562-55.3711 9.76562-53.3936Q9.76562-51.5137 11.1328-50.0488Q12.5-48.584 14.4531-48.584Z"/>
  </g>
  <g id="Semibold-S" transform="matrix(1 0 0 1 1993.67 696)">
   <path d="M13.9377-13.4512L85.229-13.4512Q86.9844-13.4512 88.2094-14.7139Q89.4344-15.9766 89.4344-17.7342Q89.4344-19.4896 88.2094-20.7534Q86.9844-22.0172 85.229-22.0172L13.9377-22.0172Q12.1979-22.0172 10.9817-20.7456Q9.76562-19.474 9.76562-17.7342Q9.76562-16.0076 10.9817-14.7294Q12.1979-13.4512 13.9377-13.4512ZM13.9377-30.9376L85.229-30.9376Q86.9844-30.9376 88.2094-32.2169Q89.4344-33.4963 89.4344-35.2206Q89.4344-37.0093 88.2094-38.2564Q86.9844-39.5036 85.229-39.5036L13.9377-39.5036Q12.1979-39.5036 10.9817-38.2487Q9.76562-36.9937 9.76562-35.2206Q9.76562-33.5273 10.9817-32.2325Q12.1979-30.9376 13.9377-30.9376ZM13.9377-48.4418L85.229-48.4418Q86.9844-48.4418 88.2094-49.7045Q89.4344-50.9672 89.4344-52.6915Q89.4344-54.4802 88.2094-55.7273Q86.9844-56.9745 85.229-56.9745L13.9377-56.9745Q12.1979-56.9745 10.9817-55.7196Q9.76562-54.4646 9.76562-52.6915Q9.76562-50.9982 10.9817-49.72Q12.1979-48.4418 13.9377-48.4418Z"/>
  </g>
  <g id="Medium-S" transform="matrix(1 0 0 1 1697.33 696)">
   <path d="M13.5469-14.3945L84.8584-14.3945Q86.4453-14.3945 87.5625-15.5225Q88.6797-16.6504 88.6797-18.2598Q88.6797-19.8467 87.5625-20.9858Q86.4453-22.125 84.8584-22.125L13.5469-22.125Q11.9688-22.125 10.8672-20.9814Q9.76562-19.8379 9.76562-18.2598Q9.76562-16.668 10.8672-15.5312Q11.9688-14.3945 13.5469-14.3945ZM13.5469-31.3486L84.8584-31.3486Q86.4453-31.3486 87.5625-32.4966Q88.6797-33.6445 88.6797-35.2139Q88.6797-36.8408 87.5625-37.96Q86.4453-39.0791 84.8584-39.0791L13.5469-39.0791Q11.9688-39.0791 10.8672-37.9556Q9.76562-36.832 9.76562-35.2139Q9.76562-33.6621 10.8672-32.5054Q11.9688-31.3486 13.5469-31.3486ZM13.5469-48.334L84.8584-48.334Q86.4453-48.334 87.5625-49.4619Q88.6797-50.5898 88.6797-52.1592Q88.6797-53.7861 87.5625-54.9053Q86.4453-56.0244 84.8584-56.0244L13.5469-56.0244Q11.9688-56.0244 10.8672-54.9009Q9.76562-53.7773 9.76562-52.1592Q9.76562-50.6074 10.8672-49.4707Q11.9688-48.334 13.5469-48.334Z"/>
  </g>
  <g id="Regular-S" transform="matrix(1 0 0 1 1401.11 696)">
   <path d="M13.0371-15.625L84.375-15.625Q85.7422-15.625 86.7188-16.5771Q87.6953-17.5293 87.6953-18.9453Q87.6953-20.3125 86.7188-21.2891Q85.7422-22.2656 84.375-22.2656L13.0371-22.2656Q11.6699-22.2656 10.7178-21.2891Q9.76562-20.3125 9.76562-18.9453Q9.76562-17.5293 10.7178-16.5771Q11.6699-15.625 13.0371-15.625ZM13.0371-31.8848L84.375-31.8848Q85.7422-31.8848 86.7188-32.8613Q87.6953-33.8379 87.6953-35.2051Q87.6953-36.6211 86.7188-37.5732Q85.7422-38.5254 84.375-38.5254L13.0371-38.5254Q11.6699-38.5254 10.7178-37.5732Q9.76562-36.6211 9.76562-35.2051Q9.76562-33.8379 10.7178-32.8613Q11.6699-31.8848 13.0371-31.8848ZM13.0371-48.1934L84.375-48.1934Q85.7422-48.1934 86.7188-49.1455Q87.6953-50.0977 87.6953-51.4648Q87.6953-52.8809 86.7188-53.833Q85.7422-54.7852 84.375-54.7852L13.0371-54.7852Q11.6699-54.7852 10.7178-53.833Q9.76562-52.8809 9.76562-51.4648Q9.76562-50.0977 10.7178-49.1455Q11.6699-48.1934 13.0371-48.1934Z"/>
  </g>
  <g id="Light-S" transform="matrix(1 0 0 1 1104.89 696)">
   <path d="M12.3105-15.5947L84.1329-15.5947Q85.1822-15.5947 85.9468-16.3349Q86.7114-17.0751 86.7114-18.1735Q86.7114-19.2378 85.9468-19.9949Q85.1822-20.752 84.1329-20.752L12.3105-20.752Q11.246-20.752 10.5058-19.9949Q9.76562-19.2378 9.76562-18.1735Q9.76562-17.0751 10.5058-16.3349Q11.246-15.5947 12.3105-15.5947ZM12.3105-32.5811L84.1329-32.5811Q85.1822-32.5811 85.9468-33.3382Q86.7114-34.0953 86.7114-35.1596Q86.7114-36.2579 85.9468-36.9981Q85.1822-37.7383 84.1329-37.7383L12.3105-37.7383Q11.246-37.7383 10.5058-36.9981Q9.76562-36.2579 9.76562-35.1596Q9.76562-34.0953 10.5058-33.3382Q11.246-32.5811 12.3105-32.5811ZM12.3105-49.601L84.1329-49.601Q85.1822-49.601 85.9468-50.3413Q86.7114-51.0816 86.7114-52.1459Q86.7114-53.244 85.9468-53.9843Q85.1822-54.7246 84.1329-54.7246L12.3105-54.7246Q11.246-54.7246 10.5058-53.9843Q9.76562-53.244 9.76562-52.1459Q9.76562-51.0816 10.5058-50.3413Q11.246-49.601 12.3105-49.601Z"/>
  </g>
  <g id="Thin-S" transform="matrix(1 0 0 1 808.834 696)">
   <path d="M11.3496-15.5547L83.8127-15.5547Q84.4415-15.5547 84.9258-16.0145Q85.41-16.4744 85.41-17.1527Q85.41-17.8164 84.9258-18.2832Q84.4415-18.75 83.8127-18.75L11.3496-18.75Q10.6853-18.75 10.2255-18.2832Q9.76562-17.8164 9.76562-17.1527Q9.76562-16.4744 10.2255-16.0145Q10.6853-15.5547 11.3496-15.5547ZM11.3496-33.502L83.8127-33.502Q84.4415-33.502 84.9258-33.9688Q85.41-34.4356 85.41-35.0993Q85.41-35.7776 84.9258-36.2375Q84.4415-36.6973 83.8127-36.6973L11.3496-36.6973Q10.6853-36.6973 10.2255-36.2375Q9.76562-35.7776 9.76562-35.0993Q9.76562-34.4356 10.2255-33.9688Q10.6853-33.502 11.3496-33.502ZM11.3496-51.4627L83.8127-51.4627Q84.4415-51.4627 84.9258-51.9228Q85.41-52.3829 85.41-53.0466Q85.41-53.7243 84.9258-54.1845Q84.4415-54.6446 83.8127-54.6446L11.3496-54.6446Q10.6853-54.6446 10.2255-54.1845Q9.76562-53.7243 9.76562-53.0466Q9.76562-52.3829 10.2255-51.9228Q10.6853-51.4627 11.3496-51.4627Z"/>
  </g>
  <g id="Ultralight-S" transform="matrix(1 0 0 1 512.456 696)">
   <path d="M10.8574-15.5342L83.6487-15.5342Q84.0622-15.5342 84.4028-15.8504Q84.7435-16.1667 84.7435-16.6298Q84.7435-17.0883 84.4028-17.4065Q84.0622-17.7246 83.6487-17.7246L10.8574-17.7246Q10.3981-17.7246 10.0819-17.4065Q9.76562-17.0883 9.76562-16.6298Q9.76562-16.1667 10.0819-15.8504Q10.3981-15.5342 10.8574-15.5342ZM10.8574-33.9737L83.6487-33.9737Q84.0622-33.9737 84.4028-34.2918Q84.7435-34.61 84.7435-35.0685Q84.7435-35.5316 84.4028-35.8479Q84.0622-36.1641 83.6487-36.1641L10.8574-36.1641Q10.3981-36.1641 10.0819-35.8479Q9.76562-35.5316 9.76562-35.0685Q9.76562-34.61 10.0819-34.2918Q10.3981-33.9737 10.8574-33.9737ZM10.8574-52.4162L83.6487-52.4162Q84.0622-52.4162 84.4028-52.7328Q84.7435-53.0495 84.7435-53.508Q84.7435-53.9703 84.4028-54.287Q84.0622-54.6036 83.6487-54.6036L10.8574-54.6036Q10.3981-54.6036 10.0819-54.287Q9.76562-53.9703 9.76562-53.508Q9.76562-53.0495 10.0819-52.7328Q10.3981-52.4162 10.8574-52.4162Z"/>
  </g>
 </g>
</svg>
